<?xml version="1.0" encoding="utf-8"?>
<!-- Generator: Adobe Illustrator 19.1.0, SVG Export Plug-In . SVG Version: 6.00 Build 0)  -->
<svg version="1.1" id="Capa_1" xmlns="http://www.w3.org/2000/svg" xmlns:xlink="http://www.w3.org/1999/xlink" x="0px" y="0px"
	 viewBox="-38 162.3 517.6 517.6" style="enable-background:new -38 162.3 517.6 517.6;" xml:space="preserve">
<style type="text/css">
	.st0{fill:url(#SVGID_1_);}
	.st1{fill:#1CB0B9;}
	.st2{fill:#FFFFFF;}
	.st3{fill:#FEFFFF;}
</style>
<radialGradient id="SVGID_1_" cx="220.8" cy="420.5101" r="258.8" gradientTransform="matrix(1 0 0 1 0 0.5799)" gradientUnits="userSpaceOnUse">
	<stop  offset="0.7085" style="stop-color:#000000"/>
	<stop  offset="1" style="stop-color:#FFFFFF;stop-opacity:0"/>
</radialGradient>
<circle class="st0" cx="220.8" cy="421.1" r="258.8"/>
<title>Recurso 1</title>
<g id="Capa_2">
	<g id="Capa_1-2">
		<g id="Capa_1-2-2">
			<path class="st1" d="M437.7,421.6c-1.1,124-97,225.1-220.3,223.4C99.5,643.4,2,544.8,3.9,417c2-121.3,97.1-221.8,220.8-219.8
				C342.3,199.2,436.9,297,437.7,421.6z"/>
			<path class="st2" d="M308.6,415.3c3.3-10.1,8.9-18,18.8-22c15.1-6.1,32.2,1.6,38.2,17.2c0.3,0.8,0.6,1.7,0.8,2.5
				c4.9,16.3-4,33.6-19.8,38.6l-1,0.3c-12.1,3-24.8-1.7-31.8-12c-1.2-1.8-2.4-3.7-3.5-5.6C307.4,428.4,306.8,421.7,308.6,415.3z"/>
			<path class="st2" d="M302.5,417.3l0.2,2.3c1,1.3,1,3.1,0,4.5l-0.2,2.4c-0.3,1.2-0.6,2.4-1.1,3.5c-0.3,0.3-0.4,0.8-0.3,1.3
				c-0.7,1-0.5,2.3-1.4,3.2c-2.4,3.1-4.3,6.5-7.4,9c-11,9.4-27.6,8.1-37.1-2.9c-0.3-0.3-0.5-0.6-0.8-1c-9.3-11.9-7.7-29.1,3.8-39
				c11-9.4,27.6-8.1,37.1,2.9c0.3,0.3,0.5,0.6,0.8,1c0.8,1.1,1.6,2.2,2.3,3.3c1.1,1.9,2,4,2.9,5.9
				C301.9,414.9,302.3,416.1,302.5,417.3z"/>
			<path class="st2" d="M249.5,356.8c0.2-14.8,12-26.6,26.3-26.4s25.7,12.4,25.5,27.2c-0.2,14.8-12,26.6-26.3,26.4
				S249.3,371.6,249.5,356.8z"/>
			<path class="st2" d="M275.3,513.6c-14.1,0.1-25.7-11.6-25.8-26.2v-0.5c-0.4-14.8,11-27.1,25.3-27.5s26.2,11.3,26.6,26.1
				c0,0.5,0,0.9,0,1.3c0.2,14.5-11,26.5-25.1,26.7L275.3,513.6z"/>
			<path class="st2" d="M214.4,397.6c13-0.2,23.7,10.5,23.8,24c0,0.1,0,0.2,0,0.4c0,13.5-10.5,24.6-23.7,24.8
				c-13.1,0.2-23.8-10.5-24-24v-0.9c0-13.4,10.5-24.2,23.4-24.2L214.4,397.6z"/>
			<path class="st3" d="M214.4,333.5c12.6,0.1,22.8,10.4,23,23.4c-0.1,13.3-10.4,24-23.2,24.2c-12.8-0.4-23-11.1-23.1-24.4
				C191.5,343.8,201.8,333.5,214.4,333.5z"/>
			<path class="st2" d="M237.4,486.8c0.1,13.2-10.1,24-22.9,24.2c-12.8,0.1-23.3-10.5-23.4-23.7s10.1-24,22.9-24.2h0.5
				C227.1,463.3,237.2,473.8,237.4,486.8z"/>
			<path class="st3" d="M214.2,269.6c9.7-1.1,22.3,8.1,22.2,23c-0.1,11.8-8.5,22.5-22.7,22.6c-11.8,0.1-21.4-10.9-21.5-23.2
				C192.1,279.7,203.5,268.4,214.2,269.6z"/>
			<path class="st3" d="M192.2,550.7c0.4-12.8,10.5-22,23.5-21.5c12.1,0.9,21.3,11.7,20.5,24.2s-11.3,22-23.4,21.1
				C200.6,573.7,191.6,563.1,192.2,550.7z"/>
			<path class="st2" d="M152.4,443.7c-11.6-0.1-21-9.8-20.9-21.8c0-12,9.5-21.6,21-21.6c11.6,0,21,9.8,20.9,21.8v0.1
				C173.3,434.2,163.9,443.8,152.4,443.7z"/>
			<path class="st3" d="M172.3,357.7c-0.1,11.3-9,20.4-19.9,20.3H152c-11-0.4-19.8-9.9-19.5-21.3c0.2-11.4,9.1-20.4,20.1-20.3h0.4
				c10.8,0.1,19.5,9.2,19.4,20.3C172.3,357.1,172.3,357.4,172.3,357.7z"/>
			<path class="st3" d="M172.3,487.1c0.1,11.2-8.6,20.4-19.4,20.5h-0.6c-11-0.1-19.9-9.3-19.8-20.7v-0.1
				c0.1-11.4,9.1-20.6,20.2-20.6c11.1,0,19.8,9.3,19.7,20.7L172.3,487.1L172.3,487.1z"/>
			<path class="st3" d="M90.7,440.5c-9.9,0-18-8.3-18-18.6v-0.2c0.3-9.9,8.1-17.9,18-18.3c10.1,0.2,18.1,8.6,17.9,18.7l0,0v0.3
				c-0.1,10-8,18.1-17.7,18h-0.2V440.5z"/>
		</g>
	</g>
</g>
</svg>
