<svg xmlns="http://www.w3.org/2000/svg" xmlns:xlink="http://www.w3.org/1999/xlink" viewBox="0 0 517.6 517.6"><defs><style>.cls-1{fill:url(#radial-gradient);}.cls-2{fill:#fff;}.cls-3{fill:#e98f87;}.cls-4{fill:#f2c2be;}.cls-5{fill:#f7dcd9;}.cls-6{fill:#efb2ad;}.cls-7{fill:#4284f3;}.cls-8{fill:#e94335;}.cls-9{fill:#34a753;}.cls-10{fill:#fabb05;}</style><radialGradient id="radial-gradient" cx="258.8" cy="258.78" r="258.8" gradientTransform="matrix(1, 0, 0, -1, 0, 517.58)" gradientUnits="userSpaceOnUse"><stop offset="0.71"/><stop offset="1" stop-color="#fff" stop-opacity="0"/></radialGradient></defs><title>Asset 3</title><g id="Layer_2" data-name="Layer 2"><g id="Capa_1" data-name="Capa 1"><circle class="cls-1" cx="258.8" cy="258.8" r="258.8"/><g id="Capa_1-2" data-name="Capa 1-2"><circle class="cls-2" cx="258.8" cy="259.1" r="222.2"/><path class="cls-3" d="M84.2,216.7v5c0,.1-.1,0-.1,0l.1-5C84,216.6,84.2,216.6,84.2,216.7Z"/><path class="cls-4" d="M84,221.7h0l.1,1.4H84Z"/><path class="cls-5" d="M84,214.8h0l.1,1c0,.1-.1.1-.1,0Z"/><path class="cls-6" d="M84,215.8h0a2.77,2.77,0,0,1,.1.9H84Z"/></g><path class="cls-7" d="M259.51,171.26c8.76-7.8,16.83-16.3,25.11-24.57a86.26,86.26,0,0,1,27.15-18.37c50.94-22,109.39,11.3,116,66.35,2.64,22.16-2.85,42.56-17,60.13C401,267,389.15,277.41,377.85,288.23c-1.49-.07-2.28-1.21-3.19-2.12q-15.23-15.18-30.39-30.39c-1-1-2.19-1.91-2.22-3.54.38-1.77,1.8-2.78,3-4,7.17-7.21,14.38-14.37,21.55-21.58,14.95-15,12.29-38.13-5.85-49.08-11.42-6.9-28.1-5.84-39.53,5.7-18.84,19-37.84,37.91-56.79,56.83-1.25,1.25-2.31,2.8-4.2,3.23-1.83-.13-3-1.4-4.16-2.57q-15.22-15.18-30.4-30.4c-.92-.92-2-1.78-2.12-3.21.14-1.59,1.32-2.5,2.33-3.5,10.71-10.57,21.09-21.5,32.13-31.75C258.41,171.49,258.83,171.07,259.51,171.26Z"/><path class="cls-8" d="M259.51,171.26l-33.57,33.49c-.76.75-1.5,1.52-2.24,2.28a1,1,0,0,1-1,.08c-8.05-7.16-15.3-15.12-23-22.63a40.71,40.71,0,0,0-12.24-8.62c-12.68-5.52-29.18-2-37.65,9.82-9.08,12.63-8.18,29.09,2.27,39.83,7.43,7.63,15,15.07,22.56,22.61,1.16,1.18,2.56,2.2,3,3.92.08,1.64-1.1,2.57-2.09,3.57-9.5,9.52-19,19.06-28.55,28.51-1.57,1.55-3.15,3.27-5.55,3.63-11.83-11.65-25-22.07-34.8-35.61-33.76-46.85-10-112.5,46.33-127.51,28.39-7.57,54.36-1.57,76.84,17.49C240.39,151.09,249.94,161.21,259.51,171.26Z"/><path class="cls-9" d="M342.25,252.48q15.84,15.79,31.67,31.6c1.34,1.34,2.62,2.76,3.93,4.15-11,11-21.94,22-33,32.93q-41.06,40.63-82.11,81.25c-2.27,2.26-3.45,2.37-5.79,0q-38.76-38.61-77.74-77c-.5-.49-.91-1.08-1.36-1.62,0-1.52,1.2-2.29,2.11-3.19,10.39-10.4,20.64-20.94,31.54-30.83.87-.8,1.65-1.77,3-1.78,1.44.47,2.33,1.65,3.32,2.67,12.78,13.27,26.48,25.6,39.39,38.73,2,2,3.2,2,5.24,0,15.45-14.66,30.51-29.71,45.44-44.88,10.15-10.31,20.91-20,31.1-30.27C339.88,253.43,340.66,252.18,342.25,252.48Z"/><path class="cls-10" d="M214.34,288.22l-36.47,35.6c-5.84-5.65-11.72-11.26-17.49-17-6.36-6.31-12.62-12.72-18.93-19.09,12.49-11.28,24.17-23.38,36-35.36a5.39,5.39,0,0,1,1.92-2.95c13.66-13.73,28-26.76,41.44-40.71.74-.76,1.48-1.61,2.7-1.58l.23-.12,36,35.8c0,1.66-1.34,2.47-2.32,3.46q-19.79,19.83-39.61,39.61C216.82,286.88,216,288.2,214.34,288.22Z"/></g></g></svg>