<?xml version="1.0" encoding="utf-8"?>
<!-- Generator: Adobe Illustrator 19.1.0, SVG Export Plug-In . SVG Version: 6.00 Build 0)  -->
<svg version="1.1" id="Capa_1" xmlns="http://www.w3.org/2000/svg" xmlns:xlink="http://www.w3.org/1999/xlink" x="0px" y="0px"
	 viewBox="-38 162.3 517.6 517.6" style="enable-background:new -38 162.3 517.6 517.6;" xml:space="preserve">
<style type="text/css">
	.st0{fill:url(#SVGID_1_);}
	.st1{fill:#5D5D5D;}
	.st2{fill:#FEFEFE;}
	.st3{fill:url(#SVGID_2_);}
	.st4{fill:#F61922;}
	.st5{fill:#CACFD3;}
</style>
<radialGradient id="SVGID_1_" cx="220.8" cy="419.9301" r="258.8" gradientTransform="matrix(1 0 0 1 0 1.1599)" gradientUnits="userSpaceOnUse">
	<stop  offset="0.7085" style="stop-color:#000000"/>
	<stop  offset="1" style="stop-color:#FFFFFF;stop-opacity:0"/>
</radialGradient>
<circle class="st0" cx="220.8" cy="421.1" r="258.8"/>
<title>Recurso 1</title>
<rect x="-253" y="410.5" class="st1" width="44" height="41"/>
<g id="Capa_2_1_">
	<g id="Capa_1-2_1_">
		<g id="Capa_2-2">
			<g id="logo_large.svg_Image">
				<ellipse class="st2" cx="220.8" cy="421.1" rx="212.9" ry="222.2"/>
			</g>
		</g>
	</g>
</g>
<g>
	<linearGradient id="SVGID_2_" gradientUnits="userSpaceOnUse" x1="150.2744" y1="385.0959" x2="670.4559" y2="653.5594">
		<stop  offset="0" style="stop-color:#FFFFFF"/>
		<stop  offset="0.1046" style="stop-color:#F5F5F5"/>
		<stop  offset="0.2813" style="stop-color:#DBDBDB"/>
		<stop  offset="0.5073" style="stop-color:#B0B0B0"/>
		<stop  offset="0.5222" style="stop-color:#ADADAD"/>
		<stop  offset="0.6149" style="stop-color:#919191"/>
		<stop  offset="0.8141" style="stop-color:#484848"/>
		<stop  offset="1" style="stop-color:#000000"/>
	</linearGradient>
	<path class="st3" d="M352.3,360.7c-21.4-0.1-42.9-0.3-64.3,0.1c-6.7,0.1-9.1-1.6-8.9-8.7c0.5-22.9,0.2-45.9,0.2-68.8
		c0-11.2-2.2-13.4-13.7-13.4c-29.7-0.1-59.3-0.1-89-0.1c-12.2,0-14.6,2.3-14.6,14.4c-0.1,22.9-0.1,45.9,0.1,68.8
		c0.1,5.7-1.5,7.8-7.6,7.8c-21.9-0.3-43.9-0.2-65.8-0.1c-10.2,0-12.9,2.7-13,12.9c-0.1,32.2,0,64.3,0.1,96.5
		c0,9.9,2.5,12.4,12.4,12.4c21.4,0,42.9,0.3,64.3-0.2c7.4-0.2,9.9,1.6,9.7,9.4c-0.5,22.9-0.2,45.9-0.1,68.8
		c0.1,10.1,2.6,12.7,12.2,12.7c30.9,0,61.8,0,92.8-0.1c9.5,0,11.9-2.5,11.9-12.1c0.1-23.2,0.1-46.4,0.1-69.6c0-2.7,0-5.4,0-9.1
		c25.6,0,49.8,0,73.9,0c10,0,12.3-2.3,12.4-12.4c0.1-31.9,0.1-63.8,0.1-95.8C365.5,363.2,363.1,360.8,352.3,360.7z M226.2,435.7
		c-5.7,2.4-11.5,1.6-15-3.2c-2.7-3.7-4.5-9-4.3-13.5c1.4-32.9,3.4-65.7,5.1-98.6c0.1-2.6,0-5.3,0-8.5c-4,0.8-7.2,1.5-12.1,2.5
		c7.3-9.9,13.6-18.6,20.6-28.2c7.1,9.5,13.6,18.1,21.2,28.4c-5-1.1-8.2-1.8-12.7-2.8c0.3,6.1,0.5,11.6,0.9,17.1
		c1.8,30.6,3.6,61.2,5.3,91.8C235.7,427.8,232.8,433,226.2,435.7z M307.2,443c0.8-5.3,1.2-8.4,1.8-12.3c-14.7,1-29.2,2.1-43.4,3.1
		v-24.7c14.1,0.9,28.6,1.9,43.7,2.8c-0.7-4.2-1.2-7.2-1.8-10.3c0.5-0.4,0.9-0.8,1.4-1.2c8.5,6.9,17,13.7,26.5,21.4
		C325.9,429.1,317.3,435.4,307.2,443z"/>
	<path class="st4" d="M281.6,255.9c9.3,3.9,12.3,10.8,12.1,20.8c-0.6,20.7,0.1,41.4-0.3,62.1c-0.1,6.8,2.2,8.4,8.6,8.3
		c19.7-0.4,39.4-0.2,59.1-0.1c13.4,0,17.7,4.2,17.7,17.3c0,38.4,0,76.8,0,115.2c0,12.6-4.6,17.1-17.2,17.1c-19.7,0-39.4,0-59.1,0
		c-2.7,0-5.3,0-8.9,0c0,3.6,0,6.2,0,8.9c0,21.4,0,42.9,0,64.3c0,11.6-4.7,16.3-16.4,16.4c-37.4,0.1-74.8,0.1-112.2,0
		c-11.6,0-16.3-4.8-16.3-16.5c-0.1-23.9,0-47.8,0-72.7c-3-0.2-5.7-0.4-8.3-0.4c-20,0-39.9,0-59.9,0c-12.3,0-17.4-5-17.5-17.1
		c-0.1-38.4-0.1-76.8,0-115.2c0-12.3,4.9-17.2,17.3-17.2c19.7-0.1,39.4-0.3,59.1,0.1c7,0.2,9.5-1.6,9.3-9
		c-0.5-20.4,0.2-40.9-0.3-61.3c-0.3-9.9,2.8-16.9,12-20.8C200.8,255.9,241.2,255.9,281.6,255.9z M279.1,482.1c25.6,0,49.8,0,73.9,0
		c10,0,12.3-2.3,12.4-12.4c0.1-31.9,0.1-63.8,0.1-95.8c0-10.8-2.4-13.2-13.2-13.3c-21.4-0.1-42.9-0.3-64.3,0.1
		c-6.7,0.1-9.1-1.6-8.9-8.7c0.5-22.9,0.2-45.9,0.2-68.8c0-11.2-2.2-13.4-13.7-13.4c-29.7-0.1-59.3-0.1-89-0.1
		c-12.2,0-14.6,2.3-14.6,14.4c-0.1,22.9-0.1,45.9,0.1,68.8c0.1,5.7-1.5,7.8-7.6,7.8c-21.9-0.3-43.9-0.2-65.8-0.1
		c-10.2,0-12.9,2.7-13,12.9c-0.1,32.2,0,64.3,0.1,96.5c0,9.9,2.5,12.4,12.4,12.4c21.4,0,42.9,0.3,64.3-0.2c7.4-0.2,9.9,1.6,9.7,9.4
		c-0.5,22.9-0.2,45.9-0.1,68.8c0.1,10.1,2.6,12.7,12.2,12.7c30.9,0,61.8,0,92.8-0.1c9.5,0,11.9-2.5,11.9-12.1
		c0.1-23.2,0.1-46.4,0.1-69.6C279.1,488.5,279.1,485.9,279.1,482.1z"/>
	<path class="st5" d="M217.7,316.9c-4,0.8-7.2,1.5-12.1,2.5c7.3-9.9,13.6-18.6,20.6-28.2c7.1,9.5,13.6,18.1,21.2,28.4
		c-5-1.1-8.2-1.8-12.7-2.8c0.3,6.1,0.5,11.6,0.9,17.1c1.8,30.6,3.6,61.2,5.3,91.8c0.4,7-2.5,12.1-9,14.9c-5.7,2.4-11.5,1.6-15-3.2
		c-2.7-3.7-4.5-9-4.3-13.5c1.4-32.9,3.4-65.7,5.1-98.6C217.8,322.8,217.7,320.1,217.7,316.9z"/>
	<path class="st5" d="M335.5,429.8c-9.6-7.7-18-14.6-26.5-21.4c-0.5,0.4-0.9,0.8-1.4,1.2c0.5,3.1,1,6.1,1.8,10.3
		c-20.5-1.3-40-2.6-58.9-3.8c1.9,4.1,3,8.7,3,13.6c0,4.7-1,9.1-2.8,13.1c19.1-1.3,38.5-2.7,58.4-4.1c-0.6,3.9-1,6.9-1.8,12.3
		C317.3,443.4,325.9,437.1,335.5,429.8z"/>
	<path d="M212.1,312c-4,0.8-7.2,1.5-12.1,2.5c7.3-9.9,13.6-18.6,20.6-28.2c7.1,9.5,13.6,18.1,21.2,28.4c-5-1.1-8.2-1.8-12.7-2.8
		c0.3,6.1,0.5,11.6,0.9,17.1c1.8,30.6,3.6,61.2,5.3,91.8c0.4,7-2.5,12.1-9,14.9c-5.7,2.4-11.5,1.6-15-3.2c-2.7-3.7-4.5-9-4.3-13.5
		c1.4-32.9,3.4-65.7,5.1-98.6C212.2,317.8,212.1,315.1,212.1,312z"/>
	<path d="M335.5,421.8c-9.6-7.7-18-14.6-26.5-21.4c-0.5,0.4-0.9,0.8-1.4,1.2c0.5,3.1,1,6.1,1.8,10.3c-20.5-1.3-40-2.6-58.9-3.8
		c1.9,4.1,3,8.7,3,13.6c0,4.7-1,9.1-2.8,13.1c19.1-1.3,38.5-2.7,58.4-4.1c-0.6,3.9-1,6.9-1.8,12.3
		C317.3,435.4,325.9,429.1,335.5,421.8z"/>
</g>
</svg>
