<?xml version="1.0" encoding="utf-8"?>
<!-- Generator: Adobe Illustrator 19.1.0, SVG Export Plug-In . SVG Version: 6.00 Build 0)  -->
<svg version="1.1" id="Capa_1" xmlns="http://www.w3.org/2000/svg" xmlns:xlink="http://www.w3.org/1999/xlink" x="0px" y="0px"
	 viewBox="-38 162.3 517.6 517.6" style="enable-background:new -38 162.3 517.6 517.6;" xml:space="preserve">
<style type="text/css">
	.st0{fill:url(#SVGID_1_);}
	.st1{clip-path:url(#SVGID_3_);}
	.st2{fill:#FE6100;}
	.st3{fill:#FEFEFE;}
	.st4{fill:#FEAC7D;}
</style>
<radialGradient id="SVGID_1_" cx="220.8" cy="421.9599" r="258.8" gradientTransform="matrix(1 0 0 -1 0 843.0499)" gradientUnits="userSpaceOnUse">
	<stop  offset="0.7085" style="stop-color:#000000"/>
	<stop  offset="1" style="stop-color:#FFFFFF;stop-opacity:0"/>
</radialGradient>
<circle class="st0" cx="220.8" cy="421.1" r="258.8"/>
<title>Recurso 1</title>
<g>
	<g>
		<g>
			<defs>
				<circle id="SVGID_2_" cx="220.8" cy="421.1" r="223.9"/>
			</defs>
			<clipPath id="SVGID_3_">
				<use xlink:href="#SVGID_2_"  style="overflow:visible;"/>
			</clipPath>
			<g class="st1">
				<g>
					<path class="st2" d="M-0.4,421.5C-0.6,297.6,101.2,199.4,222,199.8c123.3,0.4,222,101.9,221.2,223.3
						c-0.8,122.2-101.9,221.2-223.3,220.4C97.3,642.5-1.2,541.6-0.4,421.5z M233.9,436.6c-0.1,0.7,0.1,1.1,0.8,1.3
						c0.3,0.6,0.6,1.3,0.9,1.9c0.1,2-1.3,1.9-2.7,1.9c-10,0-19.9,0-29.9,0c-7.4,0-5.7,0.2-3,5.3c7.4,13.8,14.2,27.9,21.4,41.8
						c7,13.5,13.7,27.2,20.5,40.7c5.8,11.4,11.5,22.9,17.3,34.3c1.3,2.5,2.7,4.9,4.1,7.5c0.6-0.9,1.1-1.3,1.4-1.9
						c4.6-9.2,9.3-18.5,13.9-27.7c9.4-18.8,18.8-37.5,28.3-56.2c6.9-13.6,13.8-27.2,20.7-40.7c1.4-2.8,1.2-3.1-2-3.1
						c-10.3,0-20.6,0-30.9,0c-2.3,0-4.8,0.6-6-2.3c-0.4-0.8-0.7-1.6-1.1-2.4c-10.1-20-20.2-40.1-30.3-60.1
						c-11.9-23.6-23.9-47.1-35.9-70.6c-6.5-12.7-12.9-25.4-19.4-38.1c-0.3-0.6-0.3-1.8-1.3-1.8c-1.2,0-1.2,1.2-1.6,1.9
						c-12.1,23.9-24.2,47.8-36.3,71.7c-16.8,33.2-33.5,66.4-50.3,99.5c-1.1,2.2-0.8,2.6,1.4,2.6c16.1,0,32.3,0,48.4,0
						c1.4,0,2.3-0.5,3-1.8c4.5-9,9.1-18,13.6-27c6.8-13.5,13.6-26.9,20.5-40.3c0.3-0.5,0.2-1.3,1-1.4c1-0.1,1,0.8,1.3,1.5
						c3.9,7.7,7.8,15.3,11.7,23c6.5,12.8,12.9,25.7,19.4,38.5C232.6,435.4,233.2,436,233.9,436.6L233.9,436.6z"/>
					<path class="st3" d="M235.5,439.8c-0.3-0.6-0.6-1.3-0.9-1.9c0.2-0.7,0-1.2-0.8-1.3c0,0,0,0,0,0c0-0.9,0.1-1.8-1.1-2.1
						c-6.5-12.8-12.9-25.7-19.4-38.5c-3.9-7.7-7.8-15.3-11.7-23c-0.3-0.6-0.3-1.5-1.3-1.5c-0.8,0-0.8,0.9-1,1.4
						c-6.8,13.4-13.7,26.9-20.5,40.3c-4.6,9-9.1,18-13.6,27c-0.6,1.3-1.5,1.8-3,1.8c-16.1,0-32.3,0-48.4,0c-2.2,0-2.6-0.3-1.4-2.6
						c16.9-33.1,33.6-66.3,50.3-99.5c12.1-23.9,24.1-47.8,36.3-71.7c0.3-0.7,0.4-1.9,1.6-1.9c1.1,0,1,1.2,1.3,1.8
						c6.5,12.7,13,25.4,19.4,38.1c12,23.5,23.9,47.1,35.9,70.6c10.1,20,20.2,40,30.3,60.1c0.4,0.8,0.8,1.6,1.1,2.4
						c0.7,1.8,0.1,2.2-1.7,2.2c-15.7-0.1-31.4-0.1-47,0C238,441.6,236.5,441.5,235.5,439.8z"/>
					<path class="st4" d="M235.5,439.8c1,1.7,2.5,1.8,4.3,1.8c15.7-0.1,31.4-0.1,47,0c1.8,0,2.4-0.4,1.7-2.2c1.2,2.8,3.7,2.3,6,2.3
						c10.3,0,20.6,0,30.9,0c3.2,0,3.4,0.3,2,3.1c-6.9,13.6-13.9,27.1-20.7,40.7c-9.5,18.7-18.9,37.5-28.3,56.2
						c-4.6,9.2-9.3,18.5-13.9,27.7c-0.3,0.5-0.7,1-1.4,1.9c-1.4-2.6-2.8-5.1-4.1-7.5c-5.8-11.4-11.6-22.9-17.3-34.3
						c-6.8-13.6-13.6-27.2-20.5-40.7c-7.2-13.9-14-28-21.4-41.8c-2.7-5-4.4-5.3,3-5.3c10,0,19.9,0,29.9,0
						C234.2,441.7,235.6,441.8,235.5,439.8z M263.5,442.5c-8,0-16,0-23.9,0c-1.8,0-2.4,0.2-1.4,2.2c7.9,15.5,15.8,31.1,23.6,46.6
						c0.4,0.8,0.4,2.1,1.4,2.1c1.1,0,1.3-1.3,1.7-2.1c4.1-8,8.2-16,12.2-24c3.7-7.4,7.5-14.8,11.2-22.2c1.2-2.3,0.9-2.7-1.7-2.7
						C278.9,442.5,271.2,442.5,263.5,442.5z"/>
					<path class="st4" d="M232.8,434.4c1.2,0.3,1,1.2,1.1,2.1C233.2,436,232.6,435.4,232.8,434.4z"/>
					<path class="st4" d="M233.9,436.6c0.8,0.1,1,0.6,0.8,1.3C234,437.7,233.7,437.3,233.9,436.6z"/>
					<path class="st2" d="M263.5,442.5c7.7,0,15.4,0,23.1,0c2.6,0,2.9,0.3,1.7,2.7c-3.7,7.4-7.4,14.8-11.2,22.2
						c-4.1,8-8.1,16-12.2,24c-0.4,0.8-0.7,2.1-1.7,2.1c-1,0-1-1.3-1.4-2.1c-7.9-15.5-15.7-31.1-23.6-46.6c-1.1-2.1-0.4-2.3,1.4-2.2
						C247.5,442.6,255.5,442.5,263.5,442.5z"/>
				</g>
			</g>
		</g>
	</g>
</g>
</svg>
