<?xml version="1.0" encoding="utf-8"?>
<!-- Generator: Adobe Illustrator 19.1.0, SVG Export Plug-In . SVG Version: 6.00 Build 0)  -->
<svg version="1.1" id="Capa_1" xmlns="http://www.w3.org/2000/svg" xmlns:xlink="http://www.w3.org/1999/xlink" x="0px" y="0px"
	 viewBox="-38 162.3 517.6 517.6" style="enable-background:new -38 162.3 517.6 517.6;" xml:space="preserve">
<style type="text/css">
	.st0{fill:url(#SVGID_1_);}
	.st1{fill:#5D5D5D;}
	.st2{fill:#FEFEFE;}
	.st3{fill:#0DB4FE;}
</style>
<radialGradient id="SVGID_1_" cx="220.8" cy="421.9599" r="258.8" gradientTransform="matrix(1 0 0 -1 0 843.0499)" gradientUnits="userSpaceOnUse">
	<stop  offset="0.7085" style="stop-color:#000000"/>
	<stop  offset="1" style="stop-color:#FFFFFF;stop-opacity:0"/>
</radialGradient>
<circle class="st0" cx="220.8" cy="421.1" r="258.8"/>
<title>Recurso 1</title>
<rect x="-215" y="248.2" class="st1" width="44" height="41"/>
<g id="Capa_2">
	<g id="Capa_1-2">
		<circle class="st2" cx="220.8" cy="421.1" r="222.2"/>
		<path class="st3" d="M282.6,366.7c0.2-28.3,22.2-52.2,50.4-54.5c28.7-2.4,54.3,17.7,59,46c3,18.3-4.1,32.7-16.1,45.4
			c-10.3,10.9-22.7,19.1-36,26c-1.3,0.7-2.5,1-4,0.2c-17.3-9.3-33.1-20.4-44.6-36.7C285.3,384.6,282.5,375.7,282.6,366.7z"/>
		<path class="st3" d="M218.8,483.7c-0.1-15.5,8.3-26.5,19.3-36.1c7.5-6.5,15.9-11.6,24.8-16c1.6-0.8,3-1.2,4.8-0.3
			c13,6.5,24.9,14.5,34.5,25.6c23.3,26.9,4.6,66.4-27.2,72.4C245.3,534.8,218.8,513.2,218.8,483.7z"/>
		<path class="st3" d="M152.9,378.9c0.1-24.4,20.9-43,45.9-41.4c23.7,1.6,41.7,23.6,38.4,47.2c-1.5,10.9-8,19.1-15.5,26.6
			c-7.2,7-15.2,13-23.9,17.9c-1.6,0.9-2.9,1.4-4.7,0.3c-11.4-6.8-22-14.4-30.3-24.9C156.8,397.2,152.5,388.9,152.9,378.9z"/>
		<path class="st3" d="M132.8,506.5c-12-0.5-23-7.4-28.9-21.2c-6-14-2-26.2,8-37c6.2-6.5,13.4-12.1,21.3-16.5
			c1.3-0.8,2.5-1.7,4.3-0.7c11.7,6.6,22.6,14.2,29.2,26.3C178.7,479.7,161.7,506.5,132.8,506.5z"/>
		<path class="st3" d="M78.1,363.4c12,0.4,20.8,5.4,26.3,15.5c5.3,9.9,4.7,19.7-1.7,29.1c-5.9,8.8-13.9,15.5-22.4,21.5
			c-1,0.9-2.4,0.9-3.4,0.1c-9-6-17.2-12.8-23.1-22c-6-9.6-6.4-19.4-0.9-29.2C58.4,368.5,67.2,363.7,78.1,363.4z"/>
	</g>
</g>
</svg>
