<?xml version="1.0" encoding="utf-8"?>
<!-- Generator: Adobe Illustrator 22.1.0, SVG Export Plug-In . SVG Version: 6.00 Build 0)  -->
<svg version="1.1" id="Layer_1" xmlns="http://www.w3.org/2000/svg" xmlns:xlink="http://www.w3.org/1999/xlink" x="0px" y="0px"
	 viewBox="0 0 40 138" style="enable-background:new 0 0 40 138;" xml:space="preserve">
<style type="text/css">
	.st0{fill:#8DADA3;}
</style>
<title>Asset 5</title>
<g id="Layer_2_1_">
	<g id="Layer_1-2">
		<g id="Capa_1-2">
			<path class="st0" d="M20,0L20,0c11,0,20,9,20,20v98c0,11-9,20-20,20l0,0c-11,0-20-9-20-20V20C0,9,9,0,20,0z"/>
		</g>
	</g>
</g>
<g>
	<path d="M14.6,30V13.5h5.3c1,0,1.9,0.1,2.6,0.3c0.7,0.2,1.3,0.5,1.8,0.9c0.5,0.4,0.8,0.8,1,1.4c0.2,0.5,0.3,1.1,0.3,1.8
		c0,0.4-0.1,0.8-0.2,1.2s-0.3,0.7-0.6,1s-0.6,0.6-1,0.9c-0.4,0.3-0.8,0.5-1.4,0.6c1.2,0.2,2.1,0.7,2.7,1.3c0.6,0.6,0.9,1.5,0.9,2.5
		c0,0.7-0.1,1.3-0.4,1.9c-0.3,0.6-0.6,1.1-1.1,1.5c-0.5,0.4-1.1,0.7-1.8,1c-0.7,0.2-1.5,0.3-2.5,0.3H14.6z M16.8,20.9h2.9
		c0.6,0,1.2-0.1,1.6-0.2c0.5-0.1,0.8-0.3,1.1-0.6c0.3-0.2,0.5-0.5,0.7-0.9c0.1-0.3,0.2-0.7,0.2-1.1c0-1-0.3-1.7-0.9-2.1
		c-0.6-0.5-1.5-0.7-2.7-0.7h-3V20.9z M16.8,22.5v5.7h3.6c0.6,0,1.2-0.1,1.6-0.2c0.5-0.1,0.8-0.4,1.1-0.6c0.3-0.3,0.5-0.6,0.6-0.9
		c0.1-0.4,0.2-0.8,0.2-1.2c0-0.9-0.3-1.5-0.9-2c-0.6-0.5-1.5-0.7-2.7-0.7H16.8z"/>
	<path d="M17,46.1V53h-2.2V36.5h4.7c1,0,1.9,0.1,2.7,0.3s1.4,0.5,1.9,0.9c0.5,0.4,0.9,0.9,1.1,1.4c0.2,0.6,0.4,1.2,0.4,1.9
		c0,0.6-0.1,1.1-0.3,1.6c-0.2,0.5-0.5,1-0.8,1.4c-0.3,0.4-0.8,0.7-1.3,1c-0.5,0.3-1.1,0.5-1.7,0.6c0.3,0.2,0.5,0.4,0.7,0.7L27,53h-2
		c-0.4,0-0.7-0.2-0.9-0.5l-4.3-5.9c-0.1-0.2-0.3-0.3-0.4-0.4s-0.4-0.1-0.7-0.1H17z M17,44.5h2.3c0.7,0,1.2-0.1,1.7-0.2
		c0.5-0.2,0.9-0.4,1.2-0.7c0.3-0.3,0.6-0.6,0.8-1c0.2-0.4,0.3-0.8,0.3-1.3c0-1-0.3-1.7-1-2.2c-0.6-0.5-1.6-0.7-2.9-0.7H17V44.5z"/>
	<path d="M27.7,76H26c-0.2,0-0.4,0-0.5-0.1c-0.1-0.1-0.2-0.2-0.3-0.4l-1.5-4h-7.4l-1.5,4c-0.1,0.1-0.1,0.3-0.3,0.4
		C14.4,76,14.2,76,14,76h-1.7l6.6-16.5h2.3L27.7,76z M16.9,69.9h6.2l-2.6-6.7c-0.2-0.4-0.3-0.9-0.5-1.6c-0.1,0.3-0.2,0.6-0.2,0.9
		c-0.1,0.3-0.2,0.5-0.2,0.7L16.9,69.9z"/>
	<path d="M21.1,99h-2.2V82.5h2.2V99z"/>
	<path d="M14.9,105.6c0.1,0,0.2,0.2,0.3,0.3l9.5,12.4c0-0.2,0-0.4,0-0.6s0-0.4,0-0.5v-11.7h2V122h-1.1c-0.2,0-0.3,0-0.4-0.1
		s-0.2-0.2-0.4-0.3l-9.5-12.4c0,0.2,0,0.4,0,0.6c0,0.2,0,0.4,0,0.5V122h-2v-16.5h1.1C14.7,105.5,14.8,105.6,14.9,105.6z"/>
</g>
</svg>
