<?xml version="1.0" encoding="utf-8"?>
<!-- Generator: Adobe Illustrator 22.1.0, SVG Export Plug-In . SVG Version: 6.00 Build 0)  -->
<svg version="1.1" id="Layer_1" xmlns="http://www.w3.org/2000/svg" xmlns:xlink="http://www.w3.org/1999/xlink" x="0px" y="0px"
	 viewBox="0 0 40 138" style="enable-background:new 0 0 40 138;" xml:space="preserve">
<style type="text/css">
	.st0{fill:#EAD0C0;}
</style>
<title>Asset 1</title>
<g id="Layer_2_1_">
	<g id="Layer_1-2">
		<g id="Capa_2">
			<g id="Capa_1-2">
				<path class="st0" d="M20,0L20,0c11,0,20,9,20,20v98c0,11-9,20-20,20l0,0c-11,0-20-9-20-20V20C0,9,9,0,20,0z"/>
			</g>
		</g>
	</g>
</g>
<g>
	<path d="M25.9,25.5v1.9h-8.3v6h7.1v1.9h-7.1v7.4h-2.3V25.5H25.9z"/>
	<path d="M28.5,58.2c0,1.3-0.2,2.5-0.6,3.5c-0.4,1.1-1,2-1.7,2.8c-0.7,0.8-1.6,1.4-2.7,1.8s-2.2,0.6-3.5,0.6c-1.3,0-2.4-0.2-3.5-0.6
		c-1-0.4-1.9-1-2.7-1.8c-0.7-0.8-1.3-1.7-1.7-2.8c-0.4-1.1-0.6-2.3-0.6-3.5s0.2-2.5,0.6-3.5c0.4-1.1,1-2,1.7-2.8
		c0.7-0.8,1.6-1.4,2.7-1.8c1-0.4,2.2-0.6,3.5-0.6c1.3,0,2.4,0.2,3.5,0.6c1,0.4,1.9,1,2.7,1.8c0.7,0.8,1.3,1.7,1.7,2.8
		C28.3,55.7,28.5,56.9,28.5,58.2z M26.1,58.2c0-1.1-0.1-2-0.4-2.8c-0.3-0.8-0.7-1.5-1.2-2.1c-0.5-0.6-1.2-1-1.9-1.3
		s-1.6-0.5-2.5-0.5c-0.9,0-1.8,0.2-2.5,0.5s-1.4,0.8-1.9,1.3c-0.5,0.6-0.9,1.3-1.2,2.1s-0.4,1.8-0.4,2.8c0,1.1,0.1,2,0.4,2.8
		s0.7,1.5,1.2,2.1c0.5,0.6,1.2,1,1.9,1.3s1.6,0.5,2.5,0.5c0.9,0,1.8-0.2,2.5-0.5s1.4-0.8,1.9-1.3c0.5-0.6,0.9-1.3,1.2-2.1
		C26,60.2,26.1,59.2,26.1,58.2z"/>
	<path d="M28.5,82.2c0,1.3-0.2,2.5-0.6,3.5c-0.4,1.1-1,2-1.7,2.8c-0.7,0.8-1.6,1.4-2.7,1.8s-2.2,0.6-3.5,0.6c-1.3,0-2.4-0.2-3.5-0.6
		c-1-0.4-1.9-1-2.7-1.8c-0.7-0.8-1.3-1.7-1.7-2.8c-0.4-1.1-0.6-2.3-0.6-3.5s0.2-2.5,0.6-3.5c0.4-1.1,1-2,1.7-2.8
		c0.7-0.8,1.6-1.4,2.7-1.8c1-0.4,2.2-0.6,3.5-0.6c1.3,0,2.4,0.2,3.5,0.6s1.9,1,2.7,1.8c0.7,0.8,1.3,1.7,1.7,2.8
		C28.3,79.7,28.5,80.9,28.5,82.2z M26.1,82.2c0-1.1-0.1-2-0.4-2.8c-0.3-0.8-0.7-1.5-1.2-2.1c-0.5-0.6-1.2-1-1.9-1.3
		c-0.8-0.3-1.6-0.5-2.5-0.5c-0.9,0-1.8,0.2-2.5,0.5c-0.8,0.3-1.4,0.8-1.9,1.3c-0.5,0.6-0.9,1.3-1.2,2.1s-0.4,1.8-0.4,2.8
		c0,1.1,0.1,2,0.4,2.8s0.7,1.5,1.2,2.1c0.5,0.6,1.2,1,1.9,1.3c0.8,0.3,1.6,0.5,2.5,0.5c0.9,0,1.8-0.2,2.5-0.5
		c0.8-0.3,1.4-0.8,1.9-1.3c0.5-0.6,0.9-1.3,1.2-2.1C26,84.2,26.1,83.2,26.1,82.2z"/>
	<path d="M28,106.2c0,1.3-0.2,2.5-0.6,3.5s-1,2-1.7,2.7c-0.7,0.8-1.6,1.3-2.7,1.7c-1,0.4-2.2,0.6-3.5,0.6h-6.4V97.5h6.4
		c1.3,0,2.4,0.2,3.5,0.6c1,0.4,1.9,1,2.7,1.8c0.7,0.8,1.3,1.7,1.7,2.7C27.8,103.7,28,104.9,28,106.2z M25.6,106.2
		c0-1.1-0.1-2-0.4-2.8s-0.7-1.5-1.2-2.1c-0.5-0.6-1.2-1-1.9-1.3c-0.8-0.3-1.6-0.5-2.5-0.5h-4.1v13.4h4.1c0.9,0,1.8-0.2,2.5-0.5
		c0.8-0.3,1.4-0.7,1.9-1.3c0.5-0.6,0.9-1.3,1.2-2.1S25.6,107.2,25.6,106.2z"/>
</g>
</svg>
