<?xml version="1.0" encoding="utf-8"?>
<!-- Generator: Adobe Illustrator 22.1.0, SVG Export Plug-In . SVG Version: 6.00 Build 0)  -->
<svg version="1.1" id="Layer_1" xmlns="http://www.w3.org/2000/svg" xmlns:xlink="http://www.w3.org/1999/xlink" x="0px" y="0px"
	 viewBox="0 0 40 138" style="enable-background:new 0 0 40 138;" xml:space="preserve">
<style type="text/css">
	.st0{fill:#DFA33E;}
</style>
<title>Asset 3</title>
<g id="Layer_2_1_">
	<g id="Layer_1-2">
		<g id="Capa_2">
			<g id="Capa_1-2">
				<path class="st0" d="M20,0L20,0c11,0,20,9,20,20v98c0,11-9,20-20,20l0,0c-11,0-20-9-20-20V20C0,9,9,0,20,0z"/>
			</g>
		</g>
		<g>
			<path d="M24.1,13.7c-0.1,0.1-0.1,0.2-0.2,0.3C23.8,14,23.7,14,23.6,14c-0.1,0-0.3-0.1-0.5-0.2c-0.2-0.1-0.4-0.3-0.7-0.4
				c-0.3-0.2-0.6-0.3-1-0.5c-0.4-0.1-0.9-0.2-1.4-0.2c-0.5,0-1,0.1-1.4,0.2c-0.4,0.1-0.7,0.3-1,0.6c-0.3,0.2-0.5,0.5-0.6,0.8
				c-0.1,0.3-0.2,0.7-0.2,1.1c0,0.5,0.1,0.9,0.4,1.2c0.2,0.3,0.5,0.6,0.9,0.8c0.4,0.2,0.8,0.4,1.3,0.6s1,0.3,1.5,0.5
				c0.5,0.2,1,0.4,1.5,0.6c0.5,0.2,0.9,0.5,1.3,0.8c0.4,0.3,0.7,0.7,0.9,1.2c0.2,0.5,0.4,1.1,0.4,1.8c0,0.8-0.1,1.5-0.4,2.1
				s-0.6,1.2-1.1,1.7c-0.5,0.5-1.1,0.9-1.8,1.2s-1.5,0.4-2.4,0.4c-1.1,0-2.1-0.2-3-0.6c-0.9-0.4-1.7-0.9-2.3-1.6l0.7-1.1
				c0.1-0.1,0.1-0.2,0.2-0.2c0.1-0.1,0.2-0.1,0.3-0.1c0.2,0,0.4,0.1,0.6,0.3c0.2,0.2,0.5,0.4,0.8,0.6c0.3,0.2,0.7,0.4,1.2,0.6
				c0.5,0.2,1,0.3,1.7,0.3c0.6,0,1-0.1,1.5-0.2c0.4-0.2,0.8-0.4,1.1-0.6c0.3-0.3,0.5-0.6,0.7-1c0.2-0.4,0.2-0.8,0.2-1.3
				c0-0.5-0.1-0.9-0.4-1.3c-0.2-0.3-0.5-0.6-0.9-0.8c-0.4-0.2-0.8-0.4-1.3-0.6c-0.5-0.2-1-0.3-1.5-0.5c-0.5-0.2-1-0.4-1.5-0.6
				c-0.5-0.2-0.9-0.5-1.3-0.8c-0.4-0.3-0.7-0.8-0.9-1.3s-0.4-1.2-0.4-1.9c0-0.6,0.1-1.2,0.4-1.8s0.6-1.1,1-1.5
				c0.4-0.4,1-0.8,1.7-1.1c0.7-0.3,1.4-0.4,2.3-0.4c1,0,1.8,0.2,2.6,0.5c0.8,0.3,1.5,0.7,2.1,1.3L24.1,13.7z"/>
			<path d="M17.8,50.2h7.4v2h-9.8V35h2.3V50.2z"/>
			<path d="M25.3,59v1.9H17v5.7h6.7v1.8H17v5.9h8.3v1.9H14.7V59H25.3z"/>
			<path d="M25.3,83v1.9H17v5.7h6.7v1.8H17v5.9h8.3v1.9H14.7V83H25.3z"/>
			<path d="M16.9,117.8v6.4h-2.3V107h5.1c1.1,0,2,0.1,2.8,0.4c0.8,0.3,1.5,0.6,2,1.1c0.5,0.5,0.9,1,1.2,1.7c0.3,0.7,0.4,1.4,0.4,2.2
				c0,0.8-0.1,1.5-0.4,2.2c-0.3,0.7-0.7,1.2-1.2,1.7c-0.5,0.5-1.2,0.9-2,1.1c-0.8,0.3-1.7,0.4-2.7,0.4H16.9z M16.9,115.9h2.8
				c0.7,0,1.2-0.1,1.8-0.3c0.5-0.2,0.9-0.4,1.3-0.7c0.3-0.3,0.6-0.7,0.8-1.1c0.2-0.4,0.3-0.9,0.3-1.5c0-1.1-0.3-2-1-2.6
				c-0.7-0.6-1.7-0.9-3.1-0.9h-2.8V115.9z"/>
		</g>
	</g>
</g>
</svg>
