<?xml version="1.0" encoding="utf-8"?>
<!-- Generator: Adobe Illustrator 22.1.0, SVG Export Plug-In . SVG Version: 6.00 Build 0)  -->
<svg version="1.1" id="Layer_1" xmlns="http://www.w3.org/2000/svg" xmlns:xlink="http://www.w3.org/1999/xlink" x="0px" y="0px"
	 viewBox="0 0 40 138" style="enable-background:new 0 0 40 138;" xml:space="preserve">
<style type="text/css">
	.st0{fill:#C4C4C4;}
</style>
<title>Asset 1</title>
<g id="Layer_2_1_">
	<g id="Layer_1-2">
		<g id="Layer_2-2">
			<g id="Layer_1-2-2">
				<g id="Capa_2">
					<g id="Capa_1-2">
						<path class="st0" d="M20,0L20,0c11,0,20,9,20,20v98c0,11-9,20-20,20l0,0c-11,0-20-9-20-20V20C0,9,9,0,20,0z"/>
					</g>
				</g>
			</g>
		</g>
	</g>
</g>
<g>
	<path d="M26.4,21.8v1.9h-5.3v14.6h-2.2V23.6h-5.3v-1.9H26.4z"/>
	<path d="M25.5,44.8v1.8h-7.9V52H24v1.7h-6.4v5.6h7.9v1.8H15.3V44.8H25.5z"/>
	<path d="M19.8,78.9c0.1,0.2,0.2,0.4,0.2,0.6c0.1-0.2,0.2-0.4,0.2-0.6c0.1-0.2,0.2-0.4,0.3-0.6l5.6-10.1c0.1-0.2,0.2-0.3,0.3-0.3
		c0.1,0,0.3-0.1,0.5-0.1h1.6v16.5h-2V72.1c0-0.2,0-0.3,0-0.5c0-0.2,0-0.4,0-0.6L21,81.4c-0.2,0.3-0.5,0.5-0.8,0.5h-0.3
		c-0.3,0-0.6-0.2-0.8-0.5L13.3,71c0,0.2,0,0.4,0.1,0.6c0,0.2,0,0.4,0,0.5v12.1h-2V67.8h1.6c0.2,0,0.4,0,0.5,0.1
		c0.1,0,0.2,0.1,0.3,0.3l5.7,10.1C19.6,78.5,19.7,78.7,19.8,78.9z"/>
	<path d="M17.4,101.1v6.2h-2.2V90.8h4.9c1,0,1.9,0.1,2.7,0.4s1.4,0.6,1.9,1s0.9,1,1.1,1.6c0.2,0.6,0.4,1.3,0.4,2.1
		c0,0.8-0.1,1.5-0.4,2.1c-0.3,0.6-0.7,1.2-1.2,1.6c-0.5,0.5-1.2,0.8-1.9,1.1c-0.8,0.3-1.6,0.4-2.6,0.4H17.4z M17.4,99.3h2.6
		c0.6,0,1.2-0.1,1.7-0.3c0.5-0.2,0.9-0.4,1.2-0.7s0.6-0.7,0.7-1.1c0.2-0.4,0.3-0.9,0.3-1.4c0-1.1-0.3-1.9-1-2.5
		c-0.6-0.6-1.6-0.9-2.9-0.9h-2.6V99.3z"/>
</g>
</svg>
