<svg xmlns="http://www.w3.org/2000/svg" xmlns:xlink="http://www.w3.org/1999/xlink" viewBox="0 0 1337.73 2602.24"><defs><style>.cls-1,.cls-10,.cls-3,.cls-31,.cls-32,.cls-33,.cls-36,.cls-38,.cls-39,.cls-4,.cls-42,.cls-43,.cls-46,.cls-47,.cls-50,.cls-51,.cls-54,.cls-56,.cls-57,.cls-59,.cls-6,.cls-60,.cls-63,.cls-64,.cls-7,.cls-9{fill:none;}.cls-2,.cls-8{fill:#eacfa7;}.cls-10,.cls-11,.cls-12,.cls-13,.cls-3,.cls-4,.cls-6,.cls-7,.cls-8,.cls-9{stroke:#331a12;}.cls-10,.cls-11,.cls-12,.cls-13,.cls-19,.cls-28,.cls-29,.cls-3,.cls-31,.cls-32,.cls-33,.cls-36,.cls-38,.cls-39,.cls-4,.cls-42,.cls-43,.cls-46,.cls-47,.cls-50,.cls-51,.cls-52,.cls-54,.cls-56,.cls-57,.cls-58,.cls-59,.cls-6,.cls-60,.cls-63,.cls-64,.cls-65,.cls-7,.cls-8,.cls-9{stroke-miterlimit:10;}.cls-3,.cls-33,.cls-8{stroke-width:4px;}.cls-4{stroke-width:1.24px;}.cls-5{fill:#331a12;}.cls-13,.cls-43,.cls-59,.cls-6{stroke-width:2px;}.cls-60,.cls-9{stroke-width:0.5px;}.cls-10,.cls-19,.cls-36,.cls-38,.cls-58{stroke-width:0.25px;}.cls-11,.cls-12{fill:#533126;}.cls-12,.cls-42,.cls-47,.cls-51,.cls-56,.cls-63{stroke-width:3px;}.cls-13{fill:#3c2017;}.cls-14{fill:#f5f9f1;}.cls-15{fill:#9d3037;}.cls-16{clip-path:url(#clip-path);}.cls-17{fill:#a74f5a;}.cls-18{fill:#7b9e95;}.cls-19,.cls-52{fill:#9e2730;}.cls-19{stroke:#321c16;}.cls-20{fill:#f1eee9;}.cls-21{fill:#dfa858;}.cls-22{clip-path:url(#clip-path-2);}.cls-23{fill:#c56849;}.cls-24{fill:#bd6a2e;}.cls-25{fill:#f1eeee;}.cls-26{fill:#a5383e;}.cls-27{clip-path:url(#clip-path-3);}.cls-28,.cls-34{fill:#97b9ae;}.cls-28,.cls-29,.cls-33,.cls-38,.cls-39,.cls-58,.cls-59,.cls-60{stroke:#2c5044;}.cls-28,.cls-29,.cls-46{stroke-width:0.75px;}.cls-29,.cls-58{fill:#648c82;}.cls-30{fill:#89aea5;}.cls-31,.cls-36{stroke:#5c8677;}.cls-32{stroke:#61877b;}.cls-35{fill:#84ab9f;}.cls-37{fill:#81aea0;}.cls-40{fill:#c0634a;}.cls-41{fill:#b65036;}.cls-42,.cls-43{stroke:#620f2c;}.cls-44{fill:#a7444e;}.cls-45{fill:#9b3f4a;}.cls-46,.cls-47{stroke:#681215;}.cls-48{fill:#7a1128;}.cls-49{fill:#66172d;}.cls-50{stroke:#7a1128;}.cls-51{stroke:#4e1b2f;}.cls-52{stroke:#fff;}.cls-53{fill:#8f1b2d;}.cls-54{stroke:#6c1329;stroke-width:5px;}.cls-55{fill:#741321;}.cls-56,.cls-57{stroke:#4c0e1c;}.cls-61{fill:#4c6760;}.cls-62{fill:#435d54;}.cls-63{stroke:#435d54;}.cls-64{stroke:#f9f9f9;stroke-width:13px;}.cls-65{fill:#fcf1e5;stroke:#2d2d2d;}.cls-66{isolation:isolate;font-size:47.31px;font-family:Lato-Regular, Lato;}</style><clipPath id="clip-path"><ellipse class="cls-1" cx="1049.81" cy="1050.6" rx="45.01" ry="43.35"/></clipPath><clipPath id="clip-path-2"><ellipse class="cls-1" cx="673.97" cy="1354.89" rx="110.6" ry="106.53"/></clipPath><clipPath id="clip-path-3"><path class="cls-1" d="M860.34,705.58c0-102.21-86-185.06-192.1-185.07s-192.12,82.84-192.13,185a180.27,180.27,0,0,0,32.45,102.93c0,.87-.07,1.73-.07,2.6,0,76.38,64.27,138.31,143.57,138.31,64.34,0,120.82-41.21,138.23-100.87C834.7,813.39,860.41,760.93,860.34,705.58Z"/></clipPath></defs><title>Asset 1</title><g id="Layer_2" data-name="Layer 2"><g id="Layer_1-2" data-name="Layer 1"><g id="Layer_2-2" data-name="Layer 2"><g id="Layer_1-2-2" data-name="Layer 1-2"><g id="Layer_2-2-2" data-name="Layer 2-2"><g id="Capa_41" data-name="Capa 41"><g id="Capa_32" data-name="Capa 32"><path class="cls-2" d="M736.33,331.62c-.81,12.91-2.35,53.93,8.27,82.92,14.19,38.84,60.81,53.33,110,73.69,42.91,17.78,50.28,13.36,74.9,30.14,14.35,9.79,48.6,33.14,58.45,71.19,6.17,23.81,5.21,62.61,4.91,73.9,0,1.58-.08,2.78-.1,3.53,0,0,1.56,6.31,2.41,10.9C999.71,701,1005,739.42,1017.33,792c17.46,74.31,17.82,117.46,42.63,158.77s51.56,80.26,70.48,144c18,60.68,28,111.23,38.69,128.67,9.83,15.9,15.28,23.79,23.25,29,11,3.78,31,11.06,45.61,20,20.2,12.39,36.13,31.27,45.25,43.3,8.29,10.92,20.68,27.62,33.06,37s21.66,16.7,19,19.83c-2.85,3.3-10.3,6.31-21.67,4.7-14.89-2.1-30.56-7.8-53.42-31.47,0,0-3.79-2.36-3.28.26,1.27,5.93,4.68,16.62,18.15,42.73,8.12,12.62,26.19,40.64,35,54.68,11.5,18.38,16.38,29.84,13.6,33.64s-9.68,3.91-19.65-6.31c-9.82-10-18.4-22.08-28.81-36-6.55-8.86-17-24.62-23-33.92-.69.3-2.42,2.44-3.13,2.75,7.23,15.25,22.69,44,29.74,59.47,9.65,21.19,13.1,34.08,9.68,37.75s-10.92,2.89-20.07-9.31c-9-12-16.5-26.07-25.6-42.42-5.57-10-13.19-25.71-18.38-36.58-.65.78-3.92,1.87-5.46,2.24,4.64,13.73,14.52,40.43,19.22,55.12,6.29,19.59,8,31.29,4.61,34.18s-9.9,1.48-16.71-10.15c-6.67-11.41-11.8-24.52-18.12-39.79-4.37-10.4-10.92-27-14.5-36.29-3.27.3-8.61.42-11.58.56,2.29,10.91,5.34,27.34,8.39,40,4.86,20,8.22,30.76,4.6,33.42s-10,.82-15.94-11.24c-5.85-11.84-6.37-12.51-11.58-28.19-3.15-9.46-7.55-25.68-10.26-36h-.39s-20.39-15.77-35.32-58.64c-11.08-31.85-15-51.82-14.39-63.08-5.91-16.64-.15-9.15-30.65-57.35-33.54-53-59.25-93.34-78.91-135.84-26.71-57.75-24-81.82-40.75-118.65S931.88,934.4,911.1,874.93c-5.23-14.94-10-29.56-13.92-42.15-1.33-4.21-9.7-32.59-9.7-32.59-2.66,15.77-12.48,85.6-22.3,122.59-11.7,44-21.26,74.72-12.23,107s25.21,53.62,35.6,75.7c11.39,24.34,27.86,72.36,44.36,104.09,0,0,.76,1.68,1.38,3.16,24,52.74,39.48,90.36,39.48,178.66,0,99.89-50.59,250.24-68.94,348.91-19.65,105.74-21.83,166-13.1,258.83,9.83,104.18-24,170.06-44.23,222.55s-38,132.48-44.63,157.49-5.71,41.89-4.37,50.78,4,22.43,2.19,30.89-.88,18.62-.88,18.62c5.27,6.76,15.37,34.7,24.17,48.67s16.25,29.21,16.25,29.21l4,3.38c6.06,5.18,1.7,13.44-2.78,15.35.89,3.57-3.08,5.11-6.81,5.85a42.46,42.46,0,0,1-9.82.43s-1.27,4-8.3,5.25a18.59,18.59,0,0,1-12.77-2.77,10.48,10.48,0,0,1-9.66,9.3c-9.22,1.28-13.19-2.1-13.19-2.1-4.36,7.19-13.62,8.89-27.68,8s-23.72-6.78-33.39-17.78-.87-14.38-5.27-25.39-8.73-40.64-7-54.17,5.27-20.31,4.37-28.78-4.37-19.46-5.29-28.77,4.37-15.24,12.32-46.56,14-77.87,9.66-133.74-22.43-175.29-1.38-252.24c17.12-62.45,20.25-84.5,7-146.5-7.51-35.24-18.26-58.69-11.23-107.78,6.55-45.47,1.76-37.24-12.3-157.44-11.25-96.14-26.59-151.25-18.28-229.05-3.63.91-15.16,3.52-22.92,2.45a45.06,45.06,0,0,1-11.25-.24c8.58,71,1,116-14.32,208.19-14,84.64-17.95,107-10.55,152.36,9.5,58.14-8.73,72.79-16,128-8.27,62.79-1.1,92.32,16,154.76,21.1,77-2.63,189.59-7,245.48s-1.67,100.94,6.24,132.24,13.17,37.24,12.3,46.56-4.37,20.3-5.27,28.77,2.63,15.25,4.36,28.79-2.63,43.16-7,54.17,4.37,14.38-5.27,25.39-19.32,16.93-33.39,17.77-23.28-.84-27.68-8c0,0-4,3.37-13.18,2.1s-9.17-7.43-9.17-7.43a17,17,0,0,1-11.74,1.35c-8.43-1.86-9.65-5.26-9.65-5.26s-10.35,3.56-15.78-4.89c-8.74.17-11.22-10.88-3.74-17.22l3.94-3.38s7.48-15.24,16.27-29.21,18.89-41.89,24.16-48.66c0,0,.89-10.16-.88-18.63s.88-22,2.18-30.89,2.19-25.82-4.36-50.79-24.42-105-44.64-157.49-54.11-118.31-44.27-222.49c8.73-92.87,1.66-154-18-259.8-18.34-98.67-64-248-64-347.93,0-79.72,23-142.79,45.69-191.64,8.11-30.49,23-63.85,33.63-86.46,10.38-22.17,26.56-43.5,35.6-75.7s-7.23-67.3-18.92-111.27c-9.82-37-18.89-89.12-21.55-104.84,0,0-2.05,2.21-5,10.24C442.51,840.54,435,860,429.78,874.91c-20.74,59.45-28.78,71-45.56,107.84s-14,60.9-40.74,118.65c-19.64,42.5-45.37,82.87-78.92,135.84-30.49,48.2-24.74,40.71-30.64,57.34.56,11.3-3.27,31.27-14.39,63.09-14.92,42.89-35.32,58.64-35.32,58.64s-7.49,26.51-10.65,36c-5.21,15.68-4.9,16.82-11.59,28.19-7.33,12.51-11.76,12.19-15.38,9.53s-3.28-12.74,1.58-32.68c3.06-12.62,7.9-28.73,10.2-39.63-3-.14-7.27.28-10.55,0-3.51,9.24-10.56,26-14.86,36.42-6.33,15.28-10.92,28.65-18.12,39.8-7.65,12-13.3,13-16.72,10.14s-3.47-15.2,4.6-34.18c7.28-17.11,13.7-42.28,18.69-56.92-1.6-.38-2.6-1.61-4.16-2-5.2,10.86-13.61,28.19-19.18,38.17-9.12,16.35-16.6,30.42-25.61,42.42-9.17,12.21-16.61,13-20.07,9.32s0-16.56,9.68-37.76c7.06-15.51,22.4-44.48,29.62-59.74-.69-.3-2.68-.27-3.55-1.6-6.06,9.29-15.9,24.18-22.48,33-10.42,14-19,26.06-28.82,36.1-9.94,10.18-16.89,10-19.65,6.31s2.1-15.24,13.61-33.65c8.73-14,26.87-42.06,35-54.67,13.46-26.11,16.87-36.8,18.13-42.73.57-2.62-3.27-.27-3.27-.27-22.92,23.67-35,27.15-49.78,29.76s-24.95-2-28.28-4.89,7.64-12.2,21.57-19.37c18-9.3,27.66-26,37.36-37.61s24.79-31.3,45-43.71c14.64-9,31-13.87,42-17.66,8-5.16,13.47-13.05,23.25-29,10.72-17.44,20.74-68,38.7-128.67,18.9-63.77,45.65-102.67,70.46-144s25.2-84.5,42.65-158.77c12.32-52.57,17.61-91,22.17-114.06l.43-10.9c0-.81-.06-2.1-.11-3.85-.4-15.68-1.2-49.7,4.91-73.6,9.46-36.87,38.21-60.35,45.11-65.94,25.73-21,38.72-15.71,88.25-35.39,46.32-18.39,95.14-33.2,110-73.69,9.66-26.34,9.25-62.63,8.5-78.72"/></g><g id="Capa_40" data-name="Capa 40"><g id="Capa_34" data-name="Capa 34"><path class="cls-3" d="M736.33,331.62c-.81,12.91-2.35,53.93,8.27,82.92,14.26,38.9,61.13,53.48,110,73.69,39.18,16.24,43,11.57,66.1,25.73,16.72,10.25,56.76,34.78,67.25,75.6,6.17,23.88,5.15,64.53,4.91,73.9,0,1.58-.08,2.78-.1,3.53,0,0,1.56,6.31,2.41,10.9C999.71,701,1005,739.42,1017.33,792c17.46,74.31,17.82,117.46,42.63,158.77s51.56,80.26,70.48,144c18,60.68,28,111.23,38.69,128.67,9.83,15.9,15.28,23.79,23.25,29,11,3.78,31,11.06,45.61,20,20.2,12.39,36.13,31.27,45.25,43.3,8.29,10.92,20.68,27.62,33.06,37s21.66,16.7,19,19.83c-2.85,3.3-10.3,6.31-21.67,4.7-14.89-2.1-30.56-7.8-53.42-31.47,0,0-3.79-2.36-3.28.26,1.27,5.93,4.68,16.62,18.15,42.73,8.12,12.62,26.19,40.64,35,54.68,11.5,18.38,16.38,29.84,13.6,33.64s-9.68,3.91-19.65-6.31c-9.82-10-18.4-22.08-28.81-36-6.55-8.86-17-24.62-23-33.92-.69.3-2.42,2.44-3.13,2.75,7.23,15.25,22.69,44,29.74,59.47,9.65,21.19,13.1,34.08,9.68,37.75s-10.92,2.89-20.07-9.31c-9-12-16.5-26.07-25.6-42.42-5.57-10-13.19-25.71-18.38-36.58-.65.78-3.92,1.87-5.46,2.24,4.64,13.73,14.52,40.43,19.22,55.12,6.29,19.59,8,31.29,4.61,34.18s-9.9,1.48-16.71-10.15c-6.67-11.41-11.8-24.52-18.12-39.79-4.37-10.4-10.92-27-14.5-36.29-3.27.3-8.61.42-11.58.56,2.29,10.91,5.34,27.34,8.39,40,4.86,20,8.22,30.76,4.6,33.42s-10,.82-15.94-11.24c-5.85-11.84-6.37-12.51-11.58-28.19-3.15-9.46-7.55-25.68-10.26-36h-.39s-20.39-15.77-35.32-58.64c-11.08-31.85-15-51.82-14.39-63.08-5.91-16.64-.15-9.15-30.65-57.35-33.54-53-59.25-93.34-78.91-135.84-26.71-57.75-24-81.82-40.75-118.65S931.88,934.4,911.1,874.93c-5.23-14.94-10-29.56-13.92-42.15-1.33-4.21-9.7-32.59-9.7-32.59-2.66,15.77-12.48,85.6-22.3,122.59-11.7,44-21.26,74.72-12.23,107s25.21,53.62,35.6,75.7c11.39,24.34,27.86,72.36,44.36,104.09,0,0,.76,1.68,1.38,3.16,24,52.74,39.48,90.36,39.48,178.66,0,99.89-50.59,250.24-68.94,348.91-19.65,105.74-21.83,166-13.1,258.83,9.83,104.18-24,170.06-44.23,222.55s-38,132.48-44.63,157.49-5.71,41.89-4.37,50.78,4,22.43,2.19,30.89-.88,18.62-.88,18.62c5.27,6.76,15.37,34.7,24.17,48.67s16.25,29.21,16.25,29.21l4,3.38c6.06,5.18,1.7,13.44-2.78,15.35.89,3.57-3.08,5.11-6.81,5.85a42.46,42.46,0,0,1-9.82.43s-1.27,4-8.3,5.25a18.59,18.59,0,0,1-12.77-2.77,10.48,10.48,0,0,1-9.66,9.3c-9.22,1.28-13.19-2.1-13.19-2.1-4.36,7.19-13.62,8.89-27.68,8s-23.72-6.78-33.39-17.78-.87-14.38-5.27-25.39-8.73-40.64-7-54.17,5.27-20.31,4.37-28.78-4.37-19.46-5.29-28.77,4.37-15.24,12.32-46.56,14-77.87,9.66-133.74-22.43-175.29-1.38-252.24c17.12-62.45,20.25-84.5,7-146.5-7.51-35.24-18.26-58.69-11.23-107.78,6.55-45.47,1.76-37.24-12.3-157.44-11.25-96.14-26.59-151.25-18.28-229.05-3.63.91-15.16,3.52-22.92,2.45a45.06,45.06,0,0,1-11.25-.24c8.58,71,1,116-14.32,208.19-14,84.64-17.95,107-10.55,152.36,9.5,58.14-8.73,72.79-16,128-8.27,62.79-1.1,92.32,16,154.76,21.1,77-2.63,189.59-7,245.48s-1.67,100.94,6.24,132.24,13.17,37.24,12.3,46.56-4.37,20.3-5.27,28.77,2.63,15.25,4.36,28.79-2.63,43.16-7,54.17,4.37,14.38-5.27,25.39-19.32,16.93-33.39,17.77-23.28-.84-27.68-8c0,0-4,3.37-13.18,2.1s-9.17-7.43-9.17-7.43a17,17,0,0,1-11.74,1.35c-8.43-1.86-9.65-5.26-9.65-5.26s-10.35,3.56-15.78-4.89c-8.74.17-11.22-10.88-3.74-17.22l3.94-3.38s7.48-15.24,16.27-29.21,18.89-41.89,24.16-48.66c0,0,.89-10.16-.88-18.63s.88-22,2.18-30.89,2.19-25.82-4.36-50.79-24.42-105-44.64-157.49-54.11-118.31-44.27-222.49c8.73-92.87,1.66-154-18-259.8-18.34-98.67-64-248-64-347.93,0-79.72,23-142.79,45.69-191.64,8.11-30.49,23-63.85,33.63-86.46,10.38-22.17,26.56-43.5,35.6-75.7s-7.23-67.3-18.92-111.27c-9.82-37-18.89-89.12-21.55-104.84,0,0-2.05,2.21-5,10.24C442.51,840.54,435,860,429.78,874.91c-20.74,59.45-28.78,71-45.56,107.84s-14,60.9-40.74,118.65c-19.64,42.5-45.37,82.87-78.92,135.84-30.49,48.2-24.74,40.71-30.64,57.34.56,11.3-3.27,31.27-14.39,63.09-14.92,42.89-35.32,58.64-35.32,58.64s-7.49,26.51-10.65,36c-5.21,15.68-4.9,16.82-11.59,28.19-7.33,12.51-11.76,12.19-15.38,9.53s-3.28-12.74,1.58-32.68c3.06-12.62,7.9-28.73,10.2-39.63-3-.14-7.27.28-10.55,0-3.51,9.24-10.56,26-14.86,36.42-6.33,15.28-10.92,28.65-18.12,39.8-7.65,12-13.3,13-16.72,10.14s-3.47-15.2,4.6-34.18c7.28-17.11,13.7-42.28,18.69-56.92-1.6-.38-2.6-1.61-4.16-2-5.2,10.86-13.61,28.19-19.18,38.17-9.12,16.35-16.6,30.42-25.61,42.42-9.17,12.21-16.61,13-20.07,9.32s0-16.56,9.68-37.76c7.06-15.51,22.4-44.48,29.62-59.74-.69-.3-2.68-.27-3.55-1.6-6.06,9.29-15.9,24.18-22.48,33-10.42,14-19,26.06-28.82,36.1-9.94,10.18-16.89,10-19.65,6.31s2.1-15.24,13.61-33.65c8.73-14,26.87-42.06,35-54.67,13.46-26.11,16.87-36.8,18.13-42.73.57-2.62-3.27-.27-3.27-.27-22.92,23.67-35,27.15-49.78,29.76s-24.95-2-28.28-4.89,7.64-12.2,21.57-19.37c18-9.3,27.66-26,37.36-37.61s24.79-31.3,45-43.71c14.64-9,31-13.87,42-17.66,8-5.16,13.47-13.05,23.25-29,10.72-17.44,20.74-68,38.7-128.67,18.9-63.77,45.65-102.67,70.46-144s25.2-84.5,42.65-158.77c12.32-52.57,17.61-91,22.17-114.06l.43-10.9c0-.81-.06-2.1-.11-3.85-.61-23.84-1.23-50.91,4.91-73.6,1.28-4.7,12.42-43.59,48.21-68.21,13.78-9.46,28.55-15,44.3-20.9a336,336,0,0,1,40.85-12.22c8.82-2.23,89.43-17.63,110-73.69,4.14-11.31,17.16-37.25,8.5-78.72"/></g><g id="Capa_31" data-name="Capa 31"><path class="cls-4" d="M614.13,1770.4c10.66,2.95,9.13,27.89,0,69s-19.8,89.51-1.53,133.53,32,93.92,24.37,160-19.8,164.35-19.8,164.35-1.51-98.32-16.75-160-28.95-127.65-54.82-157-48.75-70.45-54.84-129.13,6.09-74.84,6.09-74.84Z"/><path class="cls-4" d="M748.71,1770.4c-10.66,2.95-9.14,27.89,0,69s19.81,89.51,1.52,133.53-32,93.92-24.37,160,19.8,164.35,19.8,164.35,1.53-98.32,16.77-160,28.93-127.65,54.84-157,48.74-70.45,54.84-129.13-6.11-74.84-6.11-74.84Z"/><path class="cls-4" d="M699.78,796c3.78,19.38,12.58,39.95,47.79,63s61.62,56.93,60.36,103S823,1045.47,845.66,1077s54.06,73.88,50.29,61.77-35.21-65.4-42.75-87.22S838.1,1001.86,847,968s8.79-83.59,0-105.38-6.29-26.65-20.12-24.19S752.6,839.6,730,820.22,696.64,779.77,699.78,796Z"/><path class="cls-4" d="M737.36,324.91s-3.66,3.85-4.27,23.61c-.34,11.25-.74,16.11-.74,16.11s-19.74,23.89-62.82,23.89c-42.47,0-62.93-20.91-62.93-20.91s1.63-11.68.78-31.45"/><path class="cls-4" d="M894.61,780.22c-2.18,16.82-8.73,60.47-16.37,93.06s-24,78.86-31.65,92-2.73-56.25-8.74-80.44-31.11-42.6-31.11-42.6,39.86-1,63.31-28.91S894.61,780.22,894.61,780.22Z"/><path class="cls-4" d="M641,782.2c-3.76,19.37-5,37.95-40.23,61s-74.54,59.84-76.9,122c-1.76,46-4.19,90-26.83,121.48s-54.07,73.88-50.3,61.78S482,1083,489.52,1061.2s15.1-49.66,6.29-83.58-8.8-83.58,0-105.38,6.29-26.65,20.12-24.18,55.74-4.21,78.36-23.64S644.19,766,641,782.2Z"/><path class="cls-4" d="M447,785.45c2.19,16.83,9.83,54.07,17.47,86.68s20.5,81.16,28.14,94.31,2.73-56.26,8.73-80.46,31.12-42.58,31.12-42.58-39.85-1-63.31-28.93S447,785.45,447,785.45Z"/><path class="cls-4" d="M978.84,586s5.73,33.74,10.35,78.23c0,0-19.1-16.1-43-11.51C946.2,652.76,971.67,641.3,978.84,586Z"/><path class="cls-4" d="M362.84,580.32s-11.46,8.88-13.65,78.27c0,0,22.39-11.57,44.58-1.86C393.72,656.73,360.55,639,362.84,580.32Z"/><path class="cls-4" d="M554.33,959.46s14.11-50.66,48.24-87.7c32.51-35.33,80.77-41.42,118.89-3.66s56.07,92.53,56.07,92.53Z"/><path class="cls-4" d="M680.5,538.15s7.77-8.24,34.93-11.23,132.77-6.73,132.77-6.73-2.35-8.22-53.57-6-83,1.5-99.41,8.28C684.09,527,680.5,538.15,680.5,538.15Z"/><path class="cls-4" d="M654.24,539.43s-7.76-8.22-34.93-11.22-132.77-6.77-132.77-6.77,2.34-8.22,53.58-6,83.07,1.5,99.33,8.23C650.66,528.34,654.24,539.43,654.24,539.43Z"/><path class="cls-4" d="M648.89,413.14H684.3s-6,108.73-18,108.73S648.89,413.14,648.89,413.14Z"/><path class="cls-4" d="M660,1370.11s5.64,30.56-2.84,118.48-37.11,183.23-37.11,180.17c0-1.38-18.22-21.3-19.52-42.6-2.51-41.25,2.61-91.48-11.7-150.36-31.76-130.64-83.65-204.49-83.65-204.49S629.25,1313.9,660,1370.11Z"/><path class="cls-4" d="M692.1,1363.46s-8.09,14.53.4,102.45,36.14,205.91,36.14,202.85c0-1.38,18.22-21.3,19.52-42.6,2.51-41.25-2.61-91.48,11.7-150.36,31.76-130.64,83.74-204.49,83.74-204.49S722.87,1307.24,692.1,1363.46Z"/><path class="cls-4" d="M653.74,1374.51c6.55,5.26,23.42,11,39.91,1.37s70.46-78,101.23-96.43,13.8-21.47,6.36-21.47-46.68,26.58-132.64,23.51S555.07,1258,550.82,1258s-25.47-1,6.36,23.51C584.25,1302.38,634.63,1359.18,653.74,1374.51Z"/><path class="cls-4" d="M923,665.65s-3.07,28.08,25.67,137.68,53.06,162.41,53.06,162.41,8.09,21.91,12,36.27c8.6,31.72,17.46,89.78,58.56,172.18,43.45,87,48.62,105.55,48.62,105.55l-10.37,6.86s-18.8-44.5-44.09-79.91-60-94.94-72.62-143.64-22.92-70.87-40.23-96.33-44.82-86.35-54-110.7S887,800.67,887,800.67s10.35-13.28,10.35-42.06-9.19-54.25-9.19-54.25A122.92,122.92,0,0,1,923,665.65Z"/><path class="cls-4" d="M424.89,663s7.26,39.59-21.45,149.19S340.5,965.72,340.5,965.72s-8.08,21.92-12,36.28c-8.59,31.72-17.41,89.78-58.55,172.18-43.46,87-48.62,105.55-48.62,105.55l10.37,6.86s18.79-44.5,44.09-79.91,60-94.94,72.61-143.64,23-70.87,40.22-96.33,44.83-86.35,54-110.7,12.65-55.35,12.65-55.35S445,787.38,445,758.6s9.19-54.25,9.19-54.25S437.69,692.61,424.89,663Z"/><path class="cls-5" d="M685,760.18a49,49,0,0,0,3.28,12.45A89.42,89.42,0,0,0,694,784.39a125.57,125.57,0,0,0,15.37,21.29c11.7,13.13,26.2,24.19,42.57,31.17a98.48,98.48,0,0,0,25.83,7.08,97,97,0,0,0,26.85-.27,113.19,113.19,0,0,0,25.92-7.13,166.56,166.56,0,0,0,24-11.91,110.27,110.27,0,0,0,21-16.24,76.66,76.66,0,0,0,15.17-21.29,71.15,71.15,0,0,0,6.55-25,93.49,93.49,0,0,0-1.77-25.85c-3.7-16.83-9.09-34-20.41-47.68-5.46-6.94-11.69-13.24-17.46-20a86.75,86.75,0,0,1-7.88-10.66A52.57,52.57,0,0,1,844.23,646l.07.1a224.43,224.43,0,0,0-30.43-16.71,165.67,165.67,0,0,0-33-11.31,100.33,100.33,0,0,0-17.35-2.3,66,66,0,0,0-17.4,1.47,49.7,49.7,0,0,0-8.29,2.65c-1.37.52-2.66,1.18-4,1.79a34.4,34.4,0,0,0-3.81,2.1,81.84,81.84,0,0,0-13.82,10.33,112,112,0,0,0-21.14,26.81A101.54,101.54,0,0,0,688,676.32a66.55,66.55,0,0,0-3.85,16.44c-.61,5.6-1,11.24-1.09,16.82s-.13,11.26,0,16.9.4,11.25.72,16.82S684.46,754.58,685,760.18Zm-1.34.12c-.52-5.63-.87-11.26-1.09-16.9s-.29-11.27-.27-16.92.16-11.27.47-16.91.65-11.25,1.33-16.82A69.23,69.23,0,0,1,688,676.29a99.51,99.51,0,0,1,7.17-15.43,111.6,111.6,0,0,1,21-26.92A82.27,82.27,0,0,1,730,623.57c1.23-.76,2.53-1.4,3.81-2.1a34.81,34.81,0,0,1,4-1.8,52.48,52.48,0,0,1,8.33-2.67,67.35,67.35,0,0,1,17.46-1.5A100.61,100.61,0,0,1,781,617.77,166.91,166.91,0,0,1,814,629a225.42,225.42,0,0,1,30.57,16.69h0v.06h0a51.85,51.85,0,0,0,5.46,11.84,86.49,86.49,0,0,0,7.9,10.52c5.74,6.69,12,13,17.53,20A96.52,96.52,0,0,1,883,699a81.26,81.26,0,0,1,5.75,11.88A162.39,162.39,0,0,1,896.3,736a94.46,94.46,0,0,1,1.81,26.09,72.24,72.24,0,0,1-6.62,25.34A77.86,77.86,0,0,1,876.13,809,111.26,111.26,0,0,1,855,825.44a168.55,168.55,0,0,1-24.13,12,113.16,113.16,0,0,1-26.11,7.23,98.2,98.2,0,0,1-27.18.3,99.93,99.93,0,0,1-26.2-7.13,123.12,123.12,0,0,1-43.12-31.49,125.46,125.46,0,0,1-15.55-21.48A89,89,0,0,1,687,773,50.16,50.16,0,0,1,683.69,760.3Z"/><path class="cls-5" d="M653.74,760.3a50.73,50.73,0,0,1-3.35,12.78A94.62,94.62,0,0,1,644.65,785a126.06,126.06,0,0,1-15.56,21.48c-11.85,13.24-26.45,24.38-43.1,31.44a99.93,99.93,0,0,1-26.2,7.13,98.2,98.2,0,0,1-27.18-.29,113.76,113.76,0,0,1-26.12-7.24,167.52,167.52,0,0,1-24.13-12,112,112,0,0,1-21.16-16.42,78.14,78.14,0,0,1-15.35-21.56,72.46,72.46,0,0,1-6.62-25.37,94.11,94.11,0,0,1,1.82-26.09,161.3,161.3,0,0,1,7.52-25.13A78.7,78.7,0,0,1,454.3,699a98.78,98.78,0,0,1,7.55-10.89c5.46-6.94,11.8-13.22,17.55-19.92a89.24,89.24,0,0,0,7.89-10.51,51.6,51.6,0,0,0,5.51-11.84h0v-.07h.05a226.46,226.46,0,0,1,30.57-16.68,166.88,166.88,0,0,1,33.09-11.28,100.63,100.63,0,0,1,17.38-2.27,67.43,67.43,0,0,1,17.47,1.51,50.51,50.51,0,0,1,8.33,2.67c1.36.52,2.65,1.19,4,1.8a34.54,34.54,0,0,1,3.82,2.1,82,82,0,0,1,13.73,10.28,111.88,111.88,0,0,1,21.1,26.87,99.6,99.6,0,0,1,7.06,15.45,69.76,69.76,0,0,1,3.86,16.46c.67,5.6,1.09,11.23,1.33,16.82s.45,11.27.47,16.91,0,11.28-.28,16.92S654.2,754.67,653.74,760.3Zm-1.35-.12c.59-5.6,1-11.21,1.31-16.82s.6-11.24.73-16.83.14-11.26,0-16.89-.53-11.27-1.15-16.83a67.08,67.08,0,0,0-3.91-16.54,99.58,99.58,0,0,0-7.14-15.41,111.51,111.51,0,0,0-21.13-26.81,81.52,81.52,0,0,0-13.83-10.33c-1.23-.76-2.53-1.4-3.81-2.1a30,30,0,0,0-4-1.79,49.92,49.92,0,0,0-8.31-2.65,66.41,66.41,0,0,0-17.4-1.47,99.54,99.54,0,0,0-17.28,2.3,165.67,165.67,0,0,0-33,11.31A226.08,226.08,0,0,0,493.11,646l.06-.09a51.72,51.72,0,0,1-5.46,11.94,85.9,85.9,0,0,1-7.88,10.65c-5.73,6.75-12,13.06-17.41,20-11.32,13.67-16.71,30.8-20.42,47.67A94.75,94.75,0,0,0,440.24,762a71.59,71.59,0,0,0,6.55,25A77.27,77.27,0,0,0,462,808.33a110.64,110.64,0,0,0,21,16.25,168.23,168.23,0,0,0,24,11.91,113.07,113.07,0,0,0,25.86,7.13,97,97,0,0,0,26.85.26,98.25,98.25,0,0,0,25.76-7A120.89,120.89,0,0,0,628,805.71a126,126,0,0,0,15.37-21.3A87.53,87.53,0,0,0,649,772.65a49.26,49.26,0,0,0,3.28-12.47Z"/><path class="cls-4" d="M1114.8,1308.75s3.52-11.57,20-20.72,20.53-2.41,20.53-2.41,5-9.16,18-14.46,36-5.26,36-5.26-26.53-7.72-60,5.26S1114.8,1308.75,1114.8,1308.75Z"/><path class="cls-4" d="M1331,1372.59c-1.27,1.7-16.72,6.31-34.93-1.72s-34-27.34-39.41-30.77,7.16-4.59,19.11,7.19,25.37,15.24,40,18.69S1332.47,1370.58,1331,1372.59Z"/><path class="cls-4" d="M1258.73,1393.3c2.39-2.3,13.73,1.15,30.45,27.6s32.25,52.36,31.06,54.94-12.84-3.74-36.13-34.22S1254.85,1397.05,1258.73,1393.3Z"/><path class="cls-4" d="M1234.84,1408.85c9.64-3.09,12,9.22,27.77,36.81s24.78,50,23.59,52.34-15.53-3.75-35.83-42.57S1232.19,1409.7,1234.84,1408.85Z"/><path class="cls-4" d="M1203.81,1414.3c6.33-1.83,16.12,17.88,25.39,44.29s13.1,40.84,9.82,41.4-14.63-11.2-27.76-47.45S1200.81,1415.16,1203.81,1414.3Z"/><path class="cls-4" d="M1167.67,1416c6.26-.67,10.45,12.61,15.83,33.94s9.24,37.1,8,38.83-8.06-3.75-18.55-31.64S1162.33,1416.59,1167.67,1416Z"/><path class="cls-4" d="M229.12,1304.48s-3.51-11.57-20-20.73-20.52-2.41-20.52-2.41-5-9.16-18-14.46-36-5.26-36-5.26,26.52-7.72,60,5.26S229.12,1304.48,229.12,1304.48Z"/><path class="cls-4" d="M10.46,1369.1c1.27,1.71,16.72,6.31,34.93-1.72s34-27.34,39.42-30.77-7.18-4.59-19.12,7.19-25.41,15.24-40,18.69S9,1367.09,10.46,1369.1Z"/><path class="cls-4" d="M83.53,1392.57c-2.39-2.3-13.73,1.14-30.46,27.6s-32.24,52.35-31,54.93,12.84-3.75,36.12-34.23S87.42,1396.31,83.53,1392.57Z"/><path class="cls-4" d="M107.41,1407.31c-9.63-3.09-11.94,9.21-27.77,36.8s-24.78,50-23.57,52.34,15.52-3.74,35.82-42.56S110.14,1408.17,107.41,1407.31Z"/><path class="cls-4" d="M137.65,1414.74c-6.33-1.83-16.12,17.88-25.38,44.29s-13.1,40.84-9.82,41.42,14.62-11.22,27.75-47.47S140.63,1415.59,137.65,1414.74Z"/><path class="cls-4" d="M173.38,1414.11c-6.26-.67-10.45,12.62-15.83,33.94s-9.25,37.1-8.06,38.82,8.07-3.73,18.56-31.64S178.75,1414.68,173.38,1414.11Z"/><path class="cls-4" d="M460.37,1279s-7.64,134.38,8.87,300.51,11.42,240.65,11.42,240.65-16.48,15.88-19,9.78-16.49-135.64-60.87-332.26c-26.95-119.39,5.06-204,12.67-238.21s21.56-36.65,30.45-37.86S461.62,1249.68,460.37,1279Z"/><path class="cls-4" d="M886.77,1279s7.64,134.38-8.89,300.51-11.36,240.65-11.36,240.65,16.48,15.88,19,9.78,16.5-135.64,60.88-332.26c27-119.39-5.07-204-12.68-238.21s-21.56-36.65-30.44-37.86S885.49,1249.68,886.77,1279Z"/><path class="cls-4" d="M827.3,1254.48s42.36-29.62,71.75-37.51c17.71-4.78,7.51-50.68.67-59.94s-38.2,27-57.39,46.74S797.27,1278.17,827.3,1254.48Z"/><path class="cls-4" d="M516.68,1254.48s-42.36-29.63-71.75-37.51c-17.72-4.78-7.52-50.68-.68-59.94s38.27,27,57.39,46.74S546.77,1278.17,516.68,1254.48Z"/><path class="cls-4" d="M491.88,1841.9H583.8s-.84,57.65-44.88,58.42C487.88,1901.19,491.88,1841.9,491.88,1841.9Z"/><path class="cls-4" d="M853.21,1843.36h-91.9s.84,57.65,44.89,58.42C857.21,1902.66,853.21,1843.36,853.21,1843.36Z"/><path class="cls-4" d="M470.46,1981.89c4.66-13.44,30.4-58.54,16.16-1.05,0,0-12.24,41.63,9.83,139S532,2256,546,2311s11.67,88.83,9.22,78.08c-28.56-125.12-35-144.62-75.53-260.84C459.77,2071.2,461.69,2007.18,470.46,1981.89Z"/><path class="cls-4" d="M876.86,1981.89c-4.67-13.44-30.39-58.54-16.16-1.05,0,0,12.23,41.63-9.82,139S815.36,2256,801.3,2311s-11.67,88.83-9.22,78.08c28.56-125.12,35-144.62,75.53-260.84C887.54,2071.2,885.63,2007.18,876.86,1981.89Z"/><path class="cls-4" d="M640,2442.42s-4.58,14-11.64,23.23.82,25.63,2.49,43.27-.41,35.24-9.15,46.47-2.07,18-9.14,24-20.67,10.52-37.67,6.15c-4.51-1.17-2.19,6.88,8.24,9.28s33.16-1,41.89-12.22,10-12.42,8.73-17.22a26.73,26.73,0,0,1,1.66-16.82c2.5-5.2,8.74-32.44,7.08-44.46s-7.81-28-5-35.65C644.59,2449.19,640,2442.42,640,2442.42Z"/><path class="cls-4" d="M559.79,2428c.29-.12-.33,19.38,2.9,26.85,4.16,9.61,7.91,17.22,7.91,17.22s-7.91,4-14.14-6S555.17,2430,559.79,2428Z"/><path class="cls-4" d="M793.79,2432.51c-.3-.15-.93,19.35-4.64,26.61-4.77,9.36-9,16.73-9,16.73s7.64,4.47,14.5-5.15S798.23,2434.79,793.79,2432.51Z"/><path class="cls-4" d="M726,2404.41s-12.09,22.56-12.84,34.19,3.68,28.77,3.68,32.41-5.95,16.32-5.19,35.95.95,38.81,7.54,48.78c2.56,3.88-2.46,14.56,2.82,24s15.63,15.46,27.29,16.77c13.73,1.55,22-.09,25-5.18,2.78-4.7-5.3-1.45-19.78-2.62-8.8-.7-18.71-15.36-18.88-27.1-.22-14.62-4.37-23.38-5.13-38.65s-3.78-42.19-1.51-51.65-5.29-28.39-3.78-40S729.72,2400,726,2404.41Z"/><path class="cls-4" d="M780,2588.3c1.76,3.15,4.94,6.75,15.66,3.15,8.49-2.81,7.39-11.18,7.39-11.18s2.11,4.27,9.93,4.48a11.48,11.48,0,0,0,10.66-5.49,50.83,50.83,0,0,0,9.63.43c6.12-.2,6.36-6.31,6.36-6.31a7.42,7.42,0,0,0,5.46-4c2.82-6.13-4.67-9.29-4.67-9.29l-7.55-10.77s-66.42,16.56-72.25,17.49c-4.14.67,8.08,7.8,8.08,7.8S782.33,2578.28,780,2588.3Z"/><path class="cls-4" d="M593,2562.89l-76.76-10.63s-3.5,4-4.91,4.88-6.83,4.74-6.66,9,2.46,8.41,7.37,7.43c0,0,4.37,6.42,15.77,4,0,0,4.74,8.42,21.57,3.73a11.12,11.12,0,0,0,9.83,7.43c7.71.51,11.92-2.53,11.92-2.53a12.87,12.87,0,0,1,11-10.52C592.08,2574,593,2562.89,593,2562.89Z"/><path class="cls-6" d="M671.11,1067.06h0a5.07,5.07,0,0,1,5.16,5v22.58a5.06,5.06,0,0,1-5.16,5h0a5.07,5.07,0,0,1-5.17-5V1072A5.07,5.07,0,0,1,671.11,1067.06Z"/></g><g id="Capa_36" data-name="Capa 36"><path class="cls-7" d="M974.43,951.21s12.24-35.38,58-35.38h10.41"/><path class="cls-7" d="M974.43,951.21s19.65,4,40.68-8.94c0,0,16-10.29,26.93-26.44"/><path class="cls-7" d="M974.43,951.21c.4,1.43,45.77,28,58,17.24s9.65-51.4,9.65-51.4"/><path class="cls-5" d="M191.93,1401.94a37.62,37.62,0,0,1-7.57,3.76c-2.6,1-5.25,2.1-8,2.91a103.79,103.79,0,0,1-16.53,4,91.4,91.4,0,0,1-17.1.82,61,61,0,0,1-8.53-1,25.47,25.47,0,0,1-8.25-3l.18.09q-9.54-4.05-19-8.18c-3.16-1.44-6.22-2.94-9.39-4.29-1.57-.68-3.15-1.33-4.75-1.92-.79-.32-1.61-.56-2.39-.86s-1.49-.7-2.35-1.12a3.42,3.42,0,0,1,1.38-.3,6.28,6.28,0,0,1,1.37.1,20.49,20.49,0,0,1,2.54.74c1.66.56,3.27,1.18,4.9,1.82,3.28,1.28,6.42,2.67,9.54,4.08q9.54,4,19.06,8h.08l.09.06a23.15,23.15,0,0,0,7.49,2.72,71,71,0,0,0,8.22,1.05,59.42,59.42,0,0,0,16.63-.6,145.76,145.76,0,0,0,16.25-4c2.67-.81,5.33-1.68,8-2.55a83.56,83.56,0,0,1,8.07-2.48Z"/><path class="cls-7" d="M134.38,1262s5.33,16.64-3.8,31.54c0,0-16.77,20.07-21.34,24s-24.72,18.6-27,24.72"/><path class="cls-7" d="M221.4,1336.57s-9.14-.49-14.19,1.71-15,7.36-24.12,6.12h-12c-6.41,0-10.53-.12-13.21-.17-5.46-.07-13.47-.06-23.88.36a50.39,50.39,0,0,0-32,5.26l-9.68,6.37s-8.88,11-12,10.06"/><path class="cls-7" d="M95.59,1353.05a96.51,96.51,0,0,0,56.15,12.88c34.46-2.8,55.51-23.52,60.46-28.67"/><path class="cls-7" d="M366.42,955s-12.24-35.38-58-35.38H298"/><path class="cls-7" d="M366.42,955s-19.65,4-40.68-9c0,0-16-10.27-26.93-26.42"/><path class="cls-7" d="M366.42,955c-.41,1.43-45.77,28-58,17.23s-9.65-51.39-9.65-51.39"/><path class="cls-5" d="M74.56,1297.52a.65.65,0,0,1,.32-.19.53.53,0,0,1,.25,0,.75.75,0,0,1,.3.09,1.24,1.24,0,0,1,.26.19l.34.34a6.78,6.78,0,0,1,.53.67q.5.68.93,1.38c.58.92,1.09,1.87,1.62,2.83q1.5,2.88,2.71,5.9a61,61,0,0,1,3.55,12.4,41.16,41.16,0,0,1,.31,12.87,28.08,28.08,0,0,1-4.63,12.06l-.62-.4a27.34,27.34,0,0,0,4.37-11.77,40.49,40.49,0,0,0-.39-12.62,60,60,0,0,0-3.59-12.21,63.21,63.21,0,0,0-2.71-5.78c-.5-.94-1-1.86-1.59-2.77-.28-.44-.58-.88-.89-1.3-.16-.2-.32-.41-.48-.59l-.23-.24h-.07s.13.18.48-.13Z"/><path class="cls-7" d="M53.3,1328.79s15.09,22.33,3.55,37.46"/><path class="cls-7" d="M49.2,1414.62c.36-.57,13.49,5.52,16.46,20.16"/><path class="cls-7" d="M29.15,1446.19s12.21,7.53,13.81,18"/><path class="cls-7" d="M77.09,1432.59s21.15,16.36,15.38,26.6"/><path class="cls-7" d="M59.46,1469S75.69,1477.24,75,1488"/><path class="cls-7" d="M112.59,1441.57s13.2,1.52,16.77,13.6"/><path class="cls-7" d="M102.72,1469.84s13.46,8.09,13.46,18.16"/><path class="cls-7" d="M153.89,1435.61s15.2,3.41,16.21,13.79"/><path class="cls-7" d="M146.6,1464.16s12.57,2.22,18.13,11.47"/><path class="cls-7" d="M587.15,2573.67c.62-.44,23.66-1.85,16.29,4.77s-25.4,5.38-25.4,5.38-6.22-1.33-4.37-3.25"/><path class="cls-7" d="M559.12,2588.73s1.62-9.81,9.24-12.5,18.72-11.28,16.53-14.45"/><path class="cls-5" d="M539.52,2582.81a14.12,14.12,0,0,1,.5-4.71,8.38,8.38,0,0,1,2.52-4.21,7,7,0,0,1,2.19-1.29c.76-.28,1.47-.48,2.18-.72l4.36-1.34a45,45,0,0,0,4.28-1.5,13.67,13.67,0,0,0,2-1l.41-.3.35-.31c.08-.13.15-.21.24-.35l.25-.49c.68-1.33,1.34-2.66,2-4,.3-.67.61-1.35.87-2a9.32,9.32,0,0,0,.37-1.05,3.57,3.57,0,0,0,.11-.47v-.18h0a.39.39,0,0,0,.26.17l.13-.92a.85.85,0,0,1,.31.13.83.83,0,0,1,.16.21.75.75,0,0,1,.09.29,2.54,2.54,0,0,1,0,.39,2.38,2.38,0,0,1-.13.6,9.32,9.32,0,0,1-.37,1.05c-.26.72-.55,1.41-.84,2.11-.6,1.38-1.24,2.74-1.89,4.09l-.25.5a5.94,5.94,0,0,1-.38.59l-.48.46-.51.38a13.38,13.38,0,0,1-2.11,1.14c-1.43.64-2.91,1.14-4.37,1.64l-4.37,1.44c-.72.24-1.47.48-2.18.74a5.49,5.49,0,0,0-1.69,1.06,6.88,6.88,0,0,0-2,3.46,12.36,12.36,0,0,0-.33,4.11Z"/><path class="cls-5" d="M543,2555.89a11.56,11.56,0,0,1-.93,4.33,8.67,8.67,0,0,1-2.94,3.37,28,28,0,0,1-8.24,3.43,17,17,0,0,0-4,1.48,8.54,8.54,0,0,0-2.92,2.81,11.45,11.45,0,0,0-1.46,3.76,7.68,7.68,0,0,0-.16,2,3.32,3.32,0,0,0,1.22,2.1h-4.25a3.31,3.31,0,0,0,1.26-2.13,11.71,11.71,0,0,1,.4-2.28,12.31,12.31,0,0,1,1.94-4.11,10.19,10.19,0,0,1,3.49-3c.36-.17.7-.34,1.09-.49l1.09-.34,2.19-.56a25.34,25.34,0,0,0,8.09-3.15,7.89,7.89,0,0,0,2.66-3.16,9.14,9.14,0,0,0,.73-4Z"/><path class="cls-5" d="M536.07,2569.38a14.7,14.7,0,0,0-4,.89,4.37,4.37,0,0,0-1.65,1,.55.55,0,0,0-.07.67,2.85,2.85,0,0,0,.7.59,10,10,0,0,0,3.74,1.22c.33,0,.67.08,1,.1a8.18,8.18,0,0,0,1,0l2.05-.06h-.23l5.35-2.45h0l-.11.89-3.07-2.64.36-.45,3.39,2.26.73.48-.83.41h0l-5.35,2.44-.12.06h-.12l-2.07-.07a6.58,6.58,0,0,1-1.09-.06l-1.1-.19a10.15,10.15,0,0,1-3.9-1.57,3.4,3.4,0,0,1-.8-.76A1,1,0,0,1,530,2571a4.8,4.8,0,0,1,1.89-1A14.86,14.86,0,0,1,536.07,2569.38Z"/><path class="cls-5" d="M558.3,2574.27a4.22,4.22,0,0,0-1.8.53,9.87,9.87,0,0,0-1.6.94,3.53,3.53,0,0,0-1.17,1.32c-.23.54.24,1,.79,1.16a10.84,10.84,0,0,0,3.62.62,9.35,9.35,0,0,0,3.54-.66h0l2.81-1.93h0v.83l-2.52-2.83,3.28,2,.58.37-.64.46h0l-2.93,1.78h0a9.89,9.89,0,0,1-3.93.51,11.26,11.26,0,0,1-3.8-.87,2,2,0,0,1-.82-.62,1,1,0,0,1-.09-1.05,3.74,3.74,0,0,1,1.34-1.37,10.52,10.52,0,0,1,1.7-.88A4.43,4.43,0,0,1,558.3,2574.27Z"/><path class="cls-5" d="M518.06,2564.24a8.87,8.87,0,0,0-1.46.94,2.58,2.58,0,0,0-.59.6c-.17.22-.27.48-.12.67.24.41.9.52,1.43.64a14.11,14.11,0,0,0,1.72.17,11.15,11.15,0,0,0,3.4-.34,6.41,6.41,0,0,0,2.84-1.45l.79.73a7.44,7.44,0,0,1-3.45,1.49,12.55,12.55,0,0,1-3.62.1,17.43,17.43,0,0,1-1.78-.32,7.89,7.89,0,0,1-.86-.29,1.4,1.4,0,0,1-.72-.61.65.65,0,0,1,0-.51,1.19,1.19,0,0,1,.24-.4,3.4,3.4,0,0,1,.66-.59A10.63,10.63,0,0,1,518.06,2564.24Z"/><path class="cls-5" d="M507.15,2565.88a3,3,0,0,0,2.36-.46,12.23,12.23,0,0,0,2-1.49,5,5,0,0,0,1.45-1.78,1,1,0,0,0-.11-1,2.89,2.89,0,0,0-.89-.85h0a2.42,2.42,0,0,1,1.31.54,1.65,1.65,0,0,1,.53,1.46,4.32,4.32,0,0,1-1.57,2.39,7.43,7.43,0,0,1-2.37,1.47,4.07,4.07,0,0,1-1.43.26,1.9,1.9,0,0,1-1.33-.5Z"/><path class="cls-5" d="M1149.09,1398.41a80.9,80.9,0,0,1,8.07,2.49c2.66.87,5.31,1.73,8,2.54a148,148,0,0,0,16.25,4,57.94,57.94,0,0,0,16.63.6,66.93,66.93,0,0,0,8.22-1,23.57,23.57,0,0,0,7.47-2.7l.11-.06h.08q9.51-4,19.06-8c3.12-1.42,6.32-2.8,9.54-4.08,1.61-.65,3.27-1.27,4.9-1.83a20.44,20.44,0,0,1,2.54-.73,5.72,5.72,0,0,1,1.37-.1,3.43,3.43,0,0,1,1.38.31,19.93,19.93,0,0,1-2.36,1c-.79.26-1.59.55-2.39.86-1.59.59-3.17,1.25-4.76,1.94-3.15,1.34-6.22,2.84-9.37,4.29q-9.49,4.13-19,8.17l.19-.1a25.44,25.44,0,0,1-8.26,3,59.64,59.64,0,0,1-8.52,1.1,91.47,91.47,0,0,1-17.11-.82,106.15,106.15,0,0,1-16.52-4q-4-1.29-8-2.91a38.3,38.3,0,0,1-7.54-3.79Z"/><path class="cls-7" d="M1206.61,1258.5s-5.34,16.63,3.81,31.54c0,0,16.76,20.06,21.34,24s24.71,18.58,27,24.7"/><path class="cls-7" d="M1119.64,1333.15s9.15-.49,14.19,1.71,15,7.36,24.14,6.11h11.94c6.42,0,10.53-.12,13.2-.15,5.46-.09,13.49-.08,23.89.34a50.52,50.52,0,0,1,32,5.26l9.68,6.36s8.88,11,12,10.06"/><path class="cls-7" d="M1245.37,1349.63a96.68,96.68,0,0,1-56.15,12.88c-34.46-2.81-55.51-23.52-60.46-28.68"/><path class="cls-5" d="M1265.6,1294.77c.35.32.53.08.48.14h0l-.24.23a6.9,6.9,0,0,0-.47.6c-.32.42-.61.85-.89,1.3-.57.9-1.1,1.82-1.6,2.76-1,1.88-1.9,3.82-2.71,5.79a61.4,61.4,0,0,0-3.59,12.2,41.1,41.1,0,0,0-.39,12.62,27.39,27.39,0,0,0,4.43,11.76l-.62.4a28,28,0,0,1-4.64-12.06,41.17,41.17,0,0,1,.32-12.87,61.27,61.27,0,0,1,3.56-12.41c.8-2,1.7-4,2.7-5.88.51-1,1.09-1.92,1.62-2.84.29-.46.6-.93.93-1.38.16-.22.34-.44.53-.67a1.82,1.82,0,0,1,.34-.34,1.57,1.57,0,0,1,.26-.19.75.75,0,0,1,.3-.09.53.53,0,0,1,.25,0,.65.65,0,0,1,.33.19Z"/><path class="cls-7" d="M1287.7,1325.36s-15.09,22.34-3.55,37.46"/><path class="cls-7" d="M1291.79,1411.2c-.37-.57-13.49,5.52-16.46,20.17"/><path class="cls-7" d="M1311.88,1442.76s-12.22,7.53-13.81,18"/><path class="cls-7" d="M1263.92,1429.16s-21.15,16.36-15.38,26.6"/><path class="cls-7" d="M1281.53,1465.56s-16.23,8.25-15.51,19"/><path class="cls-7" d="M1228.4,1438.15s-13.2,1.51-16.77,13.6"/><path class="cls-7" d="M1238.27,1466.46s-13.46,8.09-13.46,18.15"/><path class="cls-7" d="M1187.09,1432.2s-15.19,3.4-16.2,13.77"/><path class="cls-7" d="M1194.39,1460.73s-12.57,2.23-18.13,11.47"/><path class="cls-7" d="M760.92,2573.67c-.61-.44-23.66-1.85-16.3,4.77s25.41,5.38,25.41,5.38,6.22-1.33,4.37-3.25"/><path class="cls-7" d="M793.2,2592.05s-1.62-9.81-9.25-12.5-18.69-11.29-16.58-14.46"/><path class="cls-7" d="M809.34,2585.26s.78-7.58-4.81-9.46-12.77-3.61-13.89-5.82-4.26-8.63-3.41-8.74"/><path class="cls-7" d="M826.68,2576.72s-.26-7.59-7.37-9.54-13.86-3.46-13.79-11.28"/><path class="cls-7" d="M810.42,2569.38c1.78,0,7.55,1.22,5.68,2.94s-5.68,1.95-5.68,1.95h-2.77l-5.36-2.45,3.28-2.44"/><path class="cls-7" d="M788.92,2574.27c1.18-.24,7.53,3,3.47,4.3a10.47,10.47,0,0,1-7,0l-2.88-1.86,2.88-2.44"/><path class="cls-7" d="M830,2564.24s5.34,2.45,0,3.16-7.64-1.59-7.64-1.59"/><path class="cls-7" d="M836,2560.33s-3.27,1,0,3.91,4.84,1.66,4.84,1.66"/></g></g></g><g id="Capa_48" data-name="Capa 48"><path class="cls-8" d="M533.12,213.53s-5.24,92.75,71.55,153.35c0,0,37.29,32,69.13,30.49,0,0,36.74-3.86,68.62-37.64,0,0,78-79.31,62.22-164.11l2.11-94.13s-121.35-105.27-268.38,0Z"/><g id="Capa_39" data-name="Capa 39"><g id="Capa_37" data-name="Capa 37"><path class="cls-9" d="M668,193.39h0q5.54,49,11,98v4"/><path class="cls-9" d="M679.06,295.29A11.88,11.88,0,0,1,667,306.94"/><path class="cls-9" d="M676.88,302.34A8.72,8.72,0,0,0,668,293.8"/><path class="cls-9" d="M679.06,286.71l7.74,14.41s-4.54,8.41-11.67,2.73"/><path class="cls-9" d="M732.58,186.11A62.38,62.38,0,0,0,692.2,212s-13.81,16-15.36,54.62"/><path class="cls-9" d="M744.34,235.21c-3.34-4.82-11.08-8.86-11.08-8.86-22.21-12.77-42.64-8.41-42.64-8.41L687.85,219"/><path class="cls-7" d="M698.07,241.68c28.18,6.39,47.09,0,47.09,0,1.2-2.1.59-4.36-.86-6.47"/><path class="cls-7" d="M744.34,235.22s-17.37-8.54-33.28-2.8c0,0-9.62,2.24-12.94,9.26"/><path class="cls-9" d="M756.76,247.76c-7.29,8-24.2,8.62-24.2,8.62-28.52-2.24-47.91-24.18-47.91-24.18L683,230.45"/><ellipse class="cls-9" cx="761.07" cy="244.52" rx="5.49" ry="5.29"/><line class="cls-9" x1="766.56" y1="169.18" x2="762.39" y2="239.23"/><path class="cls-7" d="M745.16,241.68S736,256.4,708.9,249.81"/><path class="cls-10" d="M732.11,366.88c-9.32-30.29,5.46-59.94,5.46-59.94,13.82-23.52,24.87-30.12,24.87-30.12,12.61-16.18,2.08-27,2.08-27l-.61-.7"/><polyline class="cls-10" points="755.58 282.61 773.67 302.34 782.84 311.24"/><path class="cls-10" d="M679.06,289a18.76,18.76,0,0,1,19-9.58s10.49,1.45,29,4.72c0,0,21.74,4.33,28.55-1.48"/><path class="cls-7" d="M639,337.85s4.43-8.05,17.25-10l10.4,1.75,12.43-1.75c12.82,1.91,17.25,10,17.25,10"/><path class="cls-7" d="M707.36,332.86a37.69,37.69,0,0,1-11.93,5c-5,1.1-8.07.66-21.08.7-3.89,0-7,.05-9.05.09"/><path class="cls-9" d="M668,197.7v96.1"/><path class="cls-11" d="M681.9,191.28s.42-2.38,8.73-5.07c9.4-3,14.45-4.87,28.39-6.69,5.13-.66,8.31-.85,19.49-.63,5.27.09,14,1.85,15,2.54s.51,1.59-.21,1.59-16.92-2.1-22.92-1.81a83.28,83.28,0,0,0-16.91,2.71c-4,1.2-14.75,6.31-19,7.62s-5.16,1.78-8.73,1.78S680.35,192.84,681.9,191.28Z"/><path class="cls-11" d="M648.12,191.28s-.41-2.38-8.73-5.07c-9.39-3-14.45-4.87-28.39-6.69-5.14-.66-8.31-.85-19.5-.63-5.27.09-14,1.85-15,2.54S576,183,576.7,183s16.91-2.1,22.92-1.81a82.46,82.46,0,0,1,17,2.77c4,1.2,14.73,6.31,19,7.61s5.17,1.79,8.73,1.79S649.67,192.84,648.12,191.28Z"/></g><g id="Capa_38" data-name="Capa 38"><path class="cls-9" d="M656.23,295.29a11.88,11.88,0,0,0,12.1,11.65"/><path class="cls-9" d="M658.41,302.34a8.72,8.72,0,0,1,8.88-8.54"/><path class="cls-9" d="M656.23,286.71l-7.74,14.41s4.54,8.41,11.67,2.73"/><path class="cls-9" d="M602.71,186.11A62.42,62.42,0,0,1,643.1,212s13.81,16,15.36,54.62"/><path class="cls-9" d="M591,235.21c3.34-4.82,11.08-8.86,11.08-8.86,22.21-12.77,42.63-8.41,42.63-8.41l2.78,1.05"/><path class="cls-7" d="M637.22,241.68c-28.18,6.39-47.09,0-47.09,0-1.2-2.1-.59-4.36.87-6.47"/><path class="cls-7" d="M591,235.22s17.36-8.54,33.28-2.8c0,0,9.62,2.24,12.93,9.26"/><path class="cls-9" d="M578.53,247.76c7.29,8,24.2,8.62,24.2,8.62,28.52-2.24,47.91-24.18,47.91-24.18l1.62-1.75"/><ellipse class="cls-9" cx="574.22" cy="244.52" rx="5.49" ry="5.29"/><line class="cls-9" x1="568.73" y1="169.18" x2="572.9" y2="239.23"/><path class="cls-7" d="M590.13,241.68s9.2,14.72,36.27,8.13"/><path class="cls-10" d="M603.18,366.88c9.32-30.29-5.46-59.94-5.46-59.94-13.82-23.52-24.83-30.12-24.83-30.12-12.57-16.14-2.08-27-2.08-27l.59-.75"/><polyline class="cls-10" points="579.71 282.61 561.62 302.34 555.37 309.32"/><path class="cls-10" d="M656.23,289a18.76,18.76,0,0,0-19-9.58s-10.49,1.45-29,4.72c0,0-21.75,4.33-28.56-1.48"/><path class="cls-7" d="M682.12,346.64s-2.27,4.11-5.28,4.11H658.41c-3,0-5.28-4.31-5.28-4.31"/><path class="cls-7" d="M627.94,332.86a37.59,37.59,0,0,0,11.93,5c5,1.1,8.06.66,21.08.7,3.88,0,7,.05,9,.09"/><path class="cls-10" d="M651.21,392.47a34.39,34.39,0,0,0,35.4,0c-.73-9.42-9.25-16.48-19-15.78A17.43,17.43,0,0,0,651.21,392.47Z"/></g></g><g id="Capa_33" data-name="Capa 33"><path class="cls-12" d="M725,27.8c17.6-12.72,50.42-5.56,73.47,41.62s38.91,112.41,31.66,230.36-2.87,165.14,21.66,195.67,49,30.49,49,30.49-103.1-5-141.19-55.2a123.89,123.89,0,0,1-8.8-14c-7.41-12.9-36.39-63.32-18.63-87.27,2.35-3.15,3-2.44,11.92-12.09a251.29,251.29,0,0,0,17.58-21c12.36-17.41,12.81-43.66,12.37-56,0,0,22.32-14.49,28.82-45.79,2.88-13.88,4.37-33.31-8.65-26.37,0,0-4.09-2.18-9.82,19.8-1.55,5.95-33.41-36.9-29.33-88.69,1.95-25-25.71-74-25.71-74S702,44.44,725,27.8Z"/><path class="cls-13" d="M778.54,418.3c-1.51-7.55-15.28-80.7,16.93-118.67A96.51,96.51,0,0,1,800.93,287a64.17,64.17,0,0,1,5.65-8.95c-5.24,1.82-12.64,5.91-13.21,5-.37-.6,2.45-2.88,4.37-4.29-4.68,2.88-17.39,11.26-23.48,25.32-3.74,8.67-.9,10.08-5.86,21.4a104.39,104.39,0,0,1-12.29,20.26c-6,8.11-7.5,8.17-10.23,12.62-6.07,10-5.34,20.41-5,27.33,1.89,34.06-1.48,43.33.67,56.37,9.32,56.6,110.45,111,118.2,102.12C866.34,536.75,794.64,499.06,778.54,418.3Z"/><path class="cls-12" d="M745.21,113.83S725,147.12,666,165.18c-45.33,13.83-77.93,17.06-94.54,37.24-7.07,8.57-8.91,17.23-10.64,23.81-14.81,56.53,26.69,119,39.52,137.08a50.16,50.16,0,0,1-1.92,31c-7.58,20.41-11.23,35.54-14.54,42.83-9.51,21-51.22,54.68-113.82,81.88,0,0,51.86-65.19,38.9-145.71s-17.29-192.89,7.26-256.7S622.75-8.29,683.21,2.81,774,63.87,745.21,113.83Z"/><path class="cls-13" d="M541.57,231.53c-8.56,14.32-18.09,35.64-16.61,61,.91,15.65,5.45,22.68,10.6,38.59,3.14,9.68,21.39,65.88,3.53,111.21-14.79,37.52-49.41,55.1-47.12,57.83,1.31,1.57,13-3.73,61.26-36.32,8.22-5.72,20.37-15.87,28.28-31.78,14.74-29.64,6-61.78-2.62-93.7-11.82-43.62-24.53-50.7-21.09-75.48.9-6.44,3.78-20.6,4.22-41.67.2-9.69-.18-17.66-.54-22.91"/><path class="cls-13" d="M519.48,221.23s28.38,23.69,42.57,0c0,0,8.36-29.1,43.73-39,0,0,112.43-25.49,130.22-57.13,0,0,34.4-39.22,14.19-76.59S691.14,4.52,691.14,4.52s64.77,47.42,31.78,80.33-155.49,73.76-155.49,73.76-21.2,18.15-20,37.44S548.15,228.24,519.48,221.23Z"/><path class="cls-13" d="M757.5,74a39.32,39.32,0,0,1-3.59,25.23c-1.09,2.11-2.39,4.21-2.61,6.58s.78,4.94,1.55,7.36c4.77,14.72.92,30.65,1.28,46.1a86.3,86.3,0,0,0,23.48,56.63c1.95,2.1,4.93,4.21,7.49,2.87a5.48,5.48,0,0,0,2.37-3.33c1.46-4.42,1.74-10.35,6.32-11.8,4.91-1.58,9,4.05,10.05,8.94,2.48,11.9-1.84,24.18-7.51,35s-12.77,21.09-16.57,32.68c-2.7,8.29-3.58,17-4.45,25.69,3.52-12.23,14.19-21.09,21.41-31.72,14.38-21.19,14.19-48.28,13.36-73.6-.36-10.28-.81-20.81-4.83-30.33-3.36-8-9.07-14.85-12.51-22.78-4.62-10.69-4.86-22.61-4.91-34.2s-.09-23.46-4.37-34.3-13.74-20.61-25.69-21.85l-1.87,8.36Z"/></g></g><g id="Capa_49" data-name="Capa 49"><path class="cls-9" d="M668,193.39l-11.78,98a34.27,34.27,0,0,0,0,4.3"/><line class="cls-9" x1="658.41" y1="266.6" x2="658.41" y2="272.67"/><line class="cls-9" x1="676.88" y1="266.6" x2="676.7" y2="270.27"/></g><g id="Capa_35" data-name="Capa 35"><ellipse class="cls-14" cx="1049.81" cy="1050.6" rx="54.72" ry="52.71"/><ellipse class="cls-15" cx="1049.81" cy="1050.6" rx="45.01" ry="43.35"/><g class="cls-16"><path class="cls-17" d="M1005.31,1005.76l42.48-13.28,5.64,17.25s8.73,20.2,14.82,29.06c0,0,9.21,13.3,7.64,27.59l.18,18.71-2.19,12.33-25.1,6.88-8.1-11.32s-29.24-39.41-30.26-65.53Z"/><path class="cls-10" d="M1005.31,1005.76l42.48-13.28,5.64,17.25s8.73,20.2,14.82,29.06c0,0,9.21,13.3,7.64,27.59l.18,18.71-2.19,12.33-25.1,6.88-8.1-11.32s-29.24-39.41-30.26-65.53Z"/><path class="cls-10" d="M1011.13,1033.49s7.33-18.31,43.46-21"/><path class="cls-10" d="M1013.55,1043a63.3,63.3,0,0,1,46-20.06"/><path class="cls-10" d="M1018.71,1056s17.47-21.34,46.25-22.48"/><path class="cls-10" d="M1024.22,1066.86s13.09-20,46.47-23.82"/><path class="cls-10" d="M1030.83,1078.21s26.05-21.69,45-18.75"/><path class="cls-10" d="M1037.39,1088.28a54.52,54.52,0,0,1,38.46-19.58"/><path class="cls-10" d="M1041.84,1094.57s10.92-12.45,34-13.92"/><path class="cls-18" d="M1033.7,1034.83s-4.22-5.91,0-4.81a6.82,6.82,0,0,1,5,4.81s8.44-4.06,6.9,0a14.31,14.31,0,0,1-3.83,5.9s10.35,2.59,4,3-7.47.74-9,3.32-1.83-3-5-4.07-2.34-6.64-2.34-6.64Z"/><path class="cls-18" d="M1059.4,1074s-4.22-5.91,0-4.8a6.86,6.86,0,0,1,5,4.8s8.43-4.07,6.89,0a14.3,14.3,0,0,1-3.83,5.91s10.35,2.59,4,3-7.48.74-9,3.33-1.83-3-4.94-4.07-2.34-6.65-2.34-6.65Z"/><path class="cls-19" d="M1059.8,1045.17s.62-5.54,4.53-2.22,5,12.94-2.26,15.15c0,0-7,3-7-2.21C1055.1,1055.89,1064.39,1052.2,1059.8,1045.17Z"/><path class="cls-19" d="M1044.08,1064.83s5.62,1.29,1.71,4.61-13.94,3.15-15.29-4.08c0,0-2.18-7.1,3.17-6.31C1033.6,1059,1036.27,1068.35,1044.08,1064.83Z"/><path class="cls-19" d="M1044.08,1012s5.62,1.29,1.71,4.6-13.94,3.16-15.29-4.07c0,0-2.18-7.09,3.17-6.31C1033.6,1006.15,1036.27,1015.47,1044.08,1012Z"/></g></g><g id="Capa_42" data-name="Capa 42"><ellipse class="cls-20" cx="673.97" cy="1354.89" rx="125.37" ry="120.76"/><ellipse class="cls-21" cx="673.97" cy="1354.89" rx="110.6" ry="106.53"/><g class="cls-22"><polygon class="cls-23" points="656.3 1272.1 659.54 1266.63 661.55 1272.62 668.08 1272.58 663.71 1277.26 667.01 1282.69 660.62 1281.38 657.38 1286.85 655.38 1280.85 648.84 1280.89 653.22 1276.23 649.92 1270.79 656.3 1272.1"/><polygon class="cls-24" points="659.86 1274.42 657.07 1274.42 655.67 1276.74 657.07 1279.07 659.86 1279.07 661.25 1276.74 659.86 1274.42"/><polygon class="cls-23" points="653.52 1367.68 656.75 1362.21 658.76 1368.19 665.3 1368.16 660.92 1372.83 664.23 1378.27 657.83 1376.95 654.6 1382.42 652.59 1376.43 646.05 1376.47 650.43 1371.8 647.13 1366.37 653.52 1367.68"/><polygon class="cls-24" points="657.07 1369.99 654.28 1369.99 652.89 1372.32 654.28 1374.64 657.07 1374.64 658.47 1372.32 657.07 1369.99"/><polygon class="cls-23" points="578.91 1333.14 582.14 1327.66 584.16 1333.66 590.69 1333.61 586.31 1338.29 589.62 1343.72 583.23 1342.4 579.99 1347.88 577.99 1341.89 571.45 1341.93 575.82 1337.25 572.52 1331.82 578.91 1333.14"/><polygon class="cls-24" points="582.46 1335.44 579.68 1335.44 578.28 1337.77 579.68 1340.1 582.46 1340.1 583.86 1337.77 582.46 1335.44"/><polygon class="cls-23" points="755.81 1352 759.04 1346.54 761.06 1352.52 767.59 1352.49 763.21 1357.15 766.52 1362.59 760.12 1361.28 756.89 1366.74 754.88 1360.76 748.35 1360.79 752.72 1356.13 749.43 1350.69 755.81 1352"/><polygon class="cls-24" points="759.36 1354.32 756.58 1354.32 755.18 1356.64 756.58 1358.96 759.36 1358.96 760.76 1356.64 759.36 1354.32"/><polygon class="cls-23" points="689.22 1434.45 692.45 1428.97 694.46 1434.96 700.99 1434.93 696.62 1439.6 699.91 1445.04 693.53 1443.72 690.3 1449.19 688.28 1443.19 681.75 1443.24 686.13 1438.57 682.82 1433.13 689.22 1434.45"/><polygon class="cls-24" points="692.76 1436.76 689.98 1436.76 688.58 1439.08 689.98 1441.41 692.76 1441.41 694.16 1439.08 692.76 1436.76"/><path class="cls-25" d="M814.13,1346l2-1.48a.23.23,0,0,1,.32,0l9.12,11.64a.21.21,0,0,1,0,.31l-2,1.48a.24.24,0,0,1-.32,0l-9.13-11.64A.22.22,0,0,1,814.13,1346Z"/><path class="cls-25" d="M787.23,1372.92l2-1.47a.23.23,0,0,1,.32,0l9.08,11.67a.21.21,0,0,1,0,.31l-2,1.47a.23.23,0,0,1-.32,0l-9.08-11.67A.21.21,0,0,1,787.23,1372.92Z"/><path class="cls-25" d="M759.72,1389.78l.37-.27a1.31,1.31,0,0,1,1.79.24l7.86,10a1.2,1.2,0,0,1-.25,1.72l-.37.27a1.31,1.31,0,0,1-1.79-.24l-7.86-10A1.2,1.2,0,0,1,759.72,1389.78Z"/><path class="cls-25" d="M734.61,1409.77l.36-.27a1.31,1.31,0,0,1,1.79.24l7.86,10a1.19,1.19,0,0,1-.25,1.72l-.36.27a1.31,1.31,0,0,1-1.79-.24l-7.86-10A1.2,1.2,0,0,1,734.61,1409.77Z"/><path class="cls-25" d="M707.75,1432.52l2-1.48a.23.23,0,0,1,.32,0l9.12,11.64a.21.21,0,0,1,0,.31l-2,1.48a.24.24,0,0,1-.32,0l-9.13-11.64A.22.22,0,0,1,707.75,1432.52Z"/><path class="cls-25" d="M681.71,1454.63l2-1.49a.23.23,0,0,1,.32,0l9.13,11.64a.2.2,0,0,1-.05.3l-2,1.49a.25.25,0,0,1-.33,0l-9.12-11.63A.21.21,0,0,1,681.71,1454.63Z"/><path class="cls-25" d="M655.68,1476.76l2-1.48a.23.23,0,0,1,.32,0l9.13,11.64a.22.22,0,0,1,0,.31l-2,1.48a.25.25,0,0,1-.33,0l-9.12-11.64A.21.21,0,0,1,655.68,1476.76Z"/><path class="cls-25" d="M629.64,1498.9l2-1.48a.25.25,0,0,1,.32,0l9.12,11.64a.21.21,0,0,1,0,.31l-2,1.48a.23.23,0,0,1-.32,0l-9.12-11.64A.21.21,0,0,1,629.64,1498.9Z"/><path class="cls-25" d="M763.37,1313.35l.36-.26a1.3,1.3,0,0,1,1.79.24l7.86,10a1.2,1.2,0,0,1-.25,1.73l-.36.26a1.31,1.31,0,0,1-1.79-.24l-7.86-10A1.19,1.19,0,0,1,763.37,1313.35Z"/><path class="cls-25" d="M738.65,1335.47l.36-.27a1.31,1.31,0,0,1,1.79.24l7.86,10a1.19,1.19,0,0,1-.25,1.72l-.36.27a1.31,1.31,0,0,1-1.79-.24l-7.86-10A1.19,1.19,0,0,1,738.65,1335.47Z"/><path class="cls-25" d="M707.29,1358.29l2-1.48a.25.25,0,0,1,.32,0l9.12,11.64a.21.21,0,0,1,0,.31l-2,1.48a.22.22,0,0,1-.32,0l-9.13-11.64A.22.22,0,0,1,707.29,1358.29Z"/><path class="cls-25" d="M682.18,1378.3l2-1.48a.22.22,0,0,1,.32,0l9.13,11.64a.21.21,0,0,1,0,.31l-2,1.48a.26.26,0,0,1-.33,0l-9.12-11.64A.21.21,0,0,1,682.18,1378.3Z"/><path class="cls-25" d="M656.16,1400.42l2-1.48a.23.23,0,0,1,.32,0l9.12,11.64a.21.21,0,0,1,0,.31l-2,1.48a.23.23,0,0,1-.32-.05l-9.13-11.63A.22.22,0,0,1,656.16,1400.42Z"/><path class="cls-25" d="M630.1,1422.55l2-1.48a.25.25,0,0,1,.32,0l9.12,11.64a.21.21,0,0,1,0,.31l-2,1.48a.23.23,0,0,1-.32,0l-9.12-11.64A.21.21,0,0,1,630.1,1422.55Z"/><path class="cls-25" d="M604.06,1444.69l2-1.48a.23.23,0,0,1,.32,0l9.12,11.64a.21.21,0,0,1,0,.31l-2,1.48a.24.24,0,0,1-.32,0L604,1445A.22.22,0,0,1,604.06,1444.69Z"/><path class="cls-25" d="M578,1466.81l2-1.48a.24.24,0,0,1,.32,0l9.13,11.64a.22.22,0,0,1,0,.31l-2,1.48a.23.23,0,0,1-.32,0L578,1467.12A.21.21,0,0,1,578,1466.81Z"/><path class="cls-25" d="M736.75,1267.82l2-1.47a.23.23,0,0,1,.32,0l9.08,11.67a.21.21,0,0,1,0,.31l-2,1.47a.23.23,0,0,1-.32,0l-9.08-11.67A.21.21,0,0,1,736.75,1267.82Z"/><path class="cls-25" d="M714,1285.53l2-1.48a.25.25,0,0,1,.32,0l9.13,11.64a.22.22,0,0,1,0,.31l-2,1.48a.23.23,0,0,1-.32,0L714,1285.84A.21.21,0,0,1,714,1285.53Z"/><path class="cls-25" d="M683.5,1307.75l2-1.49a.23.23,0,0,1,.32,0l9.13,11.63a.22.22,0,0,1,0,.31l-2,1.49a.24.24,0,0,1-.32,0l-9.12-11.64A.2.2,0,0,1,683.5,1307.75Z"/><path class="cls-25" d="M658.39,1327.76l2-1.49a.23.23,0,0,1,.32,0l9.13,11.64a.21.21,0,0,1,0,.3l-2,1.49a.24.24,0,0,1-.32,0l-9.12-11.63A.21.21,0,0,1,658.39,1327.76Z"/><path class="cls-25" d="M629.91,1354.18l2.05-1.47a.23.23,0,0,1,.32,0l9.08,11.67a.21.21,0,0,1,0,.31l-2.05,1.47a.23.23,0,0,1-.32,0l-9.08-11.67A.21.21,0,0,1,629.91,1354.18Z"/><path class="cls-25" d="M606.32,1372l2-1.48a.23.23,0,0,1,.32,0l9.12,11.64a.21.21,0,0,1,0,.31l-2,1.48a.24.24,0,0,1-.32,0l-9.13-11.64A.22.22,0,0,1,606.32,1372Z"/><path class="cls-25" d="M580.28,1394.15l2-1.49a.25.25,0,0,1,.33,0l9.12,11.64a.2.2,0,0,1,0,.3l-2,1.49a.23.23,0,0,1-.32-.05l-9.13-11.63A.21.21,0,0,1,580.28,1394.15Z"/><path class="cls-25" d="M554.24,1416.27l2-1.48a.25.25,0,0,1,.32,0l9.12,11.64a.21.21,0,0,1,0,.31l-2,1.48a.23.23,0,0,1-.32,0l-9.13-11.64A.23.23,0,0,1,554.24,1416.27Z"/><path class="cls-25" d="M715,1212.86l2-1.48a.23.23,0,0,1,.32,0l9.12,11.64a.21.21,0,0,1,0,.31l-2,1.48a.24.24,0,0,1-.32,0l-9.13-11.64A.22.22,0,0,1,715,1212.86Z"/><path class="cls-25" d="M690.23,1235l2-1.48a.23.23,0,0,1,.32,0l9.12,11.64a.21.21,0,0,1,0,.31l-2,1.48a.22.22,0,0,1-.32,0l-9.13-11.64A.22.22,0,0,1,690.23,1235Z"/><path class="cls-25" d="M659.71,1257.19l2-1.48a.23.23,0,0,1,.32,0l9.13,11.64a.22.22,0,0,1-.05.31l-2,1.48a.24.24,0,0,1-.33,0l-9.12-11.64A.21.21,0,0,1,659.71,1257.19Z"/><path class="cls-25" d="M634.62,1277.2l2-1.48a.23.23,0,0,1,.32,0l9.13,11.64a.22.22,0,0,1-.05.31l-2,1.48a.23.23,0,0,1-.32,0l-9.12-11.64A.21.21,0,0,1,634.62,1277.2Z"/><path class="cls-25" d="M608.57,1299.32l2-1.48a.26.26,0,0,1,.33,0l9.12,11.64a.21.21,0,0,1,0,.31l-2,1.48a.22.22,0,0,1-.32,0l-9.13-11.64A.23.23,0,0,1,608.57,1299.32Z"/><path class="cls-25" d="M582.54,1321.46l2-1.49a.25.25,0,0,1,.33,0l9.12,11.64a.2.2,0,0,1,0,.3l-2,1.49a.23.23,0,0,1-.32,0l-9.13-11.63A.22.22,0,0,1,582.54,1321.46Z"/><path class="cls-25" d="M556.5,1343.59l2-1.49a.24.24,0,0,1,.32.05l9.12,11.64a.2.2,0,0,1,0,.3l-2,1.49a.23.23,0,0,1-.32,0l-9.13-11.63A.22.22,0,0,1,556.5,1343.59Z"/><path class="cls-25" d="M530.46,1365.71l2-1.48a.25.25,0,0,1,.32,0l9.12,11.64a.21.21,0,0,1,0,.31l-2,1.48a.23.23,0,0,1-.32,0L530.42,1366A.21.21,0,0,1,530.46,1365.71Z"/><path class="cls-25" d="M691.18,1162.32l2-1.48a.23.23,0,0,1,.32,0l9.13,11.64a.22.22,0,0,1,0,.31l-2,1.48a.23.23,0,0,1-.32,0l-9.12-11.64A.21.21,0,0,1,691.18,1162.32Z"/><path class="cls-25" d="M666.45,1184.44l2-1.48a.24.24,0,0,1,.32,0l9.13,11.64a.22.22,0,0,1-.05.31l-2,1.48a.24.24,0,0,1-.33,0l-9.12-11.64A.21.21,0,0,1,666.45,1184.44Z"/><path class="cls-25" d="M635.94,1206.65l2-1.48a.24.24,0,0,1,.32,0l9.12,11.63a.21.21,0,0,1,0,.31l-2,1.49a.24.24,0,0,1-.32-.05L635.9,1207A.21.21,0,0,1,635.94,1206.65Z"/><path class="cls-25" d="M610.83,1226.66l2-1.48a.23.23,0,0,1,.32,0l9.12,11.64a.21.21,0,0,1,0,.31l-2,1.48a.24.24,0,0,1-.32,0L610.78,1227A.22.22,0,0,1,610.83,1226.66Z"/><path class="cls-25" d="M584.8,1248.79l2-1.49a.23.23,0,0,1,.32,0l9.13,11.63a.22.22,0,0,1,0,.31l-2,1.49a.24.24,0,0,1-.32,0l-9.12-11.63A.21.21,0,0,1,584.8,1248.79Z"/><path class="cls-25" d="M558.74,1270.91l2-1.48a.24.24,0,0,1,.32,0l9.13,11.64a.22.22,0,0,1-.05.31l-2,1.48a.23.23,0,0,1-.32,0l-9.12-11.64A.21.21,0,0,1,558.74,1270.91Z"/><path class="cls-25" d="M532.72,1293l2-1.48a.22.22,0,0,1,.32,0l9.13,11.64a.22.22,0,0,1-.05.31l-2,1.48a.25.25,0,0,1-.32,0l-9.12-11.64A.21.21,0,0,1,532.72,1293Z"/><path class="cls-25" d="M506.67,1315.18l2-1.48a.22.22,0,0,1,.32,0l9.13,11.64a.22.22,0,0,1,0,.31l-2,1.48a.25.25,0,0,1-.32,0l-9.12-11.64A.21.21,0,0,1,506.67,1315.18Z"/></g></g><g id="Capa_43" data-name="Capa 43"><path class="cls-26" d="M865.63,704.77c0-105-88.38-190.16-197.41-190.16S470.8,599.78,470.8,704.77a184.43,184.43,0,0,0,33.32,105.71c0,.89-.07,1.77-.07,2.66,0,78.49,66.1,142.11,147.59,142.09,66.08,0,124.1-42.36,142-103.64C839.25,815.51,865.68,761.63,865.63,704.77Z"/><g class="cls-27"><path class="cls-28" d="M595.6,532.59s-65.49,32.51-82.86,91.63c0,0-23.52,57.14-25.56,118.23,0,0-9.21,43.35,36.82,43.35,0,0,16.37-8.86,32.74-9.85l63.42-3,26.59-1L657,754.28s-28.64-6.9-32.74-33.5V668.56L621.2,549.34l-3.07-16.75-3.06-8.87Z"/><path class="cls-29" d="M557.75,558.24a388.22,388.22,0,0,1,2.12,57.35q-.57,14.89-2.12,28.33a142.68,142.68,0,0,1-5.62,26.29c-3.28,10.36-5.84,18.22-12.6,26.36a57.86,57.86,0,0,1-12.7,11.31,166.45,166.45,0,0,0-39.65,32.66s9.2-82.77,21.48-103.45c0,0,20.46-56.17,34.78-64.05Z"/><path class="cls-30" d="M486.15,750.34s12.15,12.8,49.12,12.8h97.15l17.39,5.91s-107.4-1-118.65,15.77c0,0-38.87,1-45-22.65Z"/><path class="cls-31" d="M486.15,750.34s12.15,12.8,49.12,12.8h97.15l17.39,5.91s-107.4-1-118.65,15.77c0,0-38.87,1-45-22.65Z"/><path class="cls-32" d="M599.34,530.9S618.1,518.81,614,600.58L614.6,707s-6.73,47.31,17.82,56.15l17.39,5.91L657,754.34l-15.31-7.89s-21.51,3.94-17.47-62L622,580.92s4.36-49.22-12-57.11Z"/><path class="cls-30" d="M599.34,530.9S618.1,518.81,614,600.58L614.6,707s-6.73,47.31,17.82,56.15l17.39,5.91L657,754.34l-15.31-7.89s-21.51,3.94-17.47-62L622,580.92s4.36-49.22-12-57.11Z"/><path class="cls-33" d="M595.6,532.59s-65.49,32.51-82.86,91.63c0,0-23.52,57.14-25.56,118.23,0,0-9.21,43.35,36.82,43.35,0,0,16.37-8.86,32.74-9.85l63.42-3,26.59-1L657,754.28s-28.64-6.9-32.74-33.5V668.56L621.2,549.34l-3.07-16.75-3.06-8.87Z"/><path class="cls-34" d="M786.36,554.26s35.29,29.08,51.14,85.23c0,0,25.58,75.37,20,110.85,0,0,4.09,33-26.08,34.48H727s-32.75,0-36.32-29.07l-7.16-55.66,4.61-104L694.82,541l23.52-32,38.87,12.31Z"/><path class="cls-35" d="M695.31,769.05a59.57,59.57,0,0,1,32.24-7.88l104.33-.08s22.53.57,26.1-15.44c0,0,2,32.21-19.72,38.15l-104.1,1.06s-22.7,1-30.78-7.36Z"/><path class="cls-36" d="M695.31,769.05a59.57,59.57,0,0,1,32.24-7.88l104.33-.08s22.53.57,26.1-15.44c0,0,2,32.21-19.72,38.15l-104.1,1.06s-22.7,1-30.78-7.36Z"/><path class="cls-37" d="M734.16,514v83.66l-5.59,135s-1.53,27.09-19.43,31.54l-13.83,4.92-10.92-62.12.93-46.71,2.84-64.06L694.8,541l16.49-22.43,7-9.58Z"/><path class="cls-38" d="M734.16,514v83.66l-5.59,135s-1.53,27.09-19.43,31.54l-13.83,4.92-10.92-62.12.93-46.71,2.84-64.06L694.8,541l16.49-22.43,7-9.58Z"/><path class="cls-36" d="M786.36,554.26l3.58,92.13s4.1,45.81,32.75,64.53c0,0,36.34,19.71,35.56,29.56L855,706.84l-14.3-57.55L824,604.82,797.59,565.6Z"/><path class="cls-39" d="M786.36,554.26s35.29,29.08,51.14,85.23c0,0,25.58,75.37,20,110.85,0,0,4.09,33-26.08,34.48H727s-32.75,0-36.32-29.07l-7.16-55.66,4.61-104L694.82,541l23.52-32,38.87,12.31Z"/><path class="cls-40" d="M751.07,802.55s17.91-23.13,48.59-8.41c0,0,19.43,13.3,23.52,21.67l3,30.09-33.75,20.69-19.9-3.43-27.13-40.9Z"/><path class="cls-41" d="M779.73,789.26s24.57,8.64,36.58,36.34l7.17-6.87-3-6.81-20.83-17.74-13.84-4.93Z"/><path class="cls-42" d="M751.07,802.55s17.91-23.13,48.59-8.41c0,0,19.43,13.3,23.52,21.67l3,30.09-33.75,20.69-19.9-3.43-27.13-40.9Z"/><path class="cls-43" d="M779.73,789.26s18.39,8.85,26.58,20.19c0,0,13.81,17.74,11.76,25.13"/><path class="cls-44" d="M725,795.86s48.11-4.43,59.34,58.38-73.91,106.92-76.61,107-43.59-4.34-43.59-4.34L657,951.08S617.64,940,614.56,909.7c0,0-18.41-.82-28.38,28.39s-26,0-26,0L568,920.76l24.29-33.25,21.44-4.38,11.52,4.37,5.91-4.37s33.84,8.94,41.58,0c0,0-11.43-1.54-4.52-8.93l8.43-9.57,23.78-31.78L717.35,805l-44.61,3.46L657,785.8V750.34h28.6l-5.12,6.89v20.2l27.23,14.72Z"/><path class="cls-45" d="M616.06,906.78s18.88,46.74,121.44,21.44c0,0-51.21,30.86-80.7,24C656.8,952.18,608.91,934.29,616.06,906.78Z"/><path class="cls-46" d="M616.06,906.78s18.88,46.74,121.44,21.44c0,0-51.21,30.86-80.7,24C656.8,952.18,608.91,934.29,616.06,906.78Z"/><path class="cls-47" d="M725,795.86s48.11-4.43,59.34,58.38-73.91,106.92-76.61,107-43.59-4.34-43.59-4.34L657,951.08S617.64,940,614.56,909.7c0,0-18.41-.82-28.38,28.39s-26,0-26,0L568,920.76l24.29-33.25,21.44-4.38,11.52,4.37,5.91-4.37s33.84,8.94,41.58,0c0,0-11.43-1.54-4.52-8.93l8.43-9.57,23.78-31.78L717.35,805l-44.61,3.46L657,785.8V750.34h28.6l-5.12,6.89v20.2l27.23,14.72Z"/><path class="cls-46" d="M625.28,887.53s8.51,12.43-8,21.49"/><path class="cls-48" d="M556.73,927.68l19.95-13,33.23-23.13a42.76,42.76,0,0,1,17.39-7.89c10.24-2,64.7-19.21,80.3-39.16,0,0,33.25-36.46,14.07-53,0,0-20.74-17-47.82-15.52l-29.93-1.79-77,1.25-33.13,5.92-6,4.4s-11.52,17.25-14.59,31.78c0,0-4.59,57.38-4.36,58.13s9,23.4,9.2,24.18,15.1,15.78,15.1,15.78Z"/><path class="cls-49" d="M543.18,906.5l10.49-6.65s37.11-20,44.23-27.34c0,0,4.6-5.17,16.88-7.36l49.12-11.32s37.34-12.07,44.51-9.61l-10.49,8.13a120.11,120.11,0,0,1-32.25,18.36A178.39,178.39,0,0,1,624,883.39a24.37,24.37,0,0,0-13.56,6.4s-25.56,19.46-31.19,22.42l-16.61,11.56L556,927.22l-22.75-11.57Z"/><path class="cls-50" d="M543.18,906.5l10.49-6.65s37.11-20,44.23-27.34c0,0,4.6-5.17,16.88-7.36l49.12-11.32s37.34-12.07,44.51-9.61l-10.49,8.13a95,95,0,0,1-32.25,18.36q-7.75,3.15-16.1,6.24-12.93,4.74-25.11,8.41A24.29,24.29,0,0,0,610,891.55c-4.07,3.3-8.59,6.69-13.55,10.1-6,4.08-11.72,7.58-17.13,10.59L562.7,923.8,556,927.25l-14-9.61Z"/><path class="cls-51" d="M556.73,927.68l19.95-13,33.23-23.13a42.76,42.76,0,0,1,17.39-7.89c10.24-2,64.7-19.21,80.3-39.16,0,0,33.25-36.46,14.07-53,0,0-20.74-17-47.82-15.52l-29.93-1.79-77,1.25-33.13,5.92-6,4.4s-11.52,17.25-14.59,31.78c0,0-4.59,57.38-4.36,58.13s9,23.4,9.2,24.18,15.1,15.78,15.1,15.78Z"/><path class="cls-52" d="M625.28,672.5v53.2s10.09,31.54,43,31.54h90s44-11.82,31.66-48.28c0,0-5.12-26.6-36.83-43.35l-21.48-11.82s-7,18.72-22.92,10.83c0,0-14.89-7.87-16.93-10.83l-2-3s-3.08,20.69-21.48,16.75c0,0-5.12,25.62-26.6,18.72Z"/><path class="cls-53" d="M626.29,711.91S637.54,733.59,660,732.6h91s34.78-7.92,37.85-20.73c0,0,5.12,38.44-31.66,41.39H660.11s-25.57-5.91-33.75-32.51Z"/><path class="cls-54" d="M625.28,672.5v53.2s10.09,31.54,43,31.54h90s44-11.82,31.66-48.28c0,0-5.12-26.6-36.83-43.35l-21.48-11.82s-7,18.72-22.92,10.83c0,0-14.89-7.87-16.93-10.83l-2-3s-3.08,20.69-21.48,16.75c0,0-5.12,25.62-26.6,18.72Z"/><path class="cls-55" d="M704,551.68l-5.75,2.58s-3.08.26-1.29-2l12.28-7.52,25.11-16-10.78-8.88-17.65-5.17-11.82,5.17-15.73,10.35-6.13-5.17-28,30.67-2.42,5.54v75.36s-2.3,22.53,12.62,24c0,0,9.21,3.7,9.59,9.24,0,0,25.31-.73,29.92-12.19v-2.59s-7.29-14,0-21l22.63-25.86V573.11S718.85,553.9,704,551.68Zm-23.4,73.52V583.82C680.55,595.65,698.91,613.39,680.55,625.2Z"/><path class="cls-56" d="M693.92,519.9l-15.73,10.35-6.13-5.17-28,30.67-2.33,5.54v75.36s-2.26,22.53,12.66,24c0,0,9.21,3.7,9.59,9.24,0,0,25.31-.73,29.92-12.19v-2.59s-7.29-14,0-21l22.63-25.86V573.11s2.3-19.21-12.65-21.43l-5.76,2.58s-3.08.26-1.29-2l12.28-7.52,25.11-16-10.7-8.88-17.65-5.17Z"/><path class="cls-57" d="M717.32,525.44c-.77,1.12-58.31,37-59.84,44.36s0,67.62,0,67.62,11.89,13.3,16.12,14"/><line class="cls-57" x1="656.8" y1="543.18" x2="656.8" y2="573.85"/><path class="cls-57" d="M677.81,565s11.12-15.89,19.18,6.31,8.82,35.83,8.82,35.83V619"/><path class="cls-56" d="M652.5,657.72c13.8,11.46,28,6.65,28,6.65,23-18.47,1.16-35.47,0-35.47,0,0-5.37-1.11-3.45-11.46l-.38-30.29v-4.07s8.82,14.79,10.36,17,6.14,21.31-3.46,24.18l-5.75,6.89"/><path class="cls-58" d="M685.61,516.82s-36.83,23.65-41.93,42.37V642s-1,16.75,8.17,17.74c0,0,16.37,5.91,12.77,19.71,0,0-7.71,12.8-21,6.89,0,0-24.51-9.85-26.57-34.48V548.35s-6.13-21.68-15.28-20.69l24.58-10.84,9.17,9.87L657,516.84Z"/><path class="cls-59" d="M664.13,519.79s-25.57,21.67-30.68,31.54,0,89.66,0,89.66-.23,24.63,14.19,29.56l16.48,6.89"/><path class="cls-59" d="M617.07,523.72s14.09,12.8,14.1,32.52"/><path class="cls-60" d="M685.61,516.82s-36.83,23.65-41.93,42.37V642s-1,16.75,8.17,17.74c0,0,16.37,5.91,12.77,19.71,0,0-7.71,12.8-21,6.89,0,0-24.51-9.85-26.57-34.48V548.35s-6.13-21.68-15.28-20.69l24.58-10.84,9.17,9.87L657,516.84Z"/><path class="cls-61" d="M728.83,654.76s-11.51,15.15-26.47,4.81c0,0-11.13-6.31-11.51-16.26a11,11,0,0,1,4.22-10.71l33.76-34.41s19.94-17.73,40.27-4.8c0,0,21.48,10.34,13.42,34.7,0,0-3.83,12.61-14.19,20.69l-16.11,14.33-16.88-13.6L758,627.72"/><path class="cls-62" d="M729.33,655.12a17.83,17.83,0,0,1-12.28,9.71,16.92,16.92,0,0,1-4.26.34,20.33,20.33,0,0,1-4.16-.77,26.54,26.54,0,0,1-7.16-3.68l.11.08a30.48,30.48,0,0,1-4.44-3.28,28.13,28.13,0,0,1-3.74-4,21.43,21.43,0,0,1-2.77-4.76,16.05,16.05,0,0,1-1.17-5.42v.28a10.81,10.81,0,0,1-.14-3.45,12.56,12.56,0,0,1,.83-3.24,12.28,12.28,0,0,1,1.69-2.91,15.42,15.42,0,0,1,2.31-2.4l-.09.08,32.08-32.35c.7-.68,1.29-1.31,2.07-2.1a15.18,15.18,0,0,1,2.35-1.79,48.22,48.22,0,0,1,5-3.06,40.72,40.72,0,0,1,11.09-4,30.09,30.09,0,0,1,22.82,4.29h-.11a31.47,31.47,0,0,1,8.84,7.11,27.42,27.42,0,0,1,5.46,9.71,24.73,24.73,0,0,1,1.09,5.45c.11.93.1,1.85.13,2.77a13.43,13.43,0,0,1-.16,2.76A37,37,0,0,1,782,631.15,46,46,0,0,1,769,649l-16.55,14.65h0l-.4.36-.42-.33-16.73-13.6h0l-.52-.41.48-.47q5.58-5.52,11.31-10.91l5.76-5.37a49.68,49.68,0,0,1,6-5.1,50.8,50.8,0,0,1-5.28,5.8l-5.58,5.54q-5.61,5.48-11.32,10.89v-.9h0l16.88,13.6h-.77L768.42,648A44.33,44.33,0,0,0,781,630.63c2.74-6.56,3.74-14,1.53-20.72a28.43,28.43,0,0,0-13.67-15.78h-.06a29.46,29.46,0,0,0-10.35-4.06,28.86,28.86,0,0,0-11.15.23,38.43,38.43,0,0,0-10.5,3.92,46.59,46.59,0,0,0-4.75,3c-.75.53-1.48,1.1-2.18,1.7s-1.3,1.32-1.94,2l-31.72,32.6h0l-.08.06a12.9,12.9,0,0,0-1.9,2,9.62,9.62,0,0,0-1.95,4.9,8.52,8.52,0,0,0,.11,2.52v.28a13.66,13.66,0,0,0,1.09,4.52,17.63,17.63,0,0,0,2.44,4.11,25.92,25.92,0,0,0,3.41,3.54,27,27,0,0,0,4,2.9h.07a15.41,15.41,0,0,0,12.88,2.3,26.41,26.41,0,0,0,6.22-2.48q3.14-1.77,6.06-3.82Z"/><polygon class="cls-62" points="727.82 653.59 734.31 648.38 736.39 650.81 729.82 655.93 727.82 653.59"/><path class="cls-63" d="M695.38,653.66s-1.46-4.07,4.29-7l23-20.69,21.47-21.44s15.84-14.81,29.41-8.15"/></g><path class="cls-64" d="M865.63,704.77c0-105-88.38-190.16-197.41-190.16S470.8,599.78,470.8,704.77a184.43,184.43,0,0,0,33.32,105.71c0,.89-.07,1.77-.07,2.66,0,78.49,66.1,142.11,147.59,142.09,66.08,0,124.1-42.36,142-103.64C839.25,815.51,865.68,761.63,865.63,704.77Z"/></g></g><path class="cls-65" d="M565.56,1052.31H771.28a12.87,12.87,0,0,1,13.1,12.62v36.8a12.87,12.87,0,0,1-13.1,12.62H565.56a12.87,12.87,0,0,1-13.1-12.62v-36.8A12.87,12.87,0,0,1,565.56,1052.31Z"/><text class="cls-66" transform="translate(588.66 1098.07) scale(1.04 1)">Sources</text></g></g></g></g></svg>