<?xml version="1.0" encoding="utf-8"?>
<!-- Generator: Adobe Illustrator 22.1.0, SVG Export Plug-In . SVG Version: 6.00 Build 0)  -->
<svg version="1.1" id="Layer_1" xmlns="http://www.w3.org/2000/svg" xmlns:xlink="http://www.w3.org/1999/xlink" x="0px" y="0px"
	 viewBox="0 0 1148.8 2613.4" style="enable-background:new 0 0 1148.8 2613.4;" xml:space="preserve">
<style type="text/css">
	.st0{fill:#EBD0A8;}
	.st1{fill:#331A12;}
	.st2{fill:none;stroke:#331A12;stroke-miterlimit:10;}
	.st3{fill:none;stroke:#331A12;stroke-width:0.3;stroke-miterlimit:10;}
	.st4{fill:#533126;stroke:#331A12;stroke-width:3;stroke-miterlimit:10;}
	.st5{fill:#3C2017;stroke:#331A12;stroke-width:2;stroke-miterlimit:10;}
	.st6{fill:none;stroke:#331A12;stroke-width:1.24;stroke-miterlimit:10;}
	.st7{fill:none;stroke:#331A12;stroke-width:4;stroke-miterlimit:10;}
	.st8{opacity:0.78;fill:none;stroke:#331A12;stroke-width:0.75;stroke-miterlimit:10;enable-background:new    ;}
	.st9{fill:none;stroke:#331A12;stroke-width:2;stroke-miterlimit:10;}
	.st10{fill:none;stroke:#331A12;stroke-width:0.25;stroke-miterlimit:10;}
	.st11{fill:#533126;stroke:#331A12;stroke-miterlimit:10;}
	.st12{fill:none;stroke:#331A12;stroke-width:0.5;stroke-miterlimit:10;}
	.st13{fill:#A5383E;}
	.st14{clip-path:url(#SVGID_2_);}
	.st15{fill:#97B9AE;stroke:#2C5044;stroke-width:0.75;stroke-miterlimit:10;}
	.st16{fill:#648C82;stroke:#2C5044;stroke-width:0.75;stroke-miterlimit:10;}
	.st17{fill:#89AEA5;}
	.st18{fill:none;stroke:#5C8677;stroke-miterlimit:10;}
	.st19{fill:none;stroke:#61877B;stroke-miterlimit:10;}
	.st20{fill:none;stroke:#2C5044;stroke-width:4;stroke-miterlimit:10;}
	.st21{fill:#97B9AE;}
	.st22{fill:#84AB9F;}
	.st23{fill:none;stroke:#5C8677;stroke-width:0.25;stroke-miterlimit:10;}
	.st24{fill:#81AEA0;}
	.st25{fill:none;stroke:#2C5044;stroke-width:0.25;stroke-miterlimit:10;}
	.st26{fill:none;stroke:#2C5044;stroke-miterlimit:10;}
	.st27{fill:#C0634A;}
	.st28{fill:#B65036;}
	.st29{fill:none;stroke:#620F2C;stroke-width:3;stroke-miterlimit:10;}
	.st30{fill:none;stroke:#620F2C;stroke-width:2;stroke-miterlimit:10;}
	.st31{fill:#A7444E;}
	.st32{fill:#9B3F4A;}
	.st33{fill:none;stroke:#681215;stroke-width:0.75;stroke-miterlimit:10;}
	.st34{fill:none;stroke:#681215;stroke-width:3;stroke-miterlimit:10;}
	.st35{fill:#7A1128;}
	.st36{fill:#66172D;}
	.st37{fill:none;stroke:#7A1128;stroke-miterlimit:10;}
	.st38{fill:none;stroke:#4E1B2F;stroke-width:3;stroke-miterlimit:10;}
	.st39{fill:#9E2730;stroke:#FFFFFF;stroke-miterlimit:10;}
	.st40{fill:#8F1B2D;}
	.st41{fill:none;stroke:#6C1329;stroke-width:5;stroke-miterlimit:10;}
	.st42{fill:#741321;}
	.st43{fill:none;stroke:#4C0E1C;stroke-width:3;stroke-miterlimit:10;}
	.st44{fill:none;stroke:#4C0E1C;stroke-miterlimit:10;}
	.st45{fill:#648C82;stroke:#2C5044;stroke-width:0.25;stroke-miterlimit:10;}
	.st46{fill:none;stroke:#2C5044;stroke-width:2;stroke-miterlimit:10;}
	.st47{fill:none;stroke:#2C5044;stroke-width:0.5;stroke-miterlimit:10;}
	.st48{fill:#4C6760;}
	.st49{fill:#435D54;}
	.st50{fill:none;stroke:#435D54;stroke-width:3;stroke-miterlimit:10;}
	.st51{fill:none;stroke:#F9F9F9;stroke-width:13;stroke-miterlimit:10;}
	.st52{fill:#F1EEE9;}
	.st53{fill:#DFA858;}
	.st54{clip-path:url(#SVGID_4_);}
	.st55{fill:#C56849;}
	.st56{fill:#BD6A2E;}
	.st57{fill:#F1EEEE;}
	.st58{fill:#F5F9F1;}
	.st59{fill:#9D3037;}
	.st60{clip-path:url(#SVGID_6_);}
	.st61{fill:#A74F5A;}
	.st62{fill:#7B9E95;}
	.st63{fill:#9E2730;stroke:#321C16;stroke-width:0.25;stroke-miterlimit:10;}
	.st64{fill:#FCF1E5;stroke:#2D2D2D;stroke-miterlimit:10;}
	.st65{font-family:'Lato-Regular';}
	.st66{font-size:45px;}
</style>
<title>Asset 1</title>
<g id="Layer_2_1_">
	<g id="Layer_1-2">
		<g id="Layer_2-2">
			<g id="Layer_1-2-2">
				<g id="Layer_2-2-2">
					<g id="Capa_47">
						<path class="st0" d="M345.5,2412.9l-14.3,38.1c0,0-32.1,72.7-42.8,82.4c0,0,4.3,12.6-6.1,22.2s-3.7,19-3.7,19l8.6,2.3
							c0,0,6.2,20.3,18.4,19s5.4-1.9,5.4-1.9s13.7,13.4,21.9,6c0,0,10.9,9.6,19.9,2.2c0,0,11.7-9.7,13.8-14.3s5.6-17.8,11-12.8
							c0,0,4.2,3.3,0,11.4s0.7,15.4,0.7,15.4s11.3,16.3,37.7,6.2c0,0,10.3-5.7,6.2-20.2c0,0-6.5-2.6-4-25.7c0,0,7.3-24.6,5-36.7
							s-2.9-70-2.9-70s0.8-20.8,14.1-33.8c0,0,8.5-6.5,2.7-23l-4.2-19.1l-2.5-8.6c0,0-5.5-3,6-31.5L448,2287l24.4-119
							c0,0,26-178.8,13.2-242.5l28.2-105.8l35.5-198.7l0.7-9.1l9.2-64.2l11.8-68.6c0,0,3.7-9.6,7.5,0s11.8,68.1,11.8,68.1l9.1,63.6
							l10.6,71.7l19.4,104.4l12.5,56l22.1,83.9l-1.4,16.2c0,0-4.1,46.5-0.9,75l6.8,80.1l10.5,69.9l13.7,77.3l14.8,69.6l6.3,27
							c0,0,9.3,21.9,3.2,37.6l-5.5,25.9c0,0-2.6,10.9-1.1,11.5s15.8,15.2,17.3,27.8l1,40.8l-2.8,42c0,0-0.9,16.1,3.8,28.4
							s1.9,20.4,1.9,20.8c-0.7,3-1.6,5.9-2.6,8.7c-0.5,0.8-1.8,8.9-1.8,8.9l0.5,8.1c0,0,5.8,6,6.5,6.4s8.2,2.4,9.2,2.3
							s13-0.7,13-0.7l7.1-2l4.4-2.6l3.2-3.6l1.8-7.4c0,0-9.7-29.6,6.1-16.6c0,0,5,21.4,23.2,26.7c0,0,5.9,2.6,11.4-3.2
							c0,0,16.7,2.4,23-5.5c0,0,14.7,1.4,19.4-6.9c0,0,7-6.4,5.4-11.5c0,0,9.8-0.3,10.3-5c0,0,2.6-8.5-4.6-14c0,0-7.7-10.3-5.2-23.1
							l-10-15.3l-24.8-45.7l-23.3-61.7c0,0,2.5-8.3,0.1-13.9s-11.3-16.3-11.3-16.3l6.8-70l13.8-180.6l10.1-117.6l0.3-171.9v-104.8
							l-0.2-84.8l-0.4-123.1l-0.7-122.7c0,0,0.1-73.2-2.9-84.7l-10.5-55.9l-26.2-63l-9.2-21.5l-8.6-37.7l-5-50.2l1.2-49.4l8.3-74.7
							l8-93.8l2.7-15l4.8-7.9l7.7,55.6l14.4,91l9.6,52.8l28.5,67.2l23.5,52.7l45.8,87l26.7,46.6c0,0,26.2,31.7,29.5,54.9l9.6,51.2
							l0.8,73.2l0.8,31.9c0,0,7.4,28.2,21.8,8.9c0,0,4.5-15.9,2.5-26.8l-0.2-35.5l2.1-30.5l1-9.1l4.6,40.9l5.5,48
							c0,0,5,42.9,13.1,46.3c0,0,13.9,7.6,19.3-2.6c0,0,2.8-20.2,0-33.7l-5.2-24.3l-3.6-43.7l-2.3-25.5l10.7,47.2
							c0,0,11.7,54.9,12,56.1s10.9,34.5,19.6,29.6c0,0,19.6-1.8,11.1-24.5l-3-18.8l-13.9-59.1l-10.5-33.9l-1.8-6.3l9.9,9.4
							l17.8,53.3l8.2,38.1c0,0,11.5,28.9,28.4,5.7c2.5-9.3,1.7-19.2-2.1-28l-11.3-42.4l-9.5-31.8l-8.1-23.9l-4.5-23.2l19.7,24.4
							c0,0,12.4,13.7,25.5,6.4c0,0,13.5-9,5.7-22.2l-40.8-40.3c0,0-16.5-33.4-35.5-41.2l-35.7-20.9l-14.8-15.3l-9.5-18.5l-18.2-71.7
							l-18.8-63.1l-28.2-85.3c0,0-14-38.7-17.3-41.6l-27.9-84c0,0-5-17-5.5-45.6L887,772l-2.2-50.2l-1.8-57.5c0,0,1-48.3-50.7-89.9
							c0,0-59.2-41.5-100-48.6l-37.7-11c0,0-34.6-17.6-34.6-49.8l-3-30.6l-4.4-35.7l-1.9-15.4c0,0,8-10.7,8.5-11.2
							s26.5-22.7,26.5-22.7l3.5-3.5l2.1-41l5.3-6.9l14.2-19.4l3.6-30.4l2.7-15l-25.4-21.5l-1.5-17.6l1.2-42.3c0,0,12.9-58.4-13.5-90
							C630.5,5.2,523.7-27,465.3,81.3c-10.5,19.4,4.2,46.7-5.5,77.9v52.8L433,233.4l5.7,36.2l0.6,9.2l17.9,24.5l2.6,42.8l38.4,37.3
							l-4.8,38.7l-3.1,25.1c0,0,5.9,58.8-40.1,68.6c-1.7,0.4-66.6,15.7-85.6,29.2s-65.9,28.9-91.4,86.9c-5.8,12.2-8.2,25.7-7.1,39.2
							l-3.2,84l-6.9,109.5l-2.5,27.1L239,944.3l-25.8,64.8l-28,81.3l-27.2,89.8c0,0-16.9,68.1-17.6,69.5s-12.9,23.6-12.9,23.6
							s-26.2,22.8-37.5,26.3c0,0-26.1,9.4-40,38l-3.8,6.8l-44,43.5c0,0-2,30,23.1,21.2l24.2-25.9l5.2-5.6l-3.8,20.2l-7.1,23.2
							l-4.6,13.5l-19.6,64.2c0,0-11.7,32,13.3,37c0,0,13,0.2,14.1-16.2l9.3-38.3l10.9-35.9l8.9-18.8l5.7-5.8l-5.7,25.1l-14.1,52.9
							l-7.8,34.5l-1.9,19.7c0,0,7,21.4,19.5,9.8c1.8-1.6,6.3-6.6,9.9-18.3c0.6-1.8,9.7-36.7,9.7-36.7l2.8-13.2l6-32.4l8.3-34.8
							l-4.1,42.7l-2.4,28.5l-6.1,34.5c0,0-3.9,25.4,9.7,29.6c1.6,0.5,14.7,0,17.4-14.3l6.5-36.1l3-23.4l3.6-40.6l1.1-24l4.8,32
							c0,0,0.4,39.8,0.2,42.4s1,21.8,1,21.8s4.2,13.2,14.3,10.6c0,0,8.4-2.3,9-19.7l1.6-57.1v-36.4l6.9-45.8l10.1-30.7l21.6-34.2
							l40.3-72.5l34.5-65.6l38.3-86.5c0,0,15.8-44,18-58.4l14.5-93.7l11-76l1.7-6.5l4,12.6l3.5,43.4l10.3,93.1l5.4,47.9l-0.7,57.5
							l-3.2,42l-10,40.8c0,0-33,75.4-37.2,95.4c0,0-11.7,59.3-9.5,86.1l-1.5,133.6l-0.5,123.2l-0.2,106.8v281.3l12.7,148.6
							l11.5,139.5c0,0,6.7,78.6,6.7,79.7c-0.2,2-0.6,4-1,6l-10.3,13.4l-1.3,3.3l1.3,6.5L345.5,2412.9z"/>
						<path class="st1" d="M734.3,2575.4c2.4-1.8,5.1-3.1,8-3.8c2.9-0.8,5.9-1,8.9-0.7c0.7,0.1,1.5,0.2,2.2,0.3l1.1,0.2
							c0.4,0.1,0.7,0.2,1.1,0.3l2.2,0.6l2.1,0.9l1,0.4l1,0.6l1.9,1.1c1.2,0.8,2.4,1.8,3.6,2.6l0,0c-1.3-0.7-2.5-1.6-3.8-2.3l-2-1
							l-1-0.5l-1-0.4l-2-0.8l-2.1-0.6c-0.3-0.1-0.7-0.2-1-0.3l-1.1-0.2c-0.7-0.1-1.4-0.2-2.2-0.3c-4.4-0.4-8.7,0.2-12.9,1.7
							C737,2574,735.6,2574.7,734.3,2575.4z"/>
						<path class="st1" d="M728.8,2592.2c0.4,1.5,1.1,2.9,2,4.1c0.9,1.3,2.1,2.3,3.3,3.2c1.3,0.9,2.7,1.5,4.2,1.9
							c0.7,0.2,1.5,0.4,2.3,0.5c0.8,0.1,1.5,0.2,2.3,0.3l0,0c3.7,0.4,7.5,0.4,11.2,0c1.9-0.2,3.7-0.6,5.5-1.1
							c1.8-0.5,3.5-1.3,5.1-2.2l0.1,0.1c-1.6,1-3.4,1.7-5.2,2.2c-1.8,0.5-3.7,0.9-5.5,1.1c-1.9,0.2-3.7,0.3-5.6,0.3
							c-1.9,0-3.8-0.1-5.6-0.3l0,0c-0.8-0.1-1.6-0.1-2.3-0.3c-0.8-0.1-1.5-0.3-2.3-0.5c-1.5-0.4-3-1.1-4.3-2
							c-2.7-1.8-4.6-4.4-5.5-7.5L728.8,2592.2z"/>
						<path class="st2" d="M743.8,2582.9c1.3,0.1,2.5,0.2,3.8,0.2c2.2,0,4.5-0.2,6.6-0.7c1.4-0.2,2.9,0,4.2,0.7
							c0.2,0.1,3.2,1.7,3.7,4.5c0.1,0.8-0.1,0.6-0.2,4.3c0,1.2,0,1.3-0.2,1.6c-0.8,1.4-3.7,0.8-7,0.6c-5.6-0.3-9.1,1-15.2,0.5
							c-1.1-0.1-2.2-0.4-3.2-1c-1.3-0.7-2.3-1.9-2.7-3.4c-0.2-1.1,0.2-2.4,1.6-4c3.3-4,5.4-4.7,5.4-4.7c0.3-0.1,0.7-0.1,1,0
							c0.4,0.1,0.5,0.4,0.9,0.7C742.9,2582.5,743.3,2582.7,743.8,2582.9z"/>
						<polygon class="st1" points="807.3,2576.6 808.4,2577.3 806.8,2578.8 805.7,2578 806.3,2576.9 						"/>
						<path class="st1" d="M814.1,2599.6c3,0.7,6,1,9,1c1.5,0,2.9-0.2,4.4-0.5l1-0.3c0.3-0.1,0.6-0.2,1-0.4c0.3-0.1,0.6-0.3,0.9-0.5
							c0.3-0.2,0.6-0.4,0.9-0.6c2.4-1.6,4.3-3.9,5.6-6.6c1-2.8,1.3-5.8,0.9-8.7l0,0l0.1,0.4c-0.2-0.6-0.5-1.2-0.8-1.7
							s-0.6-1.1-1-1.6c-0.3-0.5-0.7-0.9-1.2-1.4c-0.3-0.3-0.7-0.6-1.2-0.7l0,0l-0.5-0.2l0,0c-0.8-0.6-1.5-1.3-2.2-2
							c-0.7-0.7-1.4-1.4-2-2.2c-0.7-0.8-1.3-1.7-1.8-2.6l-0.4-0.7c-0.1-0.3-0.2-0.6-0.3-0.8c-0.1-0.3-0.1-0.6-0.1-0.9
							c0-0.3,0-0.7,0.1-1v0.2l0.3-3.7c0-1.3,0.2-2.5,0.7-3.7c0.5,1.2,0.7,2.4,0.7,3.7l0.3,3.7v0.2c0.1,0.7,0.3,1.4,0.8,1.9
							c0.5,0.7,1.1,1.4,1.7,2c0.7,0.6,1.3,1.2,2,1.8s1.5,1.2,2.2,1.7l-0.5-0.2l0,0c0.9,0.3,1.7,0.8,2.4,1.5c0.6,0.6,1.1,1.2,1.5,1.9
							c0.4,0.6,0.8,1.3,1.2,1.9s0.7,1.4,0.9,2.1l0.1,0.2v0.2l0,0c0.3,3.4-0.1,6.8-1.2,10c-0.7,1.6-1.6,3.1-2.7,4.4
							c-1.1,1.3-2.3,2.4-3.7,3.4c-0.7,0.6-1.4,1-2.2,1.5c-0.4,0.2-0.8,0.4-1.2,0.5l-1.2,0.4c-1.6,0.4-3.3,0.7-5,0.8
							c-1.7,0.1-3.3,0.1-5,0.1c-1.7-0.1-3.2-0.2-5-0.4L814.1,2599.6z"/>
						<path class="st1" d="M837.7,2592.9c0.6,0.3,1.3,0.6,1.9,0.8c0.7,0.2,1.4,0.4,2.1,0.5c1.4,0.2,2.9,0.2,4.3-0.1
							c0.7-0.1,1.4-0.4,2-0.7c0.7-0.3,1.4-0.7,2-1.1c1.3-0.9,2.6-1.8,3.8-2.8c1.2-1,2.4-2.1,3.5-3.3c0.6-0.6,1.1-1.2,1.6-1.8
							l0.4-0.4l0.3-0.4c0.2-0.3,0.4-0.6,0.6-0.9c0.7-1.2,1-2.6,0.7-3.9c-0.4-1.4-1.2-2.5-2.4-3.4l-0.1-0.1l-0.1-0.1
							c-0.4-0.4-0.8-0.9-1.2-1.3c-0.4-0.4-0.9-0.8-1.4-1.1c-0.9-0.6-1.9-1-3-0.9l-1.2,0.2l0.2-1.1c0-0.5,0-0.9,0-1.4
							c-0.1-0.5-0.2-0.9-0.3-1.3c-0.2-0.4-0.4-0.7-0.8-1c-0.4-0.3-0.8-0.4-1.2-0.5h0.1c-1,0-2-0.4-2.8-1.1c-0.8-0.6-1.3-1.5-1.5-2.5
							c-0.1-0.5-0.2-0.9-0.2-1.4c0-0.5,0-0.9,0.1-1.4c0.1-0.5,0.2-0.9,0.3-1.4l0.4-1.3h0.1l-0.3,1.3c-0.1,0.4-0.1,0.9-0.2,1.4
							c0,0.4,0,0.9,0,1.3c0,0.4,0.1,0.9,0.3,1.3c0.2,0.8,0.7,1.5,1.4,2c0.7,0.4,1.5,0.7,2.3,0.6h0.1c0.6,0.1,1.2,0.3,1.8,0.6
							c0.6,0.4,1,0.8,1.3,1.4c0.3,0.6,0.5,1.1,0.6,1.8c0.1,0.6,0.1,1.2,0.1,1.9l-1-0.9c0.8-0.2,1.6-0.1,2.3,0.1
							c0.7,0.2,1.4,0.5,2,0.9c0.6,0.4,1.1,0.8,1.7,1.2c0.5,0.4,1,0.9,1.5,1.4l-0.2-0.2c1.6,1,2.8,2.6,3.3,4.4
							c0.5,1.9,0.2,3.9-0.7,5.6c-0.2,0.4-0.4,0.8-0.7,1.2c-0.1,0.2-0.3,0.4-0.4,0.6l-0.4,0.5c-0.5,0.6-1.1,1.3-1.6,1.9
							c-1.1,1.2-2.3,2.4-3.5,3.6c-1.3,1.2-2.6,2.2-4,3.2c-0.7,0.5-1.5,0.9-2.2,1.4c-0.8,0.4-1.7,0.8-2.6,1c-1.8,0.5-3.6,0.6-5.5,0.5
							c-0.9-0.1-1.8-0.2-2.7-0.4c-0.9-0.2-1.8-0.5-2.7-0.8L837.7,2592.9z"/>
						<path class="st1" d="M769.6,2574.6c1-2.4,3.1-4,5.7-4.4c2.5-0.2,4.9,0.4,7,1.7c2.1,1.2,4.1,2.7,5.7,4.5c1.6,1.8,3,3.8,4.1,6
							l0,0c0.9,2.7,1.9,5.4,3,8c0.6,1.3,1.1,2.6,1.8,3.9c0.6,1.3,1.5,2.3,2.6,3.2c2.3,1.6,5.1,2.3,7.9,2.1c1.4-0.1,2.7-0.5,3.9-1.3
							c0.6-0.4,1.1-0.8,1.6-1.2c0.5-0.5,1.2-0.9,1.8-1.2c-0.1,0.8-0.5,1.5-1.1,2c-0.6,0.5-1.2,0.9-1.9,1.2c-1.3,0.7-2.8,1.1-4.3,1.3
							c-1.5,0.1-3,0-4.4-0.4c-1.4-0.3-2.8-1-4-1.9c-0.6-0.4-1.2-1-1.6-1.6c-0.5-0.6-0.8-1.2-1.2-1.9c-0.7-1.3-1.2-2.6-1.8-3.9
							c-1.1-2.6-2.1-5.4-3-8.1l0,0c-1-2.1-2.3-4.1-3.9-5.9c-1.5-1.8-3.4-3.4-5.4-4.6c-2-1.3-4.4-1.9-6.7-1.6c-2.3,0.5-4.2,2-5.4,4
							L769.6,2574.6z"/>
						<path class="st1" d="M799,2592.2c0.1-0.7,0.3-1.5,0.6-2.1c0.3-0.7,0.7-1.4,1.3-1.8c0.2-0.1,0.3-0.2,0.5-0.3
							c0.2-0.1,0.4-0.1,0.6-0.1c0.4,0,0.8,0,1.2,0.1c0.7,0.1,1.4,0.1,2.2,0c1.4-0.1,2.8-0.5,4.2-1.1c0.2-0.1,0.3-0.2,0.4-0.2
							l0.2-0.1l0.1-0.1l0,0v-0.1l0.1-0.1c0.1-0.1,0.1-0.1,0.2-0.2c0.1-0.1,0.3-0.1,0.4-0.2c0.2,0,0.4-0.1,0.7-0.1
							c0.8,0,1.6,0.1,2.3,0.3h0.2l0.1,0.3c1,2.4,1.9,4.8,2.8,7.2l0.1,0.3l-0.2,0.2l-1.9,2.3l-0.8-0.6l1.8-2.4l-0.1,0.5
							c-0.9-2.4-1.8-4.8-2.7-7.2l0.3,0.3c-0.7-0.2-1.4-0.3-2.1-0.4H811v0.1c0,0.1-0.1,0.2-0.2,0.2l-0.1,0.1l-0.3,0.2l-0.5,0.3
							c-1.4,0.6-2.9,0.9-4.5,0.9c-0.8,0-1.5,0-2.3-0.1l-0.5-0.1c-0.2,0-0.3,0-0.5,0c-0.2,0-0.3,0-0.5,0.1c-0.2,0-0.3,0.1-0.5,0.2
							c-0.6,0.4-1.1,0.9-1.4,1.6C799.4,2590.7,799.2,2591.5,799,2592.2z"/>
						<path class="st1" d="M820.7,2586.2c0.3-1.6,1.8-2.7,3.4-2.6c0.5,0,1,0.1,1.5,0.1c1,0,1.9-0.3,2.7-0.8c0.8-0.5,1.5-1.1,2.1-1.9
							l-0.1,0.1l0,0c0.3-0.8,0.9-1.5,1.6-2c0.8-0.4,1.8-0.5,2.6-0.1c0.4,0.2,0.7,0.4,1.1,0.6l1,0.6c0.3,0.2,0.7,0.4,1,0.5l0.5,0.2
							h0.1c-0.1,0-0.2,0.1-0.3,0.2c-0.1,0.2,0,0.3,0,0.3l0.9-0.4c0.2,0.3,0.1,0.7-0.2,0.8c0,0,0,0,0,0l0,0c-0.1,0.1-0.2,0.1-0.3,0.1
							c-0.2,0-0.3,0-0.4-0.1c-0.2-0.1-0.4-0.2-0.6-0.3c-0.3-0.2-0.7-0.4-1-0.6l-1-0.6c-0.3-0.2-0.6-0.3-0.9-0.5
							c-0.6-0.3-1.2-0.3-1.8,0c-0.5,0.3-1,0.9-1.2,1.5l-0.1,0.1c-0.7,0.8-1.6,1.4-2.5,1.9c-0.9,0.5-2,0.7-3.1,0.7
							c-0.5,0-1-0.1-1.5-0.2c-1.5-0.2-3,0.7-3.4,2.2L820.7,2586.2z"/>
						<path class="st1" d="M801.2,2594.7c1.2,0.4,2.4,0.8,3.7,1c1.2,0.3,2.5,0.4,3.8,0.3c1.3,0,2.5-0.4,3.6-1
							c1.1-0.7,1.9-1.7,2.5-2.8c-0.5,1.2-1.4,2.2-2.5,2.9c-1.1,0.6-2.4,1-3.6,1c-1.3,0.1-2.6,0-3.8-0.3
							C803.6,2595.6,802.3,2595.2,801.2,2594.7L801.2,2594.7z"/>
						<path class="st1" d="M824.7,2590.3c1.2-0.1,2.5-0.2,3.8-0.2c1.2,0,2.4-0.2,3.6-0.6c1.2-0.3,2.2-0.9,3.2-1.6
							c0.4-0.4,0.8-0.9,1.1-1.4c0.4-0.5,0.3-1.1,1-1.6c0.2,0.7,0,1.4-0.3,1.9c-0.3,0.6-0.7,1.2-1.1,1.7c-1,0.9-2.1,1.6-3.4,2
							c-1.3,0.4-2.6,0.6-3.9,0.6c-1.3,0.1-2.6-0.1-3.8-0.6L824.7,2590.3z"/>
						<path class="st1" d="M853,2571.4c-0.5,1.2-1.1,2.2-2,3.1c-0.9,0.9-2.1,1.5-3.3,1.6c-0.6,0.1-1.2,0.1-1.8,0.1
							c-0.5,0-1,0.2-1.3,0.5c-0.5,1-0.5,2.1,0.1,3.1c0.4,1,1.3,1.9,2.4,2.2c1.1,0.4,2.3,0.4,3.4,0.2c2.3-0.3,4.4-1.6,5.8-3.6
							c-1.3,2.1-3.3,3.5-5.7,3.9c-1.2,0.3-2.4,0.2-3.6-0.1c-1.2-0.4-2.2-1.2-2.7-2.4c-0.3-0.6-0.5-1.2-0.5-1.8
							c-0.1-0.7,0-1.3,0.4-1.9c0.4-0.5,1.1-0.9,1.8-0.9c0.6-0.1,1.2-0.1,1.7-0.2c1.1-0.2,2.1-0.7,2.8-1.5c0.8-0.8,1.3-1.8,1.7-2.9
							L853,2571.4z"/>
						<path class="st1" d="M864,2558.3c-1.8,0-3.5,0.5-5,1.4c-0.8,0.4-1.5,1-2.1,1.6c-0.6,0.6-1.1,1.3-1.6,2.1v-0.2l0,0
							c0.3,1.4,1.2,2.7,2.5,3.3c0.7,0.2,1.4,0.2,2.1,0c0.3-0.1,0.7-0.2,1-0.4l1-0.5l-0.1,0.1l0,0c0.2-0.6,0.5-1.1,0.8-1.6
							c0.3-0.5,0.7-0.9,1.2-1.3c0.5-0.4,1.1-0.6,1.7-0.6c0.6-0.1,1.2-0.1,1.7,0.1v0.1c-0.6,0.2-1.1,0.2-1.7,0.1
							c-0.5,0-1.1,0.2-1.5,0.6c-0.8,0.7-1.4,1.7-1.7,2.8l0,0v0.1h-0.1l-1,0.6c-0.4,0.1-0.7,0.3-1.1,0.4c-1.6,0.6-3.4-0.1-4.3-1.5
							c-0.5-0.7-0.8-1.4-1-2.2l0,0v-0.1l0.1-0.1c0.4-0.8,1-1.6,1.6-2.3c0.6-0.7,1.4-1.3,2.2-1.8c0.8-0.5,1.7-0.9,2.6-1.2
							c0.9-0.3,1.9-0.5,2.8-0.5L864,2558.3z"/>
						<path class="st2" d="M728.7,2513.6c0,0,16.4,26.9,11.4,59.1"/>
						<path class="st1" d="M415.3,2575.4c-2.6-1.4-5.3-2.4-8.2-3c-2.8-0.6-5.8-0.8-8.7-0.5c-0.7,0.1-1.4,0.1-2.1,0.3l-1.1,0.2
							c-0.4,0.1-0.7,0.2-1.1,0.3l-2.1,0.6l-2,0.8l-1,0.4l-1,0.5l-2,1c-1.3,0.7-2.5,1.5-3.8,2.3l0,0c1.2-0.9,2.3-1.8,3.6-2.6l1.9-1.1
							c0.3-0.2,0.6-0.4,1-0.6l1-0.4l2.1-0.9l2.1-0.6c0.4-0.1,0.7-0.2,1.1-0.3l1.1-0.2c0.7-0.2,1.5-0.3,2.2-0.3c3-0.3,6-0.1,8.9,0.7
							C410.2,2572.4,412.9,2573.7,415.3,2575.4z"/>
						<path class="st1" d="M421.4,2592.3c-0.4,1.6-1.2,3.1-2.2,4.4c-1,1.3-2.2,2.4-3.5,3.3c-1.4,0.9-2.8,1.6-4.4,2
							c-0.8,0.2-1.5,0.4-2.3,0.5s-1.6,0.2-2.4,0.3l0,0c-1.9,0.2-3.8,0.3-5.7,0.3c-1.9,0-3.8-0.1-5.7-0.3c-1.9-0.2-3.7-0.6-5.6-1.1
							c-1.8-0.5-3.6-1.3-5.2-2.3l0.3-0.5c1.6,0.9,3.3,1.7,5.1,2.2c1.8,0.5,3.6,0.8,5.5,1c1.9,0.2,3.7,0.3,5.6,0.3
							c1.9,0,3.7-0.1,5.6-0.3l0,0c0.8-0.1,1.5-0.2,2.3-0.3c0.8-0.1,1.5-0.3,2.2-0.5c1.5-0.4,2.8-1.1,4.1-1.9
							c1.3-0.8,2.3-1.9,3.2-3.1c0.9-1.2,1.6-2.6,2-4L421.4,2592.3z"/>
						<path class="st2" d="M405.8,2582.9c-1.3,0.1-2.5,0.2-3.8,0.2c-2.2,0-4.5-0.2-6.6-0.7c-1.4-0.2-2.9,0.1-4.2,0.7
							c-0.2,0.1-3.2,1.7-3.7,4.5c-0.1,0.8,0.1,0.6,0.2,4.3c0,1.2,0,1.3,0.2,1.6c0.8,1.4,3.7,0.8,7,0.6c5.6-0.3,9.1,1,15.2,0.5
							c1.1-0.1,2.2-0.4,3.2-1c1.3-0.7,2.3-1.9,2.7-3.4c0.2-1.1-0.2-2.4-1.6-4c-3.3-4-5.4-4.7-5.4-4.7c-0.3-0.1-0.7-0.1-1,0
							c-0.4,0.1-0.5,0.4-0.9,0.7C406.7,2582.5,406.3,2582.7,405.8,2582.9z"/>
						<polygon class="st1" points="342.3,2576.6 341.2,2577.3 342.8,2578.8 343.9,2578 343.3,2576.9 						"/>
						<path class="st1" d="M336.2,2603.5c-1.7,0.2-3.3,0.4-5,0.4c-1.6,0.1-3.3,0.1-4.9-0.1c-1.7-0.1-3.4-0.4-5-0.8l-1.2-0.4
							c-0.4-0.1-0.8-0.4-1.2-0.5c-0.8-0.4-1.6-0.9-2.2-1.5c-1.3-1-2.6-2.2-3.7-3.4c-1.1-1.3-2-2.8-2.7-4.4c-1.2-3.2-1.6-6.6-1.2-10
							l0,0v-0.2l0.1-0.2c0.6-1.4,1.3-2.7,2.1-4c0.4-0.7,0.9-1.3,1.5-1.9c0.7-0.7,1.5-1.2,2.4-1.5l0,0l-0.5,0.2
							c0.7-0.5,1.5-1.1,2.1-1.7s1.4-1.2,2-1.8c0.6-0.6,1.2-1.3,1.7-2c0.4-0.5,0.7-1.2,0.8-1.9v-0.2l0.3-3.7c0-1.3,0.2-2.5,0.7-3.7
							c0.4,1.2,0.7,2.4,0.7,3.7l0.3,3.7v-0.2c0.1,0.3,0.1,0.7,0.1,1c0,0.3-0.1,0.6-0.1,0.9s-0.2,0.6-0.3,0.8l-0.4,0.7
							c-0.5,0.9-1.1,1.8-1.8,2.6c-0.6,0.8-1.3,1.5-2,2.2s-1.5,1.4-2.2,2l0,0l-0.5,0.2l0,0c-0.4,0.1-0.8,0.4-1.1,0.7
							c-0.4,0.4-0.8,0.9-1.2,1.4c-0.4,0.5-0.7,1.1-1,1.6c-0.3,0.6-0.6,1.2-0.9,1.7l0.1-0.4l0,0c-0.4,2.9-0.1,5.9,0.9,8.7
							c1.2,2.7,3.1,5,5.5,6.6c0.3,0.2,0.6,0.4,0.9,0.6c0.3,0.2,0.6,0.3,0.9,0.5c0.3,0.1,0.6,0.3,1,0.4l1,0.3
							c1.4,0.3,2.9,0.5,4.4,0.5c3,0,6-0.3,9-1L336.2,2603.5z"/>
						<path class="st1" d="M313.6,2596.5c-0.9,0.4-1.8,0.6-2.7,0.8c-0.9,0.2-1.8,0.3-2.7,0.4c-1.8,0.1-3.7,0-5.5-0.5
							c-0.9-0.2-1.8-0.6-2.6-1c-0.8-0.4-1.5-0.9-2.2-1.4c-1.4-1-2.8-2-4-3.2c-1.2-1.1-2.4-2.3-3.5-3.6c-0.6-0.6-1.1-1.3-1.6-1.9
							l-0.4-0.5c-0.1-0.2-0.3-0.4-0.4-0.6c-0.3-0.4-0.5-0.8-0.7-1.2c-0.9-1.7-1.2-3.7-0.7-5.6c0.6-1.8,1.7-3.4,3.3-4.4l-0.2,0.2
							c0.5-0.5,1-1,1.5-1.4c0.5-0.4,1.1-0.8,1.7-1.2c0.6-0.4,1.3-0.7,2-0.9c0.8-0.2,1.5-0.2,2.3-0.1l-1,0.9c0-0.6,0-1.2,0.1-1.9
							c0.1-0.6,0.3-1.2,0.6-1.8c0.3-0.6,0.8-1.1,1.3-1.4c0.5-0.3,1.2-0.6,1.8-0.6h0.1c0.8,0,1.6-0.2,2.3-0.6c0.7-0.5,1.2-1.2,1.4-2
							c0.1-0.4,0.2-0.9,0.3-1.3v-1.3c0-0.5-0.1-0.9-0.1-1.4l-0.3-1.3h0.1l0.4,1.3c0.1,0.4,0.2,0.9,0.3,1.4c0.1,0.5,0.1,0.9,0.1,1.4
							c0,0.5,0,1-0.1,1.4c-0.2,1-0.7,1.9-1.5,2.5c-0.8,0.7-1.8,1-2.8,1.1h0.1c-0.4,0.1-0.8,0.3-1.2,0.5c-0.3,0.3-0.6,0.6-0.8,1
							c-0.2,0.4-0.3,0.9-0.3,1.3c-0.1,0.5-0.1,0.9,0,1.4l0.2,1.1l-1.2-0.2c-1.1-0.1-2.1,0.2-3,0.9c-0.5,0.3-1,0.7-1.4,1.1
							c-0.4,0.4-0.8,0.8-1.2,1.3l-0.1,0.1l-0.1,0.1c-1.2,0.8-2,2-2.4,3.4c-0.2,1.7,0.2,3.4,1.2,4.8l0.3,0.4l0.4,0.4
							c0.5,0.6,1.1,1.2,1.6,1.8c1.1,1.1,2.3,2.2,3.5,3.3c1.2,1,2.4,2,3.8,2.8c0.6,0.4,1.3,0.8,2,1.1c0.6,0.3,1.3,0.5,2,0.7
							c1.4,0.3,2.9,0.3,4.3,0.1c0.7-0.1,1.4-0.3,2.1-0.5c0.7-0.2,1.3-0.5,1.9-0.8L313.6,2596.5z"/>
						<path class="st1" d="M379.6,2574.7c-1.1-2-3.1-3.5-5.4-4c-2.4-0.2-4.7,0.3-6.7,1.6c-2.1,1.2-3.9,2.8-5.4,4.6
							c-1.6,1.8-2.8,3.8-3.9,5.9l0,0c-0.9,2.8-1.9,5.5-3,8.1c-0.6,1.3-1.1,2.6-1.8,4c-0.3,0.7-0.7,1.3-1.2,1.9
							c-0.5,0.6-1,1.1-1.6,1.6c-1.2,0.9-2.6,1.5-4,1.9c-1.4,0.4-2.9,0.5-4.4,0.4c-1.5-0.2-2.9-0.6-4.3-1.3c-0.7-0.4-1.3-0.8-1.9-1.4
							c-0.6-0.5-1-1.2-1.1-2c0.7,0.3,1.3,0.7,1.8,1.2c0.5,0.4,1.1,0.9,1.6,1.2c1.2,0.7,2.5,1.2,3.9,1.3c2.8,0.2,5.6-0.5,7.9-2.1
							c1.1-0.8,2-1.9,2.6-3.2c0.7-1.2,1.2-2.6,1.8-3.9c1.1-2.7,2.1-5.3,3-8l0,0c1.1-2.2,2.5-4.2,4.1-6c1.6-1.8,3.5-3.4,5.7-4.5
							c2.1-1.3,4.5-1.9,7-1.7c2.5,0.3,4.7,2,5.7,4.4L379.6,2574.7z"/>
						<path class="st1" d="M350.6,2592.2c-0.2-0.7-0.4-1.4-0.7-2.1c-0.3-0.8-1-1.5-1.9-1.8c-0.3-0.1-0.7-0.1-1-0.1l-0.5,0.1
							c-0.7,0.1-1.5,0.2-2.3,0.1c-1.5-0.1-3-0.4-4.5-0.9c-0.2-0.1-0.4-0.2-0.5-0.3c-0.1,0-0.2-0.1-0.3-0.2l-0.1-0.1
							c-0.1-0.1-0.1-0.2-0.2-0.2v-0.1h-0.1c-0.2,0-0.3,0-0.5,0c-0.7,0.1-1.4,0.2-2.1,0.4l0.4-0.3c-0.9,2.4-1.8,4.8-2.7,7.2l-0.1-0.5
							l1.8,2.4l-0.8,0.6l-1.9-2.3l-0.2-0.2l0.1-0.3c0.9-2.4,1.9-4.8,2.8-7.2l0.1-0.3h0.2c0.8-0.2,1.5-0.3,2.3-0.3
							c0.2,0,0.4,0,0.6,0.1c0.1,0,0.3,0.1,0.4,0.2c0.1,0.1,0.1,0.1,0.2,0.2l0.1,0.1v0.1l0,0l0.1,0.1l0.2,0.1
							c0.1,0.1,0.3,0.2,0.4,0.2c1.3,0.6,2.7,0.9,4.1,1.1c0.7,0.1,1.4,0.1,2.1,0c0.4-0.1,0.8-0.1,1.2-0.1c0.2,0,0.4,0.1,0.6,0.1
							c0.2,0.1,0.4,0.2,0.5,0.3c0.6,0.4,1.1,1,1.4,1.7C350.3,2590.7,350.5,2591.4,350.6,2592.2z"/>
						<path class="st1" d="M328.9,2586.2c-0.4-1.5-1.9-2.5-3.4-2.2c-0.5,0.1-1,0.2-1.5,0.2c-1.1,0.1-2.1-0.2-3.1-0.7
							c-1-0.5-1.8-1.1-2.5-1.9l-0.1-0.1c-0.2-0.6-0.6-1.1-1.2-1.5c-0.6-0.3-1.2-0.3-1.8,0c-0.3,0.1-0.6,0.3-0.9,0.5l-1,0.6
							c-0.3,0.2-0.7,0.4-1,0.6c-0.2,0.1-0.4,0.2-0.6,0.3c-0.1,0-0.3,0.1-0.4,0.1c-0.3,0-0.6-0.2-0.6-0.6c0,0,0,0,0,0
							c0-0.1,0-0.2,0.1-0.3l0.9,0.4c0-0.1,0-0.2,0-0.3c-0.1-0.1-0.2-0.2-0.3-0.2h0.1l0.5-0.2c0.3-0.2,0.6-0.4,1-0.5l1-0.6
							c0.3-0.2,0.7-0.4,1.1-0.6c0.8-0.4,1.8-0.3,2.6,0.1c0.8,0.5,1.3,1.2,1.6,2l0,0l-0.1-0.1c0.6,0.8,1.3,1.4,2.1,1.9
							c0.8,0.5,1.7,0.8,2.7,0.8c0.5,0,1-0.1,1.5-0.1c0.5,0,1.1,0.1,1.5,0.3C328,2584.4,328.6,2585.2,328.9,2586.2z"/>
						<path class="st1" d="M348.4,2594.8c-1.1,0.8-2.3,1.3-3.6,1.5c-1.3,0.3-2.6,0.4-3.9,0.3c-1.3-0.1-2.7-0.5-3.8-1.2
							c-0.6-0.4-1.1-0.8-1.5-1.4c-0.5-0.5-0.8-1.1-0.8-1.8c0.7,0.3,0.8,1,1.3,1.4c0.4,0.4,0.9,0.8,1.4,1.1c1.1,0.5,2.2,0.8,3.4,0.9
							c1.2,0.1,2.4,0,3.6-0.3c1.2-0.3,2.5-0.5,3.7-0.6L348.4,2594.8z"/>
						<path class="st1" d="M325,2590.5c-1.2,0.5-2.5,0.7-3.8,0.6c-1.3,0-2.6-0.2-3.9-0.6c-1.3-0.4-2.5-1.1-3.4-2
							c-0.5-0.5-0.9-1-1.1-1.7c-0.4-0.6-0.5-1.3-0.3-1.9c0.6,0.5,0.6,1.1,1,1.6c0.3,0.5,0.7,1,1.1,1.4c0.9,0.8,2,1.3,3.1,1.6
							c1.2,0.3,2.4,0.5,3.6,0.6c1.3,0,2.5,0.1,3.8,0.2L325,2590.5z"/>
						<path class="st1" d="M297.5,2571.1c0.4,1.1,0.9,2,1.7,2.9c0.8,0.8,1.8,1.3,2.8,1.5c0.5,0.1,1.1,0.1,1.7,0.2
							c0.7,0,1.3,0.3,1.8,0.9c0.4,0.6,0.5,1.2,0.4,1.9c-0.1,0.6-0.3,1.2-0.5,1.8c-0.5,1.1-1.5,2-2.7,2.4c-1.2,0.3-2.4,0.4-3.6,0.1
							c-2.4-0.4-4.5-1.8-5.7-3.9c1.3,2,3.4,3.3,5.8,3.6c1.1,0.2,2.3,0.1,3.4-0.2c1.1-0.4,1.9-1.2,2.4-2.2c0.5-1,0.6-2.1,0.1-3.1
							c-0.3-0.4-0.8-0.6-1.3-0.5c-0.6,0-1.2,0-1.8-0.1c-1.3-0.2-2.4-0.7-3.3-1.6c-0.9-0.9-1.6-1.9-2-3.1L297.5,2571.1z"/>
						<path class="st1" d="M285.6,2557.3c1,0.1,1.9,0.2,2.8,0.5c0.9,0.3,1.8,0.7,2.6,1.2c0.8,0.5,1.5,1.1,2.2,1.8
							c0.6,0.7,1.2,1.5,1.6,2.3l0.1,0.1v0.1l0,0c-0.2,0.8-0.5,1.5-1,2.2c-0.9,1.4-2.7,2-4.3,1.5c-0.4-0.1-0.7-0.3-1.1-0.4l-1-0.6
							h-0.1v-0.1l0,0c-0.3-1.1-0.9-2-1.8-2.8c-0.4-0.3-0.9-0.5-1.5-0.6c-0.6,0.1-1.2,0.1-1.7-0.1v-0.1c0.6-0.1,1.1-0.2,1.7-0.1
							c0.6,0,1.2,0.2,1.7,0.6c0.5,0.4,0.9,0.8,1.2,1.3c0.3,0.5,0.6,1,0.8,1.6l0,0l-0.1-0.1l1,0.6c0.3,0.1,0.7,0.3,1,0.4
							c0.7,0.2,1.4,0.2,2.1,0c1.3-0.7,2.2-1.9,2.5-3.3l0,0v0.2c-0.4-0.8-1-1.5-1.6-2.1c-0.6-0.6-1.3-1.2-2-1.6
							c-1.5-0.9-3.2-1.3-5-1.4L285.6,2557.3z"/>
						<path class="st2" d="M420.9,2513.6c0,0-16.4,26.9-11.4,59.1"/>
						<path class="st2" d="M1090.2,1515.5c-3.2-0.2-6.3,0.3-9.2,1.7c-4.1,2.2-12.3,11.3-18.1,9.4"/>
						<path class="st2" d="M1079.1,1475.1c-3-0.9-6.2-0.5-8.9,1c-4.3,2.6-10.4,8.9-15.9,9.6"/>
						<path class="st2" d="M1072.3,1416.9c0,0,13.5,14.5,19.8,41.3s13.3,52.2,13.3,52.2s5.6,22.9,13,22.9"/>
						<path class="st2" d="M1113.4,1454.4c0,0-7.5,1.2-12.3,5.6s-9.6,10.9-10.9,10.4"/>
						<path class="st3" d="M1127.1,1494.2c0,0-6.8,1.9-11.1,6.3s-10.6,11.6-16.2,12"/>
						<path class="st1" d="M1101.1,1344.4c-1.1,0.5-2.2,1.1-3.2,1.9c-1,0.8-1.9,1.8-2.7,2.8c-1.6,2.1-2.7,4.5-3.4,7.1
							c-0.7,2.6-1.2,5.2-1.3,7.9c0,1.3-0.1,2.7,0,4l0.3,4l-0.7,0.1l-0.4-4.1c-0.1-1.3-0.1-2.7-0.1-4.1c0-2.8,0.4-5.5,1.1-8.2
							c0.6-2.8,1.8-5.4,3.4-7.7c0.8-1.2,1.8-2.2,2.8-3.2c1.1-1,2.3-1.8,3.7-2.4L1101.1,1344.4z"/>
						<path class="st2" d="M1106.6,1392v-3.8c3.9-17.1,17.4-19.1,17.4-19.1h3.4"/>
						<path class="st2" d="M178.4,1359.6c-5.9,7.5-10.8,15.7-14.6,24.5c-11.7,27.4-9.1,52.9-6.8,65.4c2.6,24.7,5.2,49.3,7.7,74"/>
						<path class="st2" d="M166.8,1458.2c0,0-15.5,4.8-21.8,12.1"/>
						<path class="st2" d="M166.8,1498.8c0,0-15.3,0-23.2,6.3"/>
						<path class="st1" d="M155.1,1416c-2.2,1.5-4.7,2.8-7.2,3.7c-2.5,1-5,2-7.6,2.9c-5.1,1.8-10.4,3.1-15.7,4
							c-5.4,0.8-10.8,1.1-16.2,0.8c-2.7-0.2-5.4-0.5-8.1-1.1c-2.8-0.5-5.4-1.5-7.8-3l0.2,0.1c-6-2.7-12.1-5.4-18.1-8.1
							c-3-1.4-5.9-2.9-8.9-4.2c-1.5-0.7-3-1.3-4.5-1.9c-0.8-0.3-1.5-0.6-2.3-0.8s-1.4-0.7-2.2-1.1c0.4-0.2,0.9-0.3,1.3-0.3
							c0.4,0,0.9,0,1.3,0.1c0.8,0.2,1.6,0.4,2.4,0.7c1.6,0.6,3.1,1.2,4.6,1.8c3.1,1.3,6.1,2.6,9.1,4c6.1,2.6,12.1,5.2,18.1,7.9h0.1
							l0.1,0.1c2.2,1.3,4.6,2.2,7.1,2.7c2.6,0.5,5.2,0.9,7.8,1.1c5.3,0.6,10.6,0.4,15.8-0.6c5.2-1,10.4-2.3,15.4-3.9
							c2.5-0.8,5.1-1.7,7.6-2.5s5.1-1.8,7.6-2.5L155.1,1416z"/>
						<path class="st2" d="M131.1,1424.3L119.4,1529c0,0-3,27.7-8.9,30.9"/>
						<path class="st2" d="M126.4,1521.7c-3.5-2.4-7.9-2.8-11.8-1.2c-7,2.7-15.2,6-15.2,6"/>
						<path class="st2" d="M131.1,1477.5c0,0-3.6-3.1-10.3,0s-16.1,8.2-16.1,8.2"/>
						<path class="st2" d="M104.6,1426.6c0,0-12.6,32.9-15.4,54.4l-9.9,45.6c0,0-6.8,30.2-15.9,34.8l-2.7,1.6"/>
						<path class="st2" d="M58.5,1515.5c3.2-0.2,6.3,0.3,9.2,1.7c4.1,2.2,12.3,11.3,18.1,9.4"/>
						<path class="st2" d="M69.6,1475.1c3-0.9,6.2-0.5,8.9,1c4.3,2.6,10.4,8.9,15.9,9.6"/>
						<path class="st2" d="M76.4,1416.9c0,0-13.5,14.5-19.8,41.3s-13.3,52.2-13.3,52.2s-5.5,22.9-13,22.9"/>
						<path class="st2" d="M35.3,1454.4c0,0,7.5,1.2,12.3,5.6s9.6,10.9,10.9,10.4"/>
						<path class="st2" d="M21.6,1494.2c0,0,6.8,1.9,11.1,6.3s10.6,11.6,16.2,12"/>
						<path class="st1" d="M48.2,1342.5c1.4,0.6,2.6,1.4,3.7,2.4c1.1,1,2,2,2.8,3.2c1.6,2.3,2.7,4.9,3.4,7.7c0.7,2.7,1,5.4,1.1,8.2
							c0,1.4,0,2.8-0.1,4.1l-0.4,4.1l-0.7-0.1l0.3-4v-4c-0.2-2.7-0.6-5.3-1.3-7.9c-0.7-2.5-1.9-4.9-3.4-7c-0.8-1-1.7-2-2.7-2.8
							c-1-0.8-2-1.4-3.2-1.9L48.2,1342.5z"/>
						<path class="st2" d="M42.1,1392v-3.8c-3.9-17.1-17.4-19.1-17.4-19.1h-3.4"/>
						<path class="st2" d="M108.2,1291.1c0,0,5.1,16.4-3.6,31.2c0,0-15.9,19.8-20.3,23.7s-23.5,18.3-25.6,24.4"/>
						<path class="st2" d="M177.1,1361.4c0,0-8.7-0.5-13.5,1.7s-14.2,7.2-22.9,6h-11.3c-6.1,0-10-0.1-12.6-0.2
							c-5.2-0.1-12.8-0.1-22.7,0.3c-10.4-1.8-21.2,0-30.4,5.2l-9.2,6.3"/>
						<path class="st2" d="M57.5,1377.7c16,9.8,34.7,14.2,53.5,12.7c32.8-2.8,52.8-23.2,57.5-28.3"/>
						<path class="st1" d="M111.7,1289.9c1-0.2,2.1-0.4,3.2-0.4c1.1-0.1,2.2-0.1,3.2-0.1c2.2,0,4.3,0.1,6.5,0.3
							c4.3,0.5,8.5,1.6,12.6,3.2c8.1,3.3,15.1,8.6,20.6,15.3c2.8,3.3,5.2,6.9,7.3,10.7c2.1,3.8,3.9,7.7,5.5,11.7
							c3,8.1,5.3,16.5,6.7,25l0,0c0,1.9,0,3.9-0.1,5.8H177c-0.1-1.9-0.1-3.9-0.1-5.8l0,0c-1.5-8.5-3.7-16.8-6.7-24.9
							c-1.6-4-3.4-7.9-5.5-11.7c-2.1-3.8-4.5-7.3-7.3-10.6c-8.1-10.2-20-16.8-32.9-18.3c-2.1-0.2-4.3-0.3-6.4-0.3
							c-1.1,0-2.1,0-3.2,0.1c-1.1,0.1-2.2,0.2-3.3,0.2L111.7,1289.9z"/>
						<path class="st4" d="M713.5,230.5l3.5-11.7c0,0-17.4-2.2-13.4-40.6c0,0,22.8-79,27.2-84c0,0-22.5-21-31.9-36.2
							c0,0-15.7-18.8-40.8-14.5c0,0-6.4-5.1-6.7-9.4l-10.5-19.6c0,0-37.4-19.6-79.9-10.9c0,0-42.2,11.6-50.3,18.8
							c0,0-34.9,36.2-63.2,42.7c0,0-27.5,13-21.8,34.8c0,0,2.9,17.4,12.3,31.9c0,0,7.1,17.5-5.1,27.9c0,0-7.2,11.2,6.6,18.4
							c-1.1,9.9,1.3,19.9,6.8,28.2c0,0,4.8,11.4-7.5,22l18.3-15l2.7-30v-24.4c0,0,12-7.6,10-35.1c0,0-11.9-28.2,7.9-30.4
							c0,0,7.1,12.3,38.1-2.9c0,0,21.3,15.4,47.3,3.6c3.2-1.4,19.1-4.3,44.5-23.2c0,0,16.9,13,24.7,39.8c0,0,3.5,37.7,30.7,48.2
							c0,0,22.8,5.4,27.2-12.7v65.4l8.7,6.7L713.5,230.5z"/>
						<path class="st5" d="M607.5,71.1c0,0,25.6-19.6,31.6-18.8S607.4,16,582.5,26.2c0,0-14.9,4.4-22.8,9.4s-68.5,58-80.2,47.1
							c0,0-9-7.2-6,5.1s28.7,5.1,28.7,5.1l63.2-33.1C565.4,59.7,600.3,53,607.5,71.1z"/>
						<path class="st5" d="M572.8,58.8c0,0-6.5,16.3-27.5,23.2c0,0-19.1,9.8-24.9,8.3s15.8,12.7,42.7,2.5c0,0,29.4-9.8,43.8-23.2
							C606.9,69.7,602.5,55.1,572.8,58.8z"/>
						<path class="st5" d="M639.8,53.7c0,0,14,3.6,19.9,35.8c0,0-1.6,38.8,20.4,50c0,0,9.3,7.6,14.8,2.5c0,0-5.8,19.3-27.5,17.8
							c0,0-26.3-3.3-34.4-44.4c0,0-4.7-25.9-26.1-45.8l14.1-8.2l13.1-7.8l5.7-2.9L639.8,53.7z"/>
						<path class="st5" d="M647.6,50.8c0,0,5.9,8.3,13.9,11.2c0,0,10.5,7.2,16.3,23.5l9,37.7c0,0,2.5,24.6,8,26.4l12-44.3
							c0,0-9.7-29-34.8-47.2c-2.2-1.6-21.2-9.2-21.2-9.2L647.6,50.8z"/>
						<path class="st5" d="M503.6,29.4c0,0,8.3,14.1-16.3,30.3c0,0-28.2,7.8-29.3,32.1v18.5c0,0-13.4-0.3-14.9,5.3
							c0,0-10.8-17.8,0-35c6.1-9.4,14.5-17.1,24.4-22.3c16.2-8.5,25.2-18.2,25.2-18.2L503.6,29.4z"/>
						<path class="st5" d="M441,122.2c0,0-3.3-12,17-12c1.8,0,7.1,1.5,9.5,8.7s3.4,30.1-7.8,43.1l-19,16.3c0,0-14.9-3.6-7.8-18.4
							l6.4-10.2l0.8-5.4l-1.2-9.7L441,122.2z"/>
						<path class="st5" d="M459.7,63c0,0-37.6,6.3-34,37.1l9.8,27.7l2.8,2.7l1.5-3.3l1.4-9.9l1.3-2.8c0,0-6.7-13.4-3.1-25.9
							C440,87,446.6,68,459.7,63z"/>
						<path class="st1" d="M805.8,2565.3c-1.2,1.8-1.6,4-1,6.1c0.3,1.1,0.8,2,1.5,2.9c0.3,0.5,0.7,0.9,1.1,1.3
							c0.2,0.2,0.4,0.4,0.6,0.6l0.3,0.3l0.2,0.1h0.1l-0.1-0.1c-0.9-0.6-2.1-0.4-2.7,0.5c-0.1,0.2-0.2,0.4-0.3,0.5
							c-0.1,0.2-0.1,0.4-0.1,0.6l3.1-1.6c3,2.3,5.5,5.2,7.3,8.5c1.8,3.4,2.7,7.2,2.6,11v0.4c-0.5,1.9-1.3,3.7-2.5,5.2
							c-1.2,1.6-2.8,2.9-4.6,3.7c-1.8,0.8-3.7,1.3-5.7,1.4c-1.9,0.1-3.8-0.2-5.7-0.8H800c-11.2-5-19.4-14.9-22.2-26.9l0.1,0.2
							c-0.3-0.9-0.9-1.7-1.7-2.2c-0.7-0.5-1.7-0.7-2.5-0.6c-0.4,0.1-0.7,0.2-1,0.5c-0.3,0.3-0.6,0.6-0.8,1c-0.4,0.9-0.5,1.8-0.3,2.8
							l-0.2-0.5c3.2,5.5,4.3,11.9,3.2,18.1c-0.1,0.8-0.3,1.6-0.6,2.3l-0.5,1.2c-0.2,0.4-0.4,0.8-0.6,1.1c-0.4,0.7-0.9,1.4-1.5,2
							c-0.3,0.3-0.6,0.6-0.9,0.9c-0.3,0.3-0.6,0.6-0.9,0.8c-2.5,1.9-5.4,3.3-8.4,4.2c-2.9,0.8-6,1.3-9,1.5c-3,0.2-6,0.2-9-0.1
							c-1.5-0.1-3.1-0.3-4.6-0.6l-2.3-0.6c-0.4-0.1-0.8-0.2-1.1-0.4l-1.1-0.5c-2.9-1.4-5.4-3.6-7.1-6.4c-1.7-2.8-2.5-5.9-2.5-9.2
							c0-3.2,0.9-6.4,2.6-9.2c0.8-1.1,1.4-2.3,2-3.6c0.5-1.2,0.8-2.5,1-3.8c0.3-2.6-0.2-5.5-0.2-8.5v-4.4c0-1.4-0.2-2.8-0.4-4.2
							c-0.2-1.4-0.5-2.8-0.8-4.1s-0.8-2.8-1.2-4.2c-1.5-5.7-2.5-11.6-2.9-17.5v-0.2l1.5-35.6c0.2-5.9,0.5-11.9,0.7-17.8
							c0.1-3,0.1-5.9,0.3-8.9s0.3-5.9,1.7-8.9c1.2,3,1,6,1,9s-0.2,5.9-0.4,8.9c-0.3,5.9-0.5,11.9-0.7,17.8l-1.3,35.6v-0.2
							c0.4,5.7,1.4,11.4,2.9,17c0.3,1.4,0.8,2.7,1.2,4.2c0.4,1.5,0.7,2.9,0.9,4.4c0.2,1.5,0.4,3,0.4,4.5s0,3.1,0.1,4.4
							s0.2,2.8,0.3,4.3c0.2,1.5,0.2,3.1,0,4.6c-0.2,1.6-0.6,3.2-1.2,4.6c-0.6,1.4-1.4,2.8-2.2,4.1c-2.8,4.6-2.8,10.4,0,15
							c1.4,2.2,3.4,4,5.8,5.1l0.9,0.4c0.3,0.2,0.6,0.3,0.9,0.4l1.9,0.5c1.4,0.2,2.7,0.4,4.1,0.5c2.8,0.2,5.7,0.2,8.5,0
							c2.8-0.2,5.6-0.6,8.3-1.4c2.6-0.7,5-1.9,7.2-3.6c0.3-0.2,0.5-0.4,0.7-0.6l0.7-0.7c0.4-0.5,0.8-1,1.1-1.5
							c0.2-0.3,0.3-0.5,0.4-0.8l0.3-0.8c0.2-0.6,0.3-1.3,0.5-1.9c1-5.4,0-11-2.8-15.7l-0.1-0.2l-0.1-0.3c-0.4-1.7-0.2-3.5,0.6-5.1
							c0.4-0.8,1-1.6,1.7-2.2c0.8-0.6,1.7-1,2.6-1.2c1.8-0.3,3.6,0.1,5.2,1.1c1.5,0.9,2.6,2.4,3.2,4v0.2c1.3,5.3,3.8,10.3,7.3,14.5
							c3.5,4.2,8,7.6,13,9.8l-0.2-0.1c1.4,0.4,2.8,0.6,4.3,0.6c1.4,0,2.8-0.4,4.1-1c1.3-0.6,2.3-1.5,3.2-2.6
							c0.9-1.1,1.5-2.5,1.8-3.8v0.4c0-3.2-0.7-6.3-2.2-9.1c-1.5-2.8-3.7-5.2-6.2-7.1l3.2-1.6c0,0.2,0,0.4-0.1,0.6
							c-0.4,1-1.5,1.6-2.5,1.2c-0.2-0.1-0.3-0.1-0.5-0.2l-0.2-0.1l-0.1-0.1l-0.2-0.2l-0.4-0.4c-0.3-0.2-0.6-0.5-0.8-0.8
							c-0.5-0.5-1-1.1-1.5-1.7c-1-1.2-1.7-2.7-2.1-4.2c-0.4-1.6-0.5-3.2-0.3-4.8c0.3-1.6,0.8-3.1,1.7-4.4L805.8,2565.3z"/>
						<path class="st1" d="M861.2,2576c2.1,0.2,4.2,0.6,6.1,0.1c0.4-0.1,0.9-0.3,1.3-0.5c0.7-0.5,1.4-1.2,1.8-2
							c0.2-0.4,0.3-0.9,0.5-1.3c0.8-3.9,0.2-8.5-2.5-11c-0.3-0.3-0.6-0.5-1-0.7c-0.6-0.3-1.1-0.7-1.6-1.2c-0.9-0.8-1.8-1.8-2.4-2.8
							c-1.3-2-2.3-4.3-2.8-6.7c-0.9-4.6-1-9.3-0.2-13.9v0.5c-0.1-0.4-0.1-0.7-0.2-1.1c-0.1-0.3-0.3-0.7-0.4-1
							c-0.3-0.6-0.7-1-1.3-1.4l-0.5-0.3l-0.3-0.4l-11.8-18.6v-0.1l-20.9-39.6l-0.1-0.1v-0.1l-11.1-30.1l-5.6-15.1
							c-1.8-5-3.8-10-5.8-14.9l0.1,0.2l-1.2-2.2l-0.7-1.2l1-1.1c0.3-0.4,0.6-0.8,0.9-1.2c0.3-0.4,0.5-0.9,0.7-1.4
							c0.4-0.9,0.6-1.9,0.7-2.9c0-1-0.2-1.9-0.6-2.8c-0.2-0.5-0.4-0.9-0.7-1.3c-0.3-0.4-0.6-0.8-1-1.2l-0.1-0.1l-8.9-11.6l2.4,0.6
							c-0.3,0.1-0.7,0.2-1,0.1c-0.2,0-0.4-0.1-0.6-0.1c-0.3-0.1-0.6-0.3-0.8-0.5c-0.3-0.2-0.5-0.5-0.6-0.8l-0.2-0.4l-0.1-0.3
							c-0.1-0.2-0.1-0.4-0.2-0.5c-0.1-0.6-0.2-1.2-0.3-1.8c-0.1-1.1-0.1-2.1,0-3.2c0.1-2,0.2-4,0.5-6c0.1-1,0.2-2,0.4-2.9l0.2-1.4
							l0.1-1.5l0.5-5.8l1.8-23.4c0.6-7.8,1.3-15.6,1.9-23.4l2-23.4c2.7-31.2,5.2-62.4,7.7-93.6l7.7-93.6l3.8-46.8l1-11.7l0.5-5.8
							l0.6-5.8l2.3-23.4v-314l-0.6-104.7l-0.3-104.8l-0.2-52.4v-13.1l-0.3-13.1l-0.6-26.2l-0.6-26.2l-0.3-13.1l-0.2-6.5v-2.4
							l-0.1-0.8l-0.3-3.2c-1.7-17.3-4.6-34.4-8.6-51.3c-2.1-8.4-4.5-16.7-7.4-24.9s-6.6-15.9-10-24l-20.7-48.1l-0.1-0.2v-0.2
							l-8.7-37.7v-0.3l-4.1-51.2v-48.7l10.5-93.1c1.7-15.5,3.5-31,5.2-46.5l3.8-46.7v-0.3l0.1-0.3l3.9-10.6l3.8,1.4l-3.8,10.6
							l0.1-0.5l-3.7,46.7c-1.6,15.5-3.4,31.1-5.1,46.6l-10.4,93.1v47.9l3.9,51.2v-0.3l8.7,37.7l-0.1-0.4l20.7,48
							c3.4,8,7.2,16,10.2,24.3s5.4,16.8,7.5,25.3c4.1,17.1,7,34.4,8.7,51.9l0.3,3.3l0.1,0.8c0,0.3,0,0.6,0,0.9v1.6l0.2,6.6l0.3,13.1
							l0.6,26.2l0.6,26.2l0.3,13.1v13.1l0.2,52.4l0.3,104.7l0.3,104.7V2012l-2.3,23.3l-0.6,5.8l-0.5,5.8l-1,11.7l-3.8,46.8L810,2199
							c-2.6,31.2-5.1,62.4-7.8,93.5l-2,23.4c-0.7,7.8-1.3,15.6-1.9,23.4l-1.8,23.4l-0.5,5.9c-0.1,1.9-0.5,4-0.7,5.8
							s-0.4,3.8-0.5,5.7c0,0.9,0,1.8,0,2.7c0,0.4,0,0.8,0.1,1.2c0,0.1,0,0.1,0,0.2v0.1l0,0l-0.2-0.2c-0.1-0.1-0.3-0.2-0.5-0.3
							c-0.1,0-0.3-0.1-0.5-0.1c-0.3,0-0.5,0-0.8,0.1l2.4,0.6l8.9,11.6l-0.1-0.1c0.5,0.6,0.9,1.1,1.3,1.7c0.4,0.6,0.8,1.3,1.1,2
							c0.6,1.4,0.9,2.9,0.9,4.5c-0.1,1.5-0.4,3-1,4.4c-0.3,0.7-0.6,1.3-1,1.9c-0.4,0.6-0.8,1.3-1.3,1.8l0.3-2.4l1.2,2.2l0.1,0.1v0.1
							c1.9,5,4,10,5.8,15l5.5,15.1l11.1,30.1l-0.1-0.2l20.8,39.6l-0.1-0.1l11.8,18.6l-0.7-0.7c1.2,0.7,2.2,1.8,2.9,3
							c0.6,1.1,1,2.4,1.1,3.7v0.5c-0.8,4.1-0.9,8.3-0.2,12.5c0.4,2,1.1,3.9,2.1,5.6c0.5,0.8,1.1,1.6,1.8,2.3c0.3,0.3,0.6,0.6,1,0.8
							c0.6,0.4,1.1,0.8,1.6,1.3c1.7,1.9,2.8,4.2,3.1,6.7c0.3,1.8,0.3,3.6,0,5.3c-0.1,0.6-0.2,1.2-0.4,1.8c-0.2,0.6-0.4,1.2-0.7,1.8
							c-0.7,1.2-1.6,2.1-2.8,2.8c-0.6,0.3-1.2,0.5-1.8,0.6c-1.2,0.2-2.4,0.3-3.6,0.1c-1.2-0.1-2.3-0.5-3.3-1.1L861.2,2576z"/>
						<path class="st6" d="M794.1,2389.4c0,0-5.8,3.3-1.8,13.8c1.8,3.2,2.5,6.9,1.8,10.5l5.4,14.5l23.5,60.5
							c0,0,10.9,28.6,22.8,28.2h3.6"/>
						<path class="st6" d="M733.6,2420.9c0.2,2.9,0.5,5.8,0.7,8.7c7.6,14.5,10.9,73.9,10.9,73.9c0.7,18.8,15.9,23.2,15.9,23.2
							c20.6,10.9,49.6-7.6,49.6-7.6c1.2-1.2,8.7-9.1,7.6-20.3c-0.5-4.3-2.1-8.4-4.7-11.9c-2.5-7.1-5.2-14.3-8.2-21.7
							c-2.3-5.9-4.7-11.6-7.1-17.1l-7.6-26.4c-6.1-29,1.4-32.2,1.4-32.2l1.1-0.6"/>
						<path class="st7" d="M728.8,2463.9c0,0,5.1-24.4-15.7-44.2c0,0-3.4-3.6-1.5-15.2s2.7-18.6,2.7-18.6s1.2-6,3.9-7.5
							c0,0,5.5-23.9-3.9-34.8l-5.1-21l-17.6-82.8L673,2133.6c0,0-19.8-139.3-8.9-200.2v-8l-28.3-105.7c0,0-36.9-188.3-36.2-207.9
							l-8-57.2l-13-76"/>
						<ellipse class="st6" cx="728.7" cy="2402.3" rx="11.9" ry="19.6"/>
						<path class="st6" d="M728.7,2421.9c2.2,3.5,3.3,7.5,3,11.6c-0.2,3.7-0.7,7.4-1.5,11.1"/>
						<path class="st6" d="M728.7,2382.7c0,0,7.8-99-2.8-149.7c0,0-37.9-251.8-16.9-273.6"/>
						<ellipse class="st6" cx="756.8" cy="1954.4" rx="49.3" ry="43.5"/>
						<path class="st8" d="M708.5,1942.8c0,24,21.3,43.5,47.5,43.5s47.5-19.4,47.5-43.5"/>
						<path class="st6" d="M708.5,1942.8c0,0-29.5-227.4-31.5-256.4s-52.1-263.7,104.3-304.2c0,0,25-6.8,40.5-5.8"/>
						<path class="st6" d="M781.4,1382.2c0,0,31.7,447.2,22.1,554.4"/>
						<path class="st1" d="M803.4,1969.8v0.8c0.3,2,0.8,4,0.9,6c0.2,1,0.2,2,0.2,3.1s0.1,2,0.1,3c0.1,4.1,0.1,8.1,0,12.2
							c-0.1,8.1-0.5,16.2-0.9,24.3c-0.8,16.2-1.8,32.3-3,48.4c-2.3,32.3-4.9,64.5-7.7,96.8l-4.3,48.4l-1.1,12.1l-0.8,12.1
							c-0.3,4-0.5,8.1-0.7,12.1l-0.3,6l-0.2,6.1c-0.5,16.2-0.4,32.3,0.4,48.5c0.4,8.1,1,16.1,1.8,24.2s1.8,16.1,3.3,24l0,0l0.4,3.3
							c0.1,1.1,0.2,2.2,0.3,3.3l0,0c0.1,0.5,0.1,1,0,1.6c-0.3-0.4-0.6-0.9-0.6-1.4l0,0c-0.2-1.1-0.4-2.2-0.6-3.3l-0.5-3.3l0,0
							c-1.5-8-2.5-16-3.4-24.1s-1.4-16.1-1.8-24.2c-0.8-16.2-0.9-32.4-0.4-48.6l0.3-6l0.3-6.1c0.2-4,0.3-8.1,0.6-12.1l0.8-12.1
							l1.1-12.1l4.3-48.3c2.8-32.2,5.4-64.5,7.6-96.8c1.1-16.1,2.2-32.3,2.9-48.4c0.4-8.1,0.7-16.2,0.9-24.2c0.1-4,0.1-8.1,0-12.1
							c0-1-0.1-2-0.1-3c0-1-0.1-2-0.2-3c-0.2-2-0.6-4-0.9-6v-0.9L803.4,1969.8z"/>
						<path class="st6" d="M651.8,1879.5c0,0-3.7-52.6-10.4-95.1c0,0-21.2-154.5-22.7-209.6v-34.8c0,0-6.3-152.1,49.2-200.9
							c0,0,56.4-72.8,141.2-70.2"/>
						<path class="st6" d="M663,1940.3c0,0,6.8,7.4,8.3,55.2c0.8,13.3,1.8,27,3.1,40.9c2.3,25.2,5.4,49.2,8.9,72.1l20.3,140.7
							c2.1,21.2,4.2,42.4,6.3,63.5"/>
						<polyline class="st6" points="673.2,1514.2 615.5,1382.2 546,1382.2 476.4,1514.2 						"/>
						<path class="st1" d="M347.2,2563.3c0.8,1.3,1.4,2.8,1.7,4.4c0.3,1.6,0.2,3.3-0.3,4.8c-0.4,1.5-1.1,2.9-2.1,4.2
							c-0.5,0.6-0.9,1.2-1.5,1.8c-0.3,0.3-0.5,0.5-0.8,0.8l-0.4,0.4l-0.2,0.2l-0.1,0.1l-0.1,0.1c-0.2,0.1-0.5,0.3-0.7,0.3
							c-0.6,0.1-1.2,0-1.6-0.3c-0.4-0.3-0.7-0.7-0.9-1.1c-0.1-0.2-0.1-0.4-0.1-0.6l3.4,1.7c-2.5,1.9-4.6,4.3-6.1,7.1
							c-1.5,2.8-2.2,5.9-2.1,9l-0.1-0.5c0.3,1.3,0.9,2.6,1.8,3.7c0.8,1.1,1.9,1.9,3.1,2.5c1.3,0.6,2.6,0.9,4,0.9
							c0.7,0,1.4,0,2.1-0.1c0.7-0.1,1.4-0.2,2-0.5l-0.2,0.1c10-4.5,17.3-13.4,19.8-24v-0.3c0.6-1.8,1.8-3.3,3.4-4.3
							c1.7-1.1,3.7-1.5,5.6-1.2c1.1,0.2,2.1,0.7,2.9,1.4c0.8,0.7,1.4,1.5,1.9,2.4c0.8,1.7,1,3.7,0.6,5.5l-0.1,0.4l-0.2,0.3
							c-2.7,4.6-3.7,10-2.7,15.2c0.1,0.3,0.1,0.6,0.2,1c0,0.3,0.1,0.6,0.2,0.9l0.3,0.7c0.1,0.3,0.2,0.5,0.4,0.7c0.3,0.5,0.6,1,1,1.4
							l0.6,0.6c0.2,0.2,0.4,0.4,0.7,0.6c2.1,1.6,4.4,2.7,6.9,3.4c2.6,0.7,5.4,1.2,8.1,1.4c2.8,0.2,5.6,0.2,8.4,0
							c1.3-0.1,2.7-0.3,4-0.5l1.9-0.5c0.3-0.1,0.6-0.2,0.9-0.3l0.9-0.4c2.2-1,4.1-2.7,5.4-4.8c2.5-4.3,2.5-9.7,0-14
							c-0.9-1.3-1.7-2.8-2.3-4.2c-0.7-1.6-1.1-3.2-1.3-4.9c-0.2-1.6-0.2-3.2,0-4.8c0.1-1.5,0.2-2.9,0.3-4.3s0-2.9,0.1-4.4
							s0.2-3.1,0.5-4.6s0.5-3,0.9-4.5s0.8-2.8,1.2-4.3c1.4-5.5,2.4-11.2,2.9-16.8v0.3l-1.2-35.6l-0.6-17.8l-0.3-8.9
							c0-1.5-0.2-3-0.1-4.4c0.1-1.6,0.7-3.2,1.7-4.5c1.1,1.2,1.7,2.8,2,4.4c0.2,1.5,0.2,3,0.3,4.4l0.4,8.9l0.8,17.8l1.6,35.6v0.3
							c-0.4,5.9-1.4,11.8-2.8,17.6c-0.3,1.4-0.8,3-1.1,4.2s-0.6,2.7-0.8,4.1s-0.3,2.8-0.4,4.1s0,2.7,0,4.3c-0.1,3.1-0.5,6-0.2,8.4
							c0.2,1.2,0.5,2.4,1,3.6c0.5,1.2,1.2,2.3,1.9,3.4c3.6,5.9,3.7,13.3,0.2,19.3c-1.8,2.9-4.4,5.2-7.5,6.6l-1.1,0.5
							c-0.4,0.2-0.8,0.3-1.2,0.4l-2.4,0.7c-1.6,0.3-3.1,0.5-4.7,0.6c-3,0.2-6.1,0.2-9.1,0c-3.1-0.2-6.2-0.7-9.1-1.6
							c-3.1-0.8-6.1-2.3-8.7-4.3c-0.4-0.3-0.7-0.5-1-0.9l-0.9-0.9c-0.6-0.7-1.1-1.4-1.5-2.2c-0.3-0.4-0.5-0.8-0.6-1.2l-0.5-1.3
							c-0.2-0.4-0.3-0.8-0.4-1.2c-0.1-0.4-0.2-0.8-0.2-1.2c-1.2-6.4,0-12.9,3.3-18.5l-0.3,0.7c0.2-0.8,0.1-1.6-0.2-2.3
							c-0.1-0.3-0.3-0.5-0.6-0.8c-0.2-0.2-0.5-0.3-0.7-0.3c-0.7-0.1-1.5,0.1-2.1,0.5c-0.7,0.4-1.2,1.1-1.5,1.9l0.1-0.2
							c-1.4,6-4.2,11.5-8.2,16.2c-3.9,4.7-8.9,8.4-14.5,10.9h-0.2c-1,0.3-1.9,0.5-2.9,0.7c-1,0.1-1.9,0.2-2.9,0.1
							c-2,0-4-0.5-5.8-1.3c-1.8-0.9-3.4-2.2-4.7-3.9c-1.2-1.6-2.1-3.4-2.5-5.4l-0.1-0.2v-0.3c0-3.9,0.9-7.7,2.7-11.1
							c1.8-3.4,4.4-6.3,7.4-8.5l3.4,1.7c0-0.2,0-0.4-0.1-0.6c-0.3-1.1-1.4-1.7-2.5-1.5c-0.2,0.1-0.5,0.2-0.7,0.3l-0.1,0.1l0,0h0.1
							l0.1-0.1l0.3-0.3l0.6-0.6c0.4-0.4,0.8-0.8,1.1-1.3c0.7-0.9,1.2-1.8,1.5-2.9c0.6-2,0.2-4.2-0.9-6L347.2,2563.3z"/>
						<path class="st1" d="M288.8,2577.1c-1,0.6-2.2,1-3.3,1.1c-1.2,0.2-2.4,0.1-3.6-0.1c-0.6-0.1-1.2-0.3-1.8-0.6
							c-0.6-0.3-1.1-0.7-1.6-1.2c-0.5-0.5-0.9-1-1.2-1.6c-0.3-0.6-0.5-1.2-0.7-1.8c-0.1-0.6-0.3-1.2-0.4-1.8s-0.2-1.2-0.2-1.8
							c-0.1-1.2,0-2.4,0.1-3.6c0.3-2.5,1.4-4.9,3.1-6.7c0.5-0.5,1-0.9,1.6-1.3c0.4-0.2,0.7-0.5,1-0.8c0.7-0.7,1.3-1.4,1.8-2.3
							c1-1.7,1.7-3.6,2.1-5.6c0.7-4.1,0.6-8.4-0.2-12.5v-0.5c0.1-0.6,0.2-1.3,0.4-1.9c0.2-0.6,0.4-1.2,0.7-1.8
							c0.7-1.3,1.6-2.3,2.9-3l-0.7,0.7l11.8-18.6l-0.1,0.1l20.8-39.6l-0.1,0.2l11.1-30.1l5.5-15.1c1.8-5,3.9-10,5.8-15v-0.1l0.1-0.1
							l1.2-2.2l0.3,2.4c-0.5-0.6-1-1.2-1.3-1.8c-0.4-0.6-0.7-1.3-1-1.9c-0.6-1.4-1-2.9-1-4.4c-0.1-1.5,0.2-3.1,0.9-4.5
							c0.3-0.7,0.7-1.4,1.1-2c0.4-0.6,0.9-1.1,1.4-1.7l-0.1,0.1l8.9-11.6l2.4-0.6c-0.3-0.1-0.5-0.1-0.8-0.1c-0.2,0-0.3,0-0.5,0.1
							c-0.2,0.1-0.4,0.2-0.5,0.3c-0.1,0.1-0.2,0.1-0.2,0.2l0,0v-0.1c0,0,0-0.1,0-0.1c0.1-0.4,0.1-0.7,0.2-1.1c0-0.9,0-1.8,0-2.7
							c-0.1-1.9-0.2-3.8-0.5-5.7s-0.6-3.9-0.7-5.8l-0.5-5.9l-1.8-23.4c-0.6-7.8-1.3-15.6-1.9-23.4l-2-23.4
							c-2.7-31.2-5.2-62.4-7.8-93.5l-7.7-93.5l-3.7-46.7l-1-11.7l-0.5-5.8l-0.6-5.8l-2.3-23.3v-314.4l0.3-104.7l0.4-104.7l0.2-52.4
							v-13.1l0.3-13.1l0.6-26.2l0.6-26.2l0.3-13.1l0.1-6.6v-1.7c0-0.3,0-0.6,0-0.9l0.1-0.8l0.3-3.3c1.7-17.5,4.6-34.8,8.7-51.9
							c2.1-8.5,4.6-17,7.5-25.3s6.8-16.3,10.2-24.3l20.7-48l-0.1,0.4l8.7-37.7v0.3l3.9-51.2v-47.9L376,952.2
							c-1.7-15.5-3.5-31-5.1-46.6l-3.7-46.7l0.1,0.5l-3.9-10.6l3.8-1.4l3.9,10.6l0.1,0.3v0.3l3.8,46.7c1.6,15.5,3.5,31,5.2,46.5
							l10.5,93.1v48.7l-3.8,51.2v0.3l-8.7,37.7v0.2l-0.1,0.2l-20.7,48.1c-3.4,8.1-7.1,15.8-10,24s-5.3,16.5-7.4,24.9
							c-4.1,16.9-6.9,34-8.6,51.3l-0.3,3.2l-0.1,0.8v2.4l-0.1,6.5l-0.3,13.1l-0.6,26.2l-0.6,26.2l-0.4,13.1v13.1l-0.2,52.4
							l-0.5,104.8l-0.4,104.7v314l2.3,23.4l0.6,5.8l0.5,5.8l1,11.7l3.8,46.8l7.7,93.6c2.6,31.2,5.1,62.4,7.7,93.6l2,23.4
							c0.7,7.8,1.3,15.6,1.9,23.4l1.8,23.4l0.5,5.8l0.1,1.5l0.2,1.4c0.1,1,0.3,1.9,0.4,2.9c0.2,2,0.4,4,0.5,6c0.1,1.1,0.1,2.1,0,3.2
							c0,0.6-0.1,1.2-0.3,1.8c0,0.2-0.1,0.4-0.2,0.5l-0.1,0.3l-0.2,0.4c-0.2,0.3-0.4,0.6-0.6,0.8c-0.2,0.2-0.5,0.4-0.8,0.5
							c-0.2,0.1-0.4,0.1-0.6,0.1c-0.3,0-0.7,0-1-0.1l2.4-0.6l-8.9,11.6l-0.1,0.1c-0.3,0.4-0.7,0.8-1,1.2c-0.3,0.4-0.5,0.8-0.7,1.3
							c-0.4,0.9-0.6,1.8-0.6,2.8c0,1,0.3,2,0.6,2.9c0.2,0.5,0.4,0.9,0.7,1.4c0.3,0.4,0.5,0.8,0.9,1.2l1,1.1l-0.7,1.2l-1.2,2.2
							l0.1-0.2c-1.9,5-4,9.9-5.8,14.9l-5.5,15.1l-11.2,30v0.1l-0.1,0.1l-20.8,39.6v0.1l-11.8,18.6l-0.3,0.4l-0.5,0.3
							c-0.6,0.3-1,0.8-1.3,1.4c-0.2,0.3-0.3,0.7-0.4,1c-0.1,0.3-0.2,0.7-0.2,1.1v-0.5c0.8,4.6,0.8,9.3-0.1,13.9
							c-0.5,2.4-1.5,4.6-2.8,6.7c-0.7,1-1.5,2-2.4,2.8c-0.5,0.4-1,0.8-1.6,1.2c-0.4,0.2-0.7,0.4-1,0.7c-2.7,2.5-3.3,7.1-2.5,11
							c0.1,0.5,0.3,0.9,0.5,1.3c0.2,0.4,0.5,0.8,0.8,1.1c0.3,0.3,0.6,0.6,1,0.9c0.4,0.2,0.8,0.4,1.3,0.5c1.8,0.6,4,0.1,6.1-0.1
							L288.8,2577.1z"/>
						<path class="st6" d="M355.5,2389.4c0,0,5.8,3.3,1.8,13.8c-1.8,3.2-2.5,6.9-1.8,10.5l-5.4,14.5l-23.5,60.5
							c0,0-10.9,28.6-22.8,28.2h-3.6"/>
						<path class="st6" d="M416,2420.9c-0.2,2.9-0.5,5.8-0.7,8.7c-7.6,14.5-10.9,73.9-10.9,73.9c-0.7,18.8-15.9,23.2-15.9,23.2
							c-20.6,10.9-49.6-7.6-49.6-7.6c-1.2-1.2-8.7-9.1-7.6-20.3c0.5-4.3,2.1-8.4,4.7-11.9c2.5-7.1,5.2-14.3,8.1-21.7
							c2.3-5.9,4.7-11.6,7.1-17.1l7.6-26.4c6.1-29-1.4-32.2-1.4-32.2l-1.1-0.6"/>
						<path class="st1" d="M573,1478.8l-11.3,66.5l-1.4,8.3c-0.5,2.8-0.8,5.6-1.2,8.3l-2.3,16.7l-4.6,33.4v2.3l-0.3,2.6
							c-0.2,1.7-0.3,3.4-0.5,5.1c-0.4,3.3-0.8,6.7-1.3,10c-1,6.7-2,13.3-3,19.8c-2.2,13.2-4.4,26.4-6.8,39.5
							c-4.7,26.3-9.5,52.6-14.5,78.8l-7.5,39.4l-1.9,9.8c-0.2,1-0.4,1.7-0.6,2.5l-0.7,2.4l-1.3,4.8l-5.2,19.4l-20.7,77.4l0.1-0.7
							v7.6c1.4,8.6,2.4,17.4,2.8,26.1c0.5,8.7,0.6,17.4,0.5,26.1s-0.3,17.4-0.7,26s-0.9,17.3-1.5,26c-1.2,17.3-2.8,34.6-4.6,51.8
							c-0.9,8.6-1.9,17.2-3,25.8l-1.6,12.9l-0.9,6.5l-1.1,6.4l-9,51.1l-4.5,25.6l-2.3,12.8l-1.1,6.4c-0.4,2.1-0.7,4.3-1.2,6.4
							l-10.8,50.8l-5.4,25.4c-0.9,4.2-1.9,8.4-3,12.6l-3.1,12.6l-0.1,0.5l-0.4,0.4c-1.7,2.1-2.9,4.5-3.6,7.1
							c-0.7,2.7-1.2,5.6-1.3,8.4c-0.1,2.9-0.1,5.8,0.2,8.7c0.3,2.9,0.7,5.8,1.3,8.6l-1-1.4c0.9,0.5,1.7,1.3,2.2,2.1
							c0.5,0.7,0.8,1.5,1.2,2.3c0.3,0.7,0.6,1.5,0.8,2.2s0.4,1.5,0.6,2.3v0.2c0.4,3.4,0.8,6.8,1.3,10.2l1.6,10.3
							c0.6,3.7,0.4,7.5-0.5,11.1c-0.3,1-0.7,2-1.2,2.9c-0.1,0.1-0.2,0.3-0.2,0.4l-0.2,0.2l-0.1,0.1l-0.2,0.2l-0.4,0.5l-0.9,0.9
							l-1.8,1.8c-0.6,0.6-1.1,1.2-1.6,1.9c-4.2,5.2-7.3,11.1-9.1,17.6l-0.6,2.4l-0.5,2.4c-0.2,0.8-0.2,1.6-0.4,2.5l-0.2,1.2
							l-0.1,1.2c-0.1,0.8-0.1,1.7-0.1,2.5s0,1.7,0,2.5c0,1.6,0.2,3.2,0.5,4.8v0.4c0,0.5,0,1-0.1,1.6c-0.1,0.5-0.2,1.1-0.3,1.6
							c-0.2,0.5-0.4,1.1-0.6,1.6c-0.3,0.6-0.6,1.1-1,1.6c-0.4-0.5-0.7-1-1-1.6c-0.3-0.5-0.5-1-0.6-1.6c-0.2-0.5-0.3-1-0.3-1.6
							c-0.1-0.5-0.1-1-0.1-1.6v0.4c-0.3-1.8-0.5-3.7-0.5-5.5v-2.7c0-0.9,0.1-1.8,0.1-2.7l0.1-1.4l0.2-1.3c0.1-0.9,0.2-1.8,0.4-2.7
							l0.5-2.6l0.7-2.6c2-6.9,5.3-13.4,9.9-19c0.5-0.7,1.1-1.4,1.7-2.1l1.8-1.9l0.9-1l0.5-0.5l-0.1,0.1l0,0l0,0
							c0-0.1,0.1-0.1,0.1-0.2c0.3-0.6,0.6-1.2,0.8-1.9c0.7-3.1,0.8-6.3,0.3-9.5l-1.6-10.2c-0.5-3.4-1-6.9-1.4-10.4v0.2
							c-0.1-0.6-0.3-1.2-0.5-1.9s-0.4-1.2-0.7-1.8c-0.2-0.5-0.5-1-0.8-1.5c-0.2-0.3-0.5-0.6-0.8-0.9l-0.8-0.4l-0.2-1
							c-0.7-3-1.1-6.1-1.4-9.2c-0.3-3.1-0.4-6.2-0.2-9.3c0.1-3.2,0.6-6.3,1.4-9.4c0.8-3.2,2.4-6.2,4.5-8.8l-0.5,0.9l3-12.6
							c1-4.2,2.1-8.4,2.9-12.6l5.4-25.4l10.7-50.8c0.5-2.1,0.8-4.2,1.2-6.4l1.1-6.4l2.2-12.8l4.4-25.5l8.9-51.1l1.1-6.4l0.9-6.4
							l1.6-12.8c1-8.6,2-17.1,2.9-25.7c1.8-17.2,3.3-34.4,4.5-51.6c0.6-8.6,1.1-17.2,1.5-25.8c0.4-8.6,0.6-17.2,0.7-25.8
							s-0.1-17.2-0.5-25.8c-0.4-8.5-1.3-17-2.7-25.5v-8.7l0.1-0.3l20.7-77.4l5.2-19.3l1.3-4.8l0.6-2.4c0.2-0.8,0.5-1.7,0.6-2.3
							l1.9-9.8l7.8-39.4l7.4-39.4c2.5-13.1,4.9-26.3,7.3-39.4c2.4-13.1,4.7-26.3,6.9-39.4c1.1-6.6,2.1-13.1,3.1-19.7
							c0.5-3.3,0.9-6.6,1.3-9.9c0.2-1.6,0.4-3.3,0.5-4.9l0.2-2.4v-2.7l4.7-33.4l2.4-16.7c0.4-2.8,0.8-5.6,1.2-8.3l1.4-8.3l11.6-66.5
							L573,1478.8z"/>
						<ellipse class="st6" cx="420.9" cy="2402.3" rx="11.9" ry="19.6"/>
						<path class="st6" d="M420.9,2421.9c-2.2,3.4-3.3,7.5-3,11.6c0.2,3.7,0.7,7.4,1.5,11.1"/>
						<path class="st6" d="M420.9,2382.7c0,0-7.8-99,2.8-149.7c0,0,37.9-251.8,16.9-273.6"/>
						<ellipse class="st6" cx="392.8" cy="1954.4" rx="49.3" ry="43.5"/>
						<path class="st8" d="M441.1,1942.8c0,24-21.3,43.5-47.5,43.5s-47.5-19.4-47.5-43.5"/>
						<path class="st6" d="M441.1,1942.8c0,0,29.5-227.4,31.5-256.4s52.2-263.7-104.3-304.2c0,0-25-6.8-40.5-5.8"/>
						<path class="st6" d="M368.2,1382.2c0,0-31.7,447.2-22.1,554.4"/>
						<path class="st1" d="M347.4,1969.9v0.9c-0.3,2-0.8,4-0.9,6c-0.1,1-0.2,2-0.2,3s-0.1,2-0.1,3c-0.1,4-0.1,8.1,0,12.1
							c0.1,8.1,0.5,16.2,0.9,24.2c0.8,16.2,1.8,32.3,2.9,48.4c2.3,32.3,4.9,64.5,7.6,96.8l4.3,48.4l1.1,12.1l0.8,12.1
							c0.3,4,0.5,8.1,0.6,12.1l0.3,6.1l0.2,6.1c0.5,16.2,0.4,32.4-0.4,48.6c-0.4,8.1-1,16.2-1.8,24.2s-1.9,16.1-3.4,24.1l0,0
							l-0.5,3.3c-0.2,1.1-0.4,2.2-0.6,3.3l0,0c-0.1,0.5-0.3,1-0.6,1.4c-0.1-0.5-0.1-1,0-1.6l0,0c0.1-1.1,0.2-2.2,0.3-3.3l0.4-3.3
							l0,0c1.5-7.9,2.5-16,3.3-24s1.4-16.1,1.8-24.2c0.8-16.1,0.9-32.3,0.4-48.5l-0.2-6.1l-0.3-6c-0.2-4-0.3-8.1-0.6-12.1l-0.8-12.1
							l-1.1-12.1l-4.3-48.4c-2.8-32.2-5.4-64.5-7.7-96.8c-1.1-16.1-2.2-32.3-3-48.4c-0.4-8.1-0.7-16.2-0.9-24.3
							c-0.1-4-0.1-8.1,0-12.2c0-1,0.1-2,0.1-3s0.1-2,0.2-3.1c0.2-2.1,0.6-4,0.9-6v-0.8L347.4,1969.9z"/>
						<path class="st6" d="M497.8,1879.5c0,0,3.7-52.6,10.4-95.1c0,0,21.2-154.5,22.7-209.6v-34.8c0,0,6.3-152.1-49.2-200.9
							c0,0-56.4-72.8-141.2-70.2"/>
						<path class="st6" d="M486.6,1940.3c0,0-6.9,7.4-8.3,55.2c-0.8,13.3-1.8,27-3.1,40.9c-2.4,25.2-5.4,49.2-8.9,72.1L446,2249.2
							c-2.1,21.2-4.2,42.4-6.3,63.5"/>
						<path class="st6" d="M571,1479.1c-0.1-2.1,1.5-3.9,3.6-4c2.1-0.1,3.9,1.5,4,3.6v0.4"/>
						<path class="st6" d="M472.2,1328.6c13-52.3,62.9-66.6,62.9-66.6s45.6-11.7,80.4-0.1c0,0,43.3,10.3,61.9,66.8"/>
						<path class="st1" d="M402.5,819.2c-1.7,4.3-3,8.6-4,13.1c-0.6,2.2-1,4.5-1.5,6.8s-0.8,4.5-1.2,6.8c-1.4,9.2-2.2,18.4-2.5,27.7
							c-0.5,18.5,0.5,37.1,3.1,55.4c2.8,18.4,5,37,6.8,55.5s3,37.2,3.5,55.8c0.5,18.6,0.5,37.3-0.7,55.9c-0.6,9.3-1.5,18.6-2.8,27.8
							c-1.3,9.2-3.1,18.4-5.5,27.4l-0.9,3.4l-1.2,3.3l-2.5,6.5c-1.7,4.3-3.4,8.7-5.1,13c-3.5,8.6-7.1,17.2-10.9,25.7
							s-7.9,16.9-12.4,25c-2.2,4.1-4.7,8.1-7.4,11.9c-1.4,1.9-2.8,3.8-4.5,5.5c-0.8,0.9-1.7,1.7-2.6,2.4c-1,0.8-2,1.4-3.2,1.8
							l-0.4-1c1-0.4,2-0.9,2.9-1.6c0.9-0.7,1.8-1.5,2.5-2.3c1.6-1.7,3.1-3.4,4.4-5.3c2.7-3.8,5.2-7.7,7.4-11.8
							c4.5-8.1,8.6-16.5,12.4-25s7.4-17.1,10.9-25.7c1.7-4.3,3.4-8.7,5.1-13l2.5-6.5l1.2-3.3l0.9-3.4c2.3-9,4.1-18.1,5.3-27.3
							c1.2-9.2,2.1-18.5,2.6-27.8c1.1-18.6,1-37.2,0.4-55.8s-2-37.2-3.9-55.7s-4.1-37-7-55.3c-2.7-18.5-3.9-37.2-3.5-55.9
							c0.2-9.4,1-18.7,2.3-28c0.4-2.3,0.7-4.6,1.2-6.9s0.9-4.6,1.4-6.9c1-4.6,2.3-9.2,4-13.6L402.5,819.2z"/>
						<path class="st1" d="M800,1251c-1.3-0.5-2.4-1.1-3.5-2c-1-0.8-1.9-1.6-2.8-2.5c-1.6-1.7-3.2-3.6-4.5-5.6
							c-2.7-3.9-5.2-7.9-7.4-12c-4.5-8.2-8.5-16.6-12.4-25.2s-7.4-17.1-10.8-25.8c-1.7-4.3-3.4-8.7-5.1-13l-2.5-6.6l-1.2-3.3
							l-0.9-3.4c-2.3-9.1-4.1-18.3-5.3-27.5c-1.2-9.3-2.1-18.6-2.6-27.9c-1.1-18.6-1-37.3-0.4-55.9s2-37.2,3.9-55.8s4.1-37,7.1-55.4
							c1.3-9.2,2.2-18.4,2.8-27.7c0.5-9.3,0.7-18.6,0.5-27.9c-0.3-9.3-1.1-18.6-2.4-27.8c-0.7-4.6-1.5-9.1-2.7-13.7
							c-1-4.5-2.4-8.9-4-13.3l1-0.4c1.7,4.4,3,8.9,4,13.5c1,4.5,1.9,9.2,2.5,13.8c1.4,9.2,2.2,18.5,2.4,27.8
							c0.3,9.3,0.1,18.7-0.5,28s-1.6,18.6-2.8,27.8c-2.8,18.4-5,36.9-6.7,55.4s-3,37.1-3.5,55.7c-0.5,18.6-0.5,37.2,0.7,55.8
							c0.6,9.3,1.5,18.5,2.8,27.7c1.2,9.2,3,18.3,5.4,27.2l0.9,3.3l1.2,3.2l2.5,6.5c1.7,4.3,3.4,8.7,5.1,13
							c3.5,8.6,7.2,17.2,11,25.6s7.9,16.8,12.5,24.8c2.2,4,4.7,7.9,7.4,11.7c1.3,1.8,2.8,3.6,4.3,5.2c0.7,0.8,1.6,1.5,2.4,2.2
							c0.8,0.6,1.7,1.1,2.6,1.5L800,1251z"/>
						<path class="st6" d="M741,1069.2c0,86.9-75.2,157.4-167.8,157.4c-87.8,0-159.9-63.3-167.2-143.9"/>
						<path class="st6" d="M571,1102.6h0.2c2,0,3.5,1.6,3.5,3.5v14.2c0,2-1.6,3.5-3.5,3.5H571c-2,0-3.5-1.6-3.5-3.5v-14.2
							C567.5,1104.2,569,1102.6,571,1102.6z"/>
						<path class="st2" d="M397.5,1151l28.5,25.1c4,5.6,6.3,12.2,6.7,19.1c0.6,13.9-7.3,23.5-9.2,25.6
							c-9.7,12.8-17.2,27.2-22.2,42.5c-1.6,5-3,10-4,15.1"/>
						<path class="st6" d="M750.4,1151l-28.5,25.1c-4,5.6-6.3,12.2-6.7,19.1c-0.7,13.9,7.3,23.5,9.2,25.6
							c12.9,17,21.9,36.7,26.2,57.6"/>
						<path class="st7" d="M774.1,777.8l1.5,7.2l8.7,63l5.8,45.2l12.1,74.8l6,39.4c2.7,25.1,9.3,49.7,19.3,72.9l39.4,88.8
							l55.5,105.5c4.6,8,19.3,32.6,19.3,32.6c10.6,12.6,19.8,31.2,19.8,31.2c13.8,20.5,18.8,79.4,18.8,79.4v41.3l1.7,54.6
							c1.2,20.8,14,17.9,14,17.9c12.3-2.7,10.6-26.8,10.6-26.8c-3.1-34.3,2.4-80.2,2.4-80.2l2.2-0.2c-0.2,18.6,5.1,67.8,5.1,67.8
							c1.2,15.9,9.2,56.3,9.2,56.3c7.7,22.4,23.7,12.8,23.7,12.8c10.6-9.4-2.7-62-2.7-62c0-16.2-8.7-71.2-8.7-71.2l2.2-0.5
							c12.6,49.3,15,71.2,15,71.2c12.8,57.5,17.9,60.6,17.9,60.6c10.4,11.1,19.8,0,19.8,0c8.9-8.4,0.5-29.2,0.5-29.2
							c-1.4-10.9-15-66.4-15-66.4l-12-42.8l2.4-1c15,14.5,33.6,102.1,33.6,102.1c5.3,20.8,20.8,11.6,20.8,11.6
							c17.4-11.1,4.3-39.6,4.3-39.6l-20.8-69.5c-8.2-15.9-12.6-47.1-12.6-47.1l4.3,4.6l15,17.4c7.2,11.1,15.4,11.1,15.4,11.1
							c21.7,0.5,17.9-22.7,17.9-22.7l-44-43.5c0,0-14.2-28.2-31.1-38.4c0,0-48.5-22.4-54.1-39.1l-8.9-17.2l-4.6-20.8l-18.3-68.6
							c0,0-46.4-153.9-59.6-172.4c0,0-30.4-73.9-32.2-110.8L886,757.3l-3.2-86.6c0,0,7.6-68.1-83.3-118.4c0,0-47.1-26.4-105-37.7
							c0,0-35.9-13.4-35.5-64.5l-8.3-67"/>
						<path class="st2" d="M970.3,1359.6c5.9,7.5,10.8,15.7,14.6,24.5c11.7,27.4,9.1,52.9,6.8,65.4c-2.6,24.7-5.2,49.3-7.7,74"/>
						<path class="st2" d="M982,1458.2c0,0,15.5,4.8,21.8,12.1"/>
						<path class="st2" d="M982,1498.8c0,0,15.3,0,23.2,6.3"/>
						<path class="st1" d="M993.7,1415.9c2.6,0.7,5.1,1.5,7.7,2.5c2.5,0.9,5.1,1.7,7.6,2.5c5.1,1.6,10.2,2.9,15.5,3.9
							c5.2,1,10.5,1.2,15.8,0.6c2.6-0.2,5.2-0.5,7.8-1.1c2.5-0.4,4.9-1.4,7.1-2.7l0.1-0.1h0.1c6-2.7,12-5.3,18.1-7.9
							c3-1.4,6-2.8,9.1-4c1.5-0.6,3.1-1.2,4.7-1.8c0.8-0.3,1.6-0.5,2.4-0.7c0.4-0.1,0.9-0.1,1.3-0.1c0.5,0,0.9,0.1,1.3,0.3
							c-0.8,0.4-1.5,0.8-2.2,1.1s-1.5,0.5-2.3,0.8c-1.5,0.6-3,1.2-4.5,1.9c-3,1.3-5.9,2.8-8.9,4.2c-6,2.7-12,5.4-18.1,8.1l0.2-0.1
							c-2.4,1.5-5,2.5-7.8,3c-2.7,0.6-5.4,0.9-8.1,1.1c-5.4,0.3-10.9,0-16.2-0.8c-5.3-0.9-10.6-2.2-15.7-4c-2.6-0.8-5.1-1.8-7.6-2.9
							c-2.5-1-4.9-2.2-7.2-3.7L993.7,1415.9z"/>
						<path class="st2" d="M1017.6,1424.3l11.7,104.7c0,0,3,27.7,8.9,30.9"/>
						<path class="st2" d="M1022.3,1521.7c3.5-2.4,7.9-2.8,11.8-1.2c7,2.7,15.2,6,15.2,6"/>
						<path class="st2" d="M1017.6,1477.5c0,0,3.6-3.1,10.3,0s16.1,8.2,16.1,8.2"/>
						<path class="st2" d="M1044.1,1426.6c0,0,12.6,32.9,15.5,54.3l9.9,45.6c0,0,6.8,30.2,15.9,34.8l2.7,1.6"/>
						<path class="st2" d="M1040.5,1291.1c0,0-5.1,16.4,3.6,31.2c0,0,15.9,19.8,20.3,23.7s23.5,18.3,25.6,24.4"/>
						<path class="st2" d="M971.7,1361.4c0,0,8.7-0.5,13.5,1.7s14.2,7.2,22.9,6h11.3c6.1,0,10-0.1,12.5-0.2
							c5.2-0.1,12.8-0.1,22.7,0.3c10.4-1.8,21.1,0,30.4,5.2l9.2,6.3"/>
						<path class="st2" d="M1091.2,1377.7c-16,9.7-34.7,14.2-53.4,12.7c-32.8-2.8-52.8-23.2-57.5-28.3"/>
						<path class="st1" d="M1037.1,1290c-1.1,0-2.2-0.1-3.2-0.2c-1.1-0.1-2.2-0.1-3.2-0.1c-2.1,0-4.3,0.1-6.4,0.3
							c-13,1.5-24.9,8.1-33,18.4c-2.7,3.3-5.2,6.9-7.2,10.6c-2.1,3.8-3.9,7.7-5.5,11.7c-3,8.1-5.3,16.4-6.7,24.9l0,0
							c0,1.9,0,3.9-0.1,5.8h-0.1c-0.1-1.9-0.1-3.9-0.1-5.8l0,0c1.4-8.5,3.7-16.9,6.7-25c1.6-4,3.4-8,5.5-11.7
							c2.1-3.8,4.5-7.4,7.3-10.7c5.5-6.8,12.6-12,20.6-15.3c4-1.6,8.3-2.7,12.6-3.2c2.2-0.3,4.3-0.4,6.5-0.3c1.1,0,2.2,0,3.2,0.1
							C1035,1289.5,1036,1289.7,1037.1,1290L1037.1,1290z"/>
						<path class="st6" d="M774.1,777.8c0,0,30.1,27.8,42.6,98.8l21.9,97.2c0,0,26,146.9,60.1,203.4l30.5,62.3
							c0,0,39.5,71.7,41.1,73.9s10.1,12.5,10.1,12.5"/>
						<path class="st6" d="M816.7,876.6l37.1,138.4c0,0,15.2,80.8,52.2,165.2l28.8,69.5"/>
						<path class="st9" d="M808.2,999c0,0,12.8,6,21.2,32.3c0,0,6.8,31.2,0,49"/>
						<path class="st6" d="M846.5,987.8c0,0,11.6-34.9,55.1-34.9h9.9"/>
						<path class="st6" d="M846.5,987.8c0,0,18.6,4,38.7-8.8c0,0,15.2-10.1,25.6-26.1"/>
						<path class="st6" d="M846.5,987.8c0.4,1.4,43.5,27.6,55.1,17s9.2-50.7,9.2-50.7"/>
						<path class="st6" d="M885.7,748.1c0,0-24.2,42-2.4,119.3l12.1,36.7"/>
						<path class="st1" d="M814.2,691.8c-1.3,0.3-2.6,0.8-3.7,1.5c-1.1,0.7-2.2,1.6-3.2,2.5c-2,1.9-3.7,4.1-5.1,6.4
							c-2.9,4.6-5.3,9.6-7.1,14.8c-1.9,5.2-3.6,10.4-5.4,15.6l-5.4,15.7c-7.3,20.8-14.8,41.6-24.3,61.6c-2.4,5-4.9,9.9-7.6,14.8
							c-2.7,4.9-5.8,9.5-9.2,13.9c-1.7,2.2-3.7,4.3-5.8,6.1l-0.8,0.7c-0.3,0.2-0.6,0.4-0.9,0.6c-0.6,0.4-1.2,0.8-1.8,1.2
							c-1.2,0.8-2.3,1.5-3.5,2.2c-4.8,2.8-9.7,5.4-14.8,7.5c-10.2,4.5-21,7.5-32,9c-11,1.5-22.2,1.1-33.1-1.3l0.1-0.4
							c5.4,0.9,10.9,1.4,16.4,1.5c5.5,0,11-0.4,16.4-1.2c5.4-0.8,10.8-2,16-3.6c10.5-3.1,20.6-7.5,30-13.2c1.2-0.7,2.3-1.4,3.5-2.2
							l1.7-1.2c0.3-0.2,0.6-0.4,0.8-0.6l0.8-0.7c2-1.8,3.9-3.7,5.6-5.8c3.3-4.3,6.4-8.9,9-13.7c2.7-4.8,5.2-9.7,7.6-14.6
							c4.7-9.9,9-20.1,13-30.3s7.9-20.6,11.6-30.9l5.5-15.6c1.8-5.2,3.6-10.4,5.7-15.6c2-5.2,4.5-10.2,7.5-14.8
							c1.5-2.3,3.3-4.5,5.3-6.4c2-1.8,4.4-3.6,7.2-4.1L814.2,691.8z"/>
						<path class="st9" d="M744.1,528.3c0.2,11.8,1,23.6,2.5,35.3c0,0,4.3,34.1,13.8,60.3c12.8,35.4,58.8,78.7,124.9,111.1"/>
						<path class="st6" d="M744.1,528.3c0,0-34.1,10.7-110.5,18.4c0,0-31.9,1-40.6,14.5"/>
						<path class="st6" d="M609.2,550.9c0,0,62.2-0.4,102.6,22c17.3,9.3,32.4,22.2,44.3,37.8"/>
						<path class="st10" d="M640.9,390.3l4.8,57.9c0,0-1.1,43.5,22.9,61.3c0,0,9.5,9.7,32.7,9.7"/>
						<path class="st7" d="M374.6,777.8l-1.5,7.2l-8.7,63l-5.8,45.2l-12.1,74.8l-6,39.4c-2.8,25.1-9.3,49.7-19.3,72.9l-39.4,88.8
							l-55.5,105.5c-4.6,8-19.3,32.6-19.3,32.6c-10.6,12.6-19.8,31.2-19.8,31.2c-13.8,20.5-18.8,79.4-18.8,79.4v41.3l-1.7,54.6
							c-1.2,20.8-14,17.9-14,17.9c-12.3-2.7-10.6-26.8-10.6-26.8c3.1-34.3-2.4-80.2-2.4-80.2l-2.2-0.2c0.2,18.6-5.1,67.8-5.1,67.8
							c-1.2,15.9-9.2,56.3-9.2,56.3c-7.7,22.4-23.7,12.8-23.7,12.8c-10.6-9.4,2.7-62,2.7-62c0-16.2,8.7-71.2,8.7-71.2l-2.2-0.5
							c-12.6,49.3-15,71.2-15,71.2c-12.8,57.5-17.9,60.6-17.9,60.6c-10.4,11.1-19.8,0-19.8,0c-8.9-8.4-0.5-29.2-0.5-29.2
							c1.4-10.9,15-66.4,15-66.4l12-42.8l-2.4-1c-15,14.5-33.6,102.1-33.6,102.1c-5.3,20.8-20.6,11.6-20.6,11.6
							c-17.4-11.1-4.4-39.6-4.4-39.6l20.8-69.5c8.2-15.9,12.5-47.1,12.5-47.1l-4.3,4.6l-15,17.4c-7.2,11.1-15.5,11.1-15.5,11.1
							c-21.7,0.5-17.9-22.7-17.9-22.7l43.9-43.5c0,0,14.2-28.2,31.1-38.4c0,0,48.5-22.4,54.1-39.1l8.9-17.2l4.6-20.8l18.4-68.6
							c0,0,46.4-153.9,59.5-172.4c0,0,30.4-73.9,32.2-110.8l7.6-119.9l3.3-86.6c0,0-7.6-68.1,83.3-118.4c0,0,47.1-26.4,105-37.7
							c0,0,35.9-13.4,35.5-64.5l8.3-67"/>
						<path class="st6" d="M374.6,777.8c0,0-30.1,27.8-42.6,98.8l-21.9,97.2c0,0-26,146.9-60.1,203.4l-30.5,62.3
							c0,0-39.5,71.7-41.1,73.9s-10.1,12.5-10.1,12.5"/>
						<path class="st6" d="M332,876.6l-37.1,138.4c0,0-15.2,80.8-52.1,165.2l-28.8,69.5"/>
						<path class="st9" d="M340.5,999c0,0-12.8,6-21.2,32.3c0,0-6.8,31.2,0,49"/>
						<path class="st6" d="M302.2,987.8c0,0-11.6-34.9-55.1-34.9h-9.9"/>
						<path class="st6" d="M302.2,987.8c0,0-18.6,4-38.7-8.8c0,0-15.2-10.1-25.6-26.1"/>
						<path class="st6" d="M302.2,987.8c-0.4,1.4-43.5,27.6-55.1,17s-9.2-50.7-9.2-50.7"/>
						<path class="st6" d="M263,748.1c0,0,24.2,42,2.4,119.3l-12.1,36.7"/>
						<path class="st1" d="M334.5,691.4c2.9,0.5,5.2,2.2,7.2,4.1c2,1.9,3.8,4.1,5.3,6.4c3,4.7,5.5,9.6,7.5,14.8
							c2,5.2,3.8,10.4,5.7,15.6l5.5,15.6c3.7,10.4,7.5,20.7,11.6,30.9s8.3,20.4,13,30.3c2.4,5,4.9,9.9,7.6,14.6
							c2.6,4.8,5.7,9.3,9,13.7c1.7,2.1,3.5,4.1,5.6,5.8l0.8,0.7c0.2,0.2,0.5,0.4,0.8,0.6c0.5,0.4,1.1,0.8,1.7,1.2
							c1.1,0.7,2.3,1.5,3.5,2.2c9.4,5.6,19.5,10.1,30,13.2c5.2,1.6,10.6,2.8,16,3.6c5.4,0.8,10.9,1.2,16.4,1.2
							c5.5,0,11-0.5,16.4-1.5l0.1,0.4c-10.8,2.3-22,2.8-33,1.3c-11-1.5-21.8-4.5-32-9c-5.1-2.2-10.1-4.7-14.8-7.5
							c-1.2-0.7-2.4-1.4-3.5-2.2c-0.6-0.4-1.2-0.8-1.7-1.2c-0.3-0.2-0.6-0.4-0.9-0.6l-0.8-0.7c-2.1-1.9-4.1-3.9-5.8-6.1
							c-3.4-4.4-6.5-9.1-9.1-13.9c-2.7-4.8-5.2-9.8-7.6-14.8c-9.5-20-17-40.8-24.3-61.6l-5.4-15.7c-1.8-5.2-3.5-10.5-5.4-15.6
							c-1.8-5.2-4.2-10.1-7.1-14.8c-1.5-2.3-3.2-4.5-5.1-6.4c-1-0.9-2-1.8-3.2-2.5c-1.1-0.7-2.4-1.3-3.7-1.5L334.5,691.4z"/>
						<path class="st9" d="M404.6,528.3c-0.2,11.8-1,23.6-2.5,35.3c0,0-4.3,34.1-13.8,60.3c-12.8,35.4-58.8,78.7-124.9,111.1"/>
						<path class="st6" d="M404.6,528.3c0,0,34.2,10.7,110.5,18.4c0,0,31.9,1,40.6,14.5"/>
						<path class="st6" d="M539.5,550.9c0,0-62.2-0.4-102.6,22c-17.3,9.3-32.4,22.2-44.3,37.8"/>
						<path class="st10" d="M507.9,390.3l-4.9,57.9c0,0,1.1,43.5-22.9,61.3c0,0-9.5,9.7-32.7,9.7"/>
						<path class="st11" d="M586.8,174v22.7c0,0,23.2-19.3,47.3-18.8l13.5,0.5c0,0,25.1-2.9,31.4,0c0,0,5.3-1.9,0-4.3l-28.4-5.3
							c0,0-17.5-1.4-24.8-3.9C625.9,164.8,596.4,167.7,586.8,174z"/>
						<path class="st2" d="M574.7,170.6c0,0,9.7-2.4,12.1,3.4v128.1"/>
						<path class="st2" d="M586.8,302.1c0,7.3-5.9,13.2-13.2,13.2"/>
						<path class="st2" d="M584.4,310.1c0-5.3-4.3-9.7-9.7-9.7l0,0"/>
						<path class="st2" d="M586.8,292.4l8.5,16.3c0,0-5,9.5-12.7,3.1"/>
						<path class="st2" d="M647.6,178.3c-18,3.4-33.9,14-44.1,29.3c0,0-15.1,18.1-16.8,61.9"/>
						<path class="st2" d="M599.4,214.4c0,0,22.3-5,46.6,9.5c0,0,17.4,9.4,13,17.4c0,0-20.6,7.2-51.4,0"/>
						<path class="st2" d="M658,234c0,0-19-9.7-36.3-3.2c0,0-10.5,2.5-14.1,10.5"/>
						<path class="st2" d="M592.9,230.5c0,0,21.2,24.9,52.3,27.5c0,0,18.5-0.7,26.4-9.8"/>
						<circle class="st2" cx="676.4" cy="244.5" r="6"/>
						<line class="st2" x1="682.3" y1="159.1" x2="677.8" y2="238.6"/>
						<path class="st2" d="M659,241.3c0,0-10,16.7-39.6,9.2"/>
						<path class="st2" d="M644.7,383.3c-10.2-34.3,5.9-68,5.9-68c15.1-26.7,27.2-34.2,27.2-34.2c13.8-18.4,2.3-30.6,2.3-30.6
							l-0.7-0.9"/>
						<line class="st12" x1="670.4" y1="287.7" x2="690.1" y2="310.1"/>
						<path class="st2" d="M586.8,294.9c0,0,5.9-12.7,20.8-10.9c0,0,11.5,1.6,31.6,5.3c0,0,23.8,4.9,31.2-1.7"/>
						<polyline class="st2" points="690.1,226.8 707.5,236.1 703.2,269.6 690.1,277.5 						"/>
						<path class="st2" d="M605.6,357.3c0,0-4.8-9.1-18.8-11.3h-12.1"/>
						<path class="st2" d="M590.2,367c-1.6,1.5-3.6,2.4-5.8,2.5h-9.7"/>
						<path class="st1" d="M574.5,429.4c6.7-0.6,13.2-2,19.6-4.2c6.3-2.2,12.4-5.1,18-8.8c5.6-3.7,10.8-7.9,15.5-12.7
							c4.7-4.8,8.9-10,12.5-15.7l0.1-0.2l0.1-0.1c15.1-15.5,31.3-30,48.5-43.2l0,0l-0.8,1.6c-0.1-16.1,0-32.2-0.1-48.3l0.2-48.3
							c0-16.1,0.2-32.2,0.3-48.3l0.2-24.1l0.1-12.1v-6v-3c0-1.1,0.4-2.2,1.2-3c0.7,0.8,1.1,1.9,1.2,3v9l0.1,12.1l0.2,24.1
							c0.1,16.1,0.3,32.2,0.3,48.3l0.2,48.3c0,16.1,0,32.2-0.1,48.3v1l-0.8,0.6l0,0c-17,13.1-33.1,27.4-48.1,42.9l0.2-0.3
							c-3.8,5.9-8.1,11.3-13,16.3c-4.9,5-10.3,9.5-16.2,13.3c-11.8,7.7-25.3,12.4-39.3,13.6L574.5,429.4z"/>
						<path class="st1" d="M690.1,306.3c0-0.4,0-0.9,0.1-1.3c0.1-0.4,0.2-0.7,0.3-1.1c0.2-0.7,0.6-1.3,1-1.8l-0.1,0.1l4.2-6.3
							c1.5-2.1,2.9-4.2,4.4-6.2s3-4.1,4.5-6.1s3.1-4,4.8-5.9l-0.3,1l0,0c0.1-3.9,0.3-7.8,0.8-11.6c0.4-3.8,0.9-7.6,1.5-11.4
							c1.1-7.6,2.4-15.1,3.7-22.7l0,0l0.7,1.9c-4.1-3.2-8.1-6.5-12.1-9.9s-7.8-6.9-11.7-10.4l0.1,0.1c-0.4-0.3-0.8-0.7-1.2-1.1
							c-0.4-0.5-0.7-1.1-0.8-1.7l0.1-0.1c0.6-0.1,1.2-0.1,1.8,0.1c0.5,0.1,1,0.3,1.5,0.6l0,0l0.1,0.1c4.2,3.1,8.4,6.2,12.5,9.4
							s8.2,6.4,12.1,9.9l0.9,0.8l-0.2,1.1l0,0c-1.5,7.5-2.8,15-4,22.5c-0.6,3.8-1.1,7.5-1.6,11.3c-0.5,3.7-0.8,7.5-0.9,11.2l0,0v0.4
							l-0.3,0.6c-1.3,2.2-2.8,4.2-4.2,6.3s-2.9,4.1-4.4,6.1s-3,4-4.6,6l-4.7,5.9l-0.1,0.1l0,0c-0.5,0.5-1,0.9-1.7,1.3
							c-0.3,0.2-0.7,0.3-1,0.4C691,306.1,690.6,306.2,690.1,306.3z"/>
						<path class="st11" d="M563,174v22.7c0,0-23.2-19.3-47.3-18.8l-13.5,0.5c0,0-25.1-2.9-31.4,0c0,0-5.3-1.9,0-4.3l28.4-5.3
							c0,0,17.5-1.4,24.7-3.9C524,164.8,553.4,167.7,563,174z"/>
						<path class="st2" d="M575.1,170.6c0,0-9.7-2.4-12.1,3.4v128.1"/>
						<path class="st2" d="M563,302.1c0,7.3,5.9,13.2,13.2,13.2"/>
						<path class="st2" d="M565.4,310.1c0-5.4,4.3-9.7,9.7-9.7l0,0l0,0"/>
						<path class="st2" d="M563,292.4l-8.5,16.3c0,0,5,9.5,12.7,3.1"/>
						<path class="st2" d="M502.2,178.3c18.1,3.4,33.9,14,44.1,29.3c0,0,15.1,18.1,16.8,61.9"/>
						<path class="st2" d="M550.5,214.4c0,0-22.3-5-46.6,9.5c0,0-17.4,9.4-13,17.4c0,0,20.6,7.2,51.4,0"/>
						<path class="st2" d="M491.8,234c0,0,19-9.7,36.3-3.2c0,0,10.5,2.5,14.1,10.5"/>
						<path class="st2" d="M557,230.5c0,0-21.2,24.9-52.4,27.5c0,0-18.5-0.7-26.4-9.8"/>
						<circle class="st2" cx="473.5" cy="244.5" r="6"/>
						<polyline class="st2" points="472,238.6 467.5,159.1 466.5,148.2 						"/>
						<path class="st2" d="M490.9,241.3c0,0,10,16.7,39.6,9.2"/>
						<path class="st2" d="M505.1,383.3c10.2-34.3-5.9-68-5.9-68c-15.1-26.6-27.2-34.1-27.2-34.1c-13.8-18.4-2.3-30.6-2.3-30.6
							l0.6-0.9"/>
						<line class="st12" x1="479.5" y1="287.7" x2="459.7" y2="310.1"/>
						<path class="st2" d="M563,294.9c0,0-5.9-12.7-20.8-10.9c0,0-11.5,1.6-31.6,5.3c0,0-23.8,4.9-31.2-1.7"/>
						<polyline class="st2" points="459.7,226.8 442.3,236.1 446.7,269.6 459.7,277.5 						"/>
						<path class="st2" d="M544.2,357.3c0,0,4.8-9.1,18.8-11.3h12.1"/>
						<path class="st2" d="M559.7,367c1.6,1.5,3.6,2.4,5.8,2.5h9.7"/>
						<path class="st2" d="M531.2,351.6c4,2.6,8.4,4.6,13,5.6c5.5,1.2,8.8,0.8,23,0.8c4.2,0,7.7,0.1,9.9,0.1"/>
						<path class="st2" d="M617.7,351.6c-4,2.6-8.4,4.5-13,5.6c-5.5,1.2-8.8,0.8-23,0.8c-4.2,0-7.7,0.1-9.9,0.1"/>
						<path class="st1" d="M575,433.3c-14-1.2-27.6-5.8-39.4-13.5c-5.9-3.8-11.3-8.3-16.2-13.3c-4.9-5-9.3-10.5-13-16.4l0.3,0.3
							c-15-15.4-31.1-29.7-48.1-42.9l-0.8-0.6v-1l0-96.5c0-16.1,0-32.2,0.1-48.3l0.2-24.1l0.1-12.1v-3c-0.1-1,0-2,0.3-3
							c0.5-1,0.9-2,1.1-3c0.1-1,0-2,0-3v3c0.3,1,0.6,2,1.1,3c0.3,1,0.4,2,0.3,3v3l0.1,12.1l0.2,24.1c0.1,16.1,0.1,32.2,0.1,48.3
							l0,96.5l-0.8-1.6c17.2,13.2,33.4,27.7,48.6,43.2l0.1,0.1l0.1,0.2c3.7,5.6,7.9,10.9,12.5,15.7c4.7,4.8,9.9,9.1,15.5,12.7
							c5.6,3.7,11.6,6.6,17.9,8.8c6.3,2.2,12.9,3.6,19.6,4.2L575,433.3z"/>
						<path class="st1" d="M459.7,306.3c-0.7-0.2-1.4-0.5-2.1-0.9c-0.6-0.4-1.1-0.8-1.6-1.3H456c-3.1-4-6.2-8-9.2-12
							c-1.5-2-3-4.1-4.4-6.1s-2.9-4.1-4.2-6.3l-0.2-0.4v-0.4l0,0c-0.1-3.8-0.4-7.5-0.9-11.3c-0.5-3.8-1-7.5-1.6-11.3
							c-1.2-7.5-2.5-15-4-22.5l0,0l-0.2-0.8l0.7-0.6c2-1.7,4-3.3,6-5s4-3.3,6.1-4.9c4.1-3.2,8.2-6.4,12.4-9.5l0.1-0.1l0,0
							c0.5-0.3,1-0.5,1.5-0.6c0.6-0.2,1.1-0.3,1.7-0.3l0.1,0.1c-0.2,0.5-0.5,1-0.9,1.5c-0.4,0.4-0.8,0.8-1.2,1.1l0.1-0.1
							c-3.9,3.4-7.8,6.9-11.8,10.2c-2,1.7-4,3.3-6,5c-2,1.6-4,3.3-6.1,4.9l0.5-1.4l0,0c1.4,7.5,2.6,15.1,3.8,22.7
							c0.6,3.8,1.1,7.6,1.5,11.4c0.5,3.8,0.7,7.7,0.8,11.6l0,0l-0.2-0.8c1.6,1.9,3.1,4,4.7,6s3,4,4.5,6.1c3,4.1,5.8,8.2,8.7,12.4
							l-0.1-0.1c0.4,0.5,0.8,1.1,1.1,1.8C459.4,304.9,459.6,305.6,459.7,306.3z"/>
						<line class="st2" x1="498.1" y1="379.1" x2="497.8" y2="385.6"/>
						<line class="st2" x1="651.3" y1="379.1" x2="651" y2="385.6"/>
						<line class="st2" x1="574.7" y1="170.6" x2="574.7" y2="300.4"/>
						<path class="st13" d="M756.3,747.4c0-103-83.5-186.4-186.4-186.4s-186.4,83.5-186.4,186.4c0,36.9,10.9,73,31.5,103.6
							c0,0.9-0.1,1.7-0.1,2.6c0,76.9,62.3,139.3,139.3,139.3c62.4,0,117.2-41.5,134.1-101.6C731.4,856,756.4,803.1,756.3,747.4z"/>
						<g>
							<defs>
								<path id="SVGID_1_" d="M751.3,748.2c0-100.2-81.2-181.4-181.4-181.4c-100.2,0-181.4,81.2-181.4,181.4
									c0,35.9,10.6,71,30.6,100.8c0,0.8-0.1,1.7-0.1,2.5c0,74.9,60.7,135.6,135.6,135.6c60.7,0,114.1-40.4,130.5-98.9
									C727,853.8,751.3,802.4,751.3,748.2z"/>
							</defs>
							<clipPath id="SVGID_2_">
								<use xlink:href="#SVGID_1_"  style="overflow:visible;"/>
							</clipPath>
							<g class="st14">
								<path class="st15" d="M501.3,578.6c0,0-61.8,31.9-78.2,89.8c0,0-22.2,56-24.1,115.9c0,0-8.7,42.5,34.8,42.5
									c0,0,15.5-8.7,30.9-9.7l59.9-2.9l25.1-1l9.7-17.4c0,0-27-6.8-30.9-32.8v-51.2L525.5,595l-2.9-16.4l-2.9-8.7L501.3,578.6z"/>
								<path class="st16" d="M465.6,603.7c2,18.7,2.7,37.5,2,56.2c-0.4,9.7-1,19-2,27.8c-1,8.7-2.8,17.3-5.3,25.7
									c-3.1,10.2-5.5,17.8-11.9,25.8c-3.4,4.3-7.5,8-12,11.1c-14.1,8.7-26.7,19.5-37.5,32c0,0,8.7-81.1,20.3-101.4
									c0,0,19.3-55,32.8-62.8L465.6,603.7z"/>
								<path class="st17" d="M398,792.1c0,0,11.5,12.5,46.4,12.5h91.7l16.4,5.8c0,0-101.4-1-112,15.5c0,0-36.7,1-42.5-22.2
									L398,792.1z"/>
								<path class="st18" d="M398,792.1c0,0,11.5,12.5,46.4,12.5h91.7l16.4,5.8c0,0-101.4-1-112,15.5c0,0-36.7,1-42.5-22.2
									L398,792.1z"/>
								<path class="st19" d="M504.8,577c0,0,17.7-11.8,13.9,68.3l0.5,104.3c0,0-6.3,46.4,16.8,55l16.4,5.8l6.8-14.5l-14.5-7.7
									c0,0-20.3,3.9-16.4-60.8l-2.1-101.5c0,0,4.1-48.2-11.4-56L504.8,577z"/>
								<path class="st17" d="M504.8,577c0,0,17.7-11.8,13.9,68.3l0.5,104.3c0,0-6.3,46.4,16.8,55l16.4,5.8l6.8-14.5l-14.5-7.7
									c0,0-20.3,3.9-16.4-60.8l-2.1-101.5c0,0,4.1-48.2-11.4-56L504.8,577z"/>
								<path class="st20" d="M501.3,578.6c0,0-61.8,31.9-78.2,89.8c0,0-22.2,56-24.1,115.9c0,0-8.7,42.5,34.8,42.5
									c0,0,15.5-8.7,30.9-9.7l59.9-2.9l25.1-1l9.7-17.4c0,0-27-6.8-30.9-32.8v-51.2L525.5,595l-2.9-16.4l-2.9-8.7L501.3,578.6z"/>
								<path class="st21" d="M681.4,599.9c0,0,33.3,28.5,48.3,83.5c0,0,24.1,73.9,18.8,108.7c0,0,3.9,32.4-24.6,33.8h-98.5
									c0,0-30.9,0-34.3-28.5l-6.8-54.6l4.3-101.9l6.3-54.1l22.2-31.4l36.7,12.1L681.4,599.9z"/>
								<path class="st22" d="M595.5,810.4c9.2-5.5,19.8-8.2,30.4-7.7l98.5-0.1c0,0,21.3,0.5,24.7-15.1c0,0,1.9,31.6-18.6,37.4
									l-98.3,1c0,0-21.4,1-29.1-7.2L595.5,810.4z"/>
								<path class="st23" d="M595.5,810.4c9.2-5.5,19.8-8.2,30.4-7.7l98.5-0.1c0,0,21.3,0.5,24.7-15.1c0,0,1.9,31.6-18.6,37.4
									l-98.3,1c0,0-21.4,1-29.1-7.2L595.5,810.4z"/>
								<path class="st24" d="M632.1,560.4v82l-5.3,132.3c0,0-1.5,26.6-18.3,30.9l-13.1,4.8l-10.2-60.9l0.8-45.8l2.7-62.8l6.3-54.1
									l15.6-22l6.7-9.4L632.1,560.4z"/>
								<path class="st25" d="M632.1,560.4v82l-5.3,132.3c0,0-1.5,26.6-18.3,30.9l-13.1,4.8l-10.2-60.9l0.8-45.8l2.7-62.8l6.3-54.1
									l15.6-22l6.7-9.4L632.1,560.4z"/>
								<path class="st23" d="M681.4,599.9l3.4,90.3c0,0,3.9,44.9,30.9,63.3c0,0,34.3,19.3,33.6,29l-3.1-32.9l-13.5-56.4L717,649.4
									l-25-38.5L681.4,599.9z"/>
								<path class="st26" d="M681.4,599.9c0,0,33.3,28.5,48.3,83.5c0,0,24.1,73.9,18.8,108.7c0,0,3.9,32.4-24.6,33.8h-98.5
									c0,0-30.9,0-34.3-28.5l-6.8-54.6l4.3-101.9l6.3-54.1l22.2-31.4l36.7,12.1L681.4,599.9z"/>
								<path class="st27" d="M648.1,843.2c0,0,16.9-22.7,45.9-8.2c0,0,18.3,13,22.2,21.2l2.9,29.5L687.2,906l-18.8-3.4l-25.6-40.1
									L648.1,843.2z"/>
								<path class="st28" d="M675.2,830.2c0,0,23.2,8.5,34.5,35.6l6.8-6.7l-2.8-6.7L694,835l-13-4.8L675.2,830.2z"/>
								<path class="st29" d="M648.1,843.2c0,0,16.9-22.7,45.9-8.2c0,0,18.3,13,22.2,21.2l2.9,29.5L687.2,906l-18.8-3.4l-25.6-40.1
									L648.1,843.2z"/>
								<path class="st30" d="M675.2,830.2c0,0,17.4,8.7,25.1,19.8c0,0,13,17.4,11.1,24.6"/>
								<path class="st31" d="M623.5,836.7c0,0,45.4-4.3,56,57.2s-69.8,104.8-72.3,104.9s-41.1-4.2-41.1-4.2l-6.8-5.8
									c0,0-37.1-10.8-40-40.6c0,0-17.4-0.8-26.8,27.9s-24.5,0-24.5,0l7.4-17l22.9-32.6l20.3-4.3l10.9,4.3l5.6-4.3
									c0,0,31.9,8.8,39.3,0c0,0-10.8-1.5-4.3-8.8l8-9.4l22.5-31.2l15.9-27.3l-42.2,3.3l-14.9-22.2v-34.7h27l-4.8,6.8v19.8
									l25.7,14.5L623.5,836.7z"/>
								<path class="st32" d="M520.6,945.4c0,0,17.8,45.8,114.7,21c0,0-48.3,30.2-76.2,23.5C559.1,989.9,513.9,972.4,520.6,945.4z"
									/>
								<path class="st33" d="M520.6,945.4c0,0,17.8,45.8,114.7,21c0,0-48.3,30.2-76.2,23.5C559.1,989.9,513.9,972.4,520.6,945.4z"
									/>
								<path class="st34" d="M623.5,836.7c0,0,45.4-4.3,56,57.2s-69.8,104.8-72.3,104.9s-41.1-4.2-41.1-4.2l-6.8-5.8
									c0,0-37.1-10.8-40-40.6c0,0-17.4-0.8-26.8,27.9s-24.5,0-24.5,0l7.4-17l22.9-32.6l20.3-4.3l10.9,4.3l5.6-4.3
									c0,0,31.9,8.8,39.3,0c0,0-10.8-1.5-4.3-8.8l8-9.4l22.5-31.2l15.9-27.3l-42.2,3.3l-14.9-22.2v-34.7h27l-4.8,6.8v19.8
									l25.7,14.5L623.5,836.7z"/>
								<path class="st33" d="M529.3,926.5c0,0,8,12.2-7.6,21.1"/>
								<path class="st35" d="M464.6,965.9l18.8-12.8l31.4-22.7c4.8-3.8,10.4-6.5,16.4-7.7c9.7-1.9,61.1-18.8,75.8-38.4
									c0,0,31.4-35.7,13.3-51.9c0,0-19.6-16.7-45.2-15.2l-28.2-1.7l-72.7,1.2l-31.3,5.8l-5.7,4.3c0,0-10.8,16.9-13.7,31.2
									c0,0-4.4,56.3-4.1,57s8.5,22.9,8.7,23.7s14.2,15.5,14.2,15.5L464.6,965.9z"/>
								<path class="st36" d="M451.8,945.2l9.9-6.5c0,0,35-19.6,41.8-26.8c0,0,4.4-5.1,15.9-7.2l46.4-11.1c0,0,35.2-11.8,42-9.4
									l-9.9,8c-5.1,4.2-10.6,8-16.3,11.3c-4.5,2.6-9.2,4.8-14.1,6.7c-12.5,5.8-25.7,10-39.3,12.4c-4.8,0.7-9.3,2.9-12.8,6.3
									c0,0-24.1,19.1-29.5,22L470.2,962l-6.3,3.4l-21.5-11.3L451.8,945.2z"/>
								<path class="st37" d="M451.8,945.2l9.9-6.5c0,0,35-19.6,41.8-26.8c0,0,4.4-5.1,15.9-7.2l46.4-11.1c0,0,35.2-11.8,42-9.4
									l-9.9,8c-8.8,8-19.2,14.1-30.4,18c-4.9,2.1-9.9,4.1-15.2,6.1c-8.1,3.1-16,5.8-23.7,8.2c-5.1,0.4-10,2.5-13.8,6
									c-3.9,3.2-8.1,6.6-12.8,9.9c-5.6,4-11.1,7.4-16.2,10.4L470.2,962l-6.3,3.4l-13.3-9.4L451.8,945.2z"/>
								<path class="st38" d="M464.6,965.9l18.8-12.8l31.4-22.7c4.8-3.8,10.4-6.5,16.4-7.7c9.7-1.9,61.1-18.8,75.8-38.4
									c0,0,31.4-35.7,13.3-51.9c0,0-19.6-16.7-45.2-15.2l-28.2-1.7l-72.7,1.2l-31.3,5.8l-5.7,4.3c0,0-10.8,16.9-13.7,31.2
									c0,0-4.4,56.3-4.1,57s8.5,22.9,8.7,23.7s14.2,15.5,14.2,15.5L464.6,965.9z"/>
								<path class="st39" d="M529.3,715.8v52.2c0,0,9.5,30.9,40.6,30.9h85c0,0,41.5-11.6,29.9-47.3c0,0-4.8-26.1-34.8-42.5
									l-20.3-11.6c0,0-6.7,18.3-21.7,10.6c0,0-14.1-7.7-16-10.6l-1.9-2.9c0,0-2.9,20.3-20.3,16.4c0,0-4.8,25.1-25.1,18.3
									L529.3,715.8z"/>
								<path class="st40" d="M530.3,754.4c0,0,10.6,21.2,31.9,20.3h86c0,0,32.8-7.7,35.7-20.3c0,0,4.8,37.7-29.9,40.6h-91.8
									c0,0-24.1-5.8-31.9-31.9V754.4z"/>
								<path class="st41" d="M529.3,715.8v52.2c0,0,9.5,30.9,40.6,30.9h85c0,0,41.5-11.6,29.9-47.3c0,0-4.8-26.1-34.8-42.5
									l-20.3-11.6c0,0-6.7,18.3-21.7,10.6c0,0-14.1-7.7-16-10.6l-1.9-2.9c0,0-2.9,20.3-20.3,16.4c0,0-4.8,25.1-25.1,18.3
									L529.3,715.8z"/>
								<path class="st42" d="M603.6,597.3l-5.4,2.5c0,0-2.9,0.2-1.2-1.9l11.6-7.4l23.7-15.7l-10.2-8.7l-16.7-5.1l-11.2,5.1
									l-14.8,10.1l-5.8-5.1l-26.4,30.1l-2.2,5.4v73.9c0,0-2.2,22.1,12,23.5c0,0,8.7,3.6,9,9c0,0,23.9-0.7,28.2-12v-2.5
									c0,0-6.9-13.8,0-20.7l21.4-25.3v-34.4C615.6,618.3,617.7,599.5,603.6,597.3z M581.5,669.4v-40.6
									C581.5,640.4,598.8,657.8,581.5,669.4L581.5,669.4z"/>
								<path class="st43" d="M594.1,566.2l-14.8,10.1l-5.8-5.1l-26.4,30.1l-2.2,5.4v73.9c0,0-2.2,22.1,12,23.5c0,0,8.7,3.6,9,9
									c0,0,23.9-0.7,28.2-12v-2.5c0,0-6.9-13.8,0-20.7l21.4-25.3v-34.4c0,0,2.2-18.8-12-21l-5.4,2.5c0,0-2.9,0.2-1.2-1.9l11.6-7.4
									l23.7-15.7l-10.1-8.7l-16.7-5.1L594.1,566.2z"/>
								<path class="st44" d="M616.2,571.6c-0.7,1.1-55,36.2-56.5,43.5s0,66.3,0,66.3s11.2,13,15.2,13.8"/>
								<line class="st44" x1="559.1" y1="589" x2="559.1" y2="619.1"/>
								<path class="st44" d="M579,610.4c0,0,10.5-15.6,18.1,6.2s8.3,35.1,8.3,35.1v11.6"/>
								<path class="st43" d="M555,701.3c13,11.2,26.4,6.5,26.4,6.5c21.7-18.1,1.1-34.8,0-34.8c0,0-5.1-1.1-3.3-11.2l-0.4-29.7v-4
									c0,0,8.3,14.5,9.8,16.7s5.8,20.9-3.3,23.7l-5.4,6.8"/>
								<path class="st45" d="M586.3,563.2c0,0-34.8,23.2-39.6,41.5v81.1c0,0-1,16.4,7.7,17.4c0,0,15.4,5.8,12.1,19.3
									c0,0-7.3,12.6-19.8,6.8c0,0-23.2-9.7-25.1-33.8V594.1c0,0-5.8-21.2-14.5-20.3l23.2-10.6l8.7,9.7l20.3-9.7H586.3z"/>
								<path class="st46" d="M566,566.1c0,0-24.2,21.2-29,30.9s0,87.9,0,87.9s-0.2,24.2,13.4,29l15.6,6.7"/>
								<path class="st46" d="M521.6,569.9c0,0,13.3,12.5,13.3,31.9"/>
								<path class="st47" d="M586.3,563.2c0,0-34.8,23.2-39.6,41.5v81.1c0,0-1,16.4,7.7,17.4c0,0,15.4,5.8,12.1,19.3
									c0,0-7.3,12.6-19.8,6.8c0,0-23.2-9.7-25.1-33.8V594.1c0,0-5.8-21.2-14.5-20.3l23.2-10.6l8.7,9.7l20.3-9.7H586.3z"/>
								<path class="st48" d="M627.1,698.4c0,0-10.9,14.8-25,4.7c0,0-10.5-6.2-10.9-15.9c-0.7-4,0.8-8,4-10.5l31.9-33.7
									c0,0,18.8-17.4,38-4.7c0,0,20.3,10.2,12.7,34c0,0-3.6,12.3-13.4,20.3l-15.2,14l-15.9-13.3l21.4-21.3"/>
								<path class="st49" d="M627.6,698.7c-2.2,4.8-6.5,8.3-11.6,9.5c-1.3,0.3-2.7,0.4-4,0.3c-1.3-0.1-2.6-0.3-3.9-0.7
									c-2.4-0.8-4.7-2.1-6.8-3.6l0.1,0.1c-1.5-0.9-2.9-2-4.2-3.2c-1.3-1.2-2.5-2.5-3.5-3.9c-1.1-1.4-1.9-3-2.6-4.7
									c-0.7-1.7-1.1-3.5-1.1-5.3v0.3c-0.2-1.1-0.3-2.2-0.1-3.4c0.1-1.1,0.4-2.2,0.8-3.2c0.4-1,0.9-2,1.6-2.8
									c0.6-0.9,1.4-1.6,2.2-2.3l-0.1,0.1l30.3-31.7c0.7-0.7,1.2-1.3,2-2s1.5-1.2,2.2-1.8c1.5-1.1,3.1-2.1,4.7-3
									c3.3-1.8,6.8-3.2,10.5-4c3.7-0.8,7.5-0.8,11.2-0.1c3.7,0.8,7.2,2.2,10.3,4.3h-0.1c3.2,1.8,6,4.2,8.3,7
									c3.6,4.2,5.7,9.3,6.2,14.8c0.1,0.9,0.1,1.8,0.1,2.7c0,0.9,0,1.8-0.2,2.7c-0.4,3.6-1.2,7.1-2.6,10.5
									c-2.6,6.7-6.8,12.7-12.2,17.5L649.5,707l0,0l-0.4,0.3l-0.4-0.3l-15.9-13.3l0,0l-0.5-0.4l0.4-0.5c3.5-3.6,7.1-7.2,10.7-10.7
									l5.5-5.2c1.8-1.8,3.7-3.5,5.7-5c-1.5,2-3.2,3.9-5,5.7l-5.3,5.3c-3.5,3.6-7.1,7.2-10.7,10.7v-0.8l0,0l15.9,13.3h-0.8
									l15.6-14.4c5.3-4.6,9.3-10.5,11.8-17c1.3-3.2,2.1-6.6,2.5-10.1c0.1-0.9,0.1-1.7,0.1-2.6c0-0.9,0-1.7-0.1-2.6
									c-0.2-1.7-0.5-3.4-1-5.1c-2.2-6.6-6.9-12.1-13-15.4h-0.1c-3-2-6.3-3.3-9.8-4c-3.5-0.6-7.1-0.5-10.5,0.2
									c-3.5,0.8-6.8,2.1-9.9,3.8c-1.5,0.9-3,1.9-4.5,2.9c-0.7,0.5-1.4,1.1-2.1,1.7s-1.2,1.3-1.8,1.9l-30,32l0,0l-0.1,0.1
									c-0.7,0.6-1.3,1.3-1.8,2c-0.5,0.7-0.9,1.5-1.2,2.3c-0.3,0.8-0.5,1.7-0.6,2.5c-0.1,0.8-0.1,1.7,0.1,2.5v0.3
									c0.1,1.5,0.4,3,1,4.5c0.6,1.4,1.4,2.8,2.3,4c0.9,1.3,2,2.4,3.2,3.5c1.2,1.1,2.4,2,3.8,2.8h0.1c1.8,1.3,3.8,2.2,6,2.6
									c2.1,0.3,4.2,0.2,6.2-0.3c2.1-0.5,4.1-1.4,6-2.5c2-1.1,3.9-2.4,5.7-3.8L627.6,698.7z"/>
								<polygon class="st49" points="626.2,697.3 632.3,692.2 634.2,694.5 628,699.5 								"/>
								<path class="st50" d="M595.5,697.3c0,0-1.4-4,4.1-6.9l21.7-20.3l20.3-21c0,0,15-14.5,27.8-8"/>
							</g>
						</g>
						<path class="st51" d="M756.3,747.4c0-103-83.5-186.4-186.4-186.4s-186.4,83.5-186.4,186.4c0,36.9,10.9,73,31.5,103.6
							c0,0.9-0.1,1.7-0.1,2.6c0,76.9,62.3,139.3,139.3,139.3c62.4,0,117.2-41.5,134.1-101.6C731.4,856,756.4,803.1,756.3,747.4z"/>
						<circle class="st52" cx="571.8" cy="1458.5" r="100.4"/>
						<circle class="st53" cx="571.8" cy="1458.5" r="88.6"/>
						<g>
							<defs>
								<circle id="SVGID_3_" cx="571.8" cy="1458.5" r="88.6"/>
							</defs>
							<clipPath id="SVGID_4_">
								<use xlink:href="#SVGID_3_"  style="overflow:visible;"/>
							</clipPath>
							<g class="st54">
								<polygon class="st55" points="557.7,1389.6 560.2,1385.1 561.9,1390 567.1,1390 563.6,1393.9 566.2,1398.4 561.1,1397.3 
									558.5,1401.9 556.9,1396.9 551.7,1396.9 555.2,1393 552.5,1388.5 								"/>
								<polygon class="st56" points="560.5,1391.5 558.3,1391.5 557.2,1393.5 558.3,1395.4 560.5,1395.4 561.6,1393.5 								"/>
								<polygon class="st55" points="555.4,1469.1 558,1464.6 559.6,1469.5 564.9,1469.5 561.4,1473.4 564,1477.9 558.9,1476.8 
									556.3,1481.4 554.7,1476.4 549.5,1476.4 553,1472.5 550.3,1468 								"/>
								<polygon class="st56" points="558.3,1471 556,1471 554.9,1472.9 556,1474.9 558.3,1474.9 559.4,1472.9 								"/>
								<polygon class="st55" points="495.6,1440.4 498.2,1435.8 499.9,1440.8 505.1,1440.8 501.6,1444.7 504.2,1449.2 
									499.1,1448.1 496.5,1452.6 494.9,1447.6 489.7,1447.7 493.2,1443.8 490.5,1439.3 								"/>
								<polygon class="st56" points="498.5,1442.3 496.3,1442.3 495.1,1444.2 496.3,1446.2 498.5,1446.2 499.6,1444.2 								"/>
								<polygon class="st55" points="637.4,1456.1 640,1451.5 641.6,1456.5 646.8,1456.5 643.3,1460.4 646,1464.9 640.8,1463.8 
									638.2,1468.3 636.6,1463.3 631.4,1463.4 634.9,1459.5 632.3,1455 								"/>
								<polygon class="st56" points="640.2,1458 638,1458 636.9,1459.9 638,1461.9 640.2,1461.9 641.3,1459.9 								"/>
								<polygon class="st55" points="584,1524.6 586.6,1520.1 588.2,1525.1 593.5,1525 590,1528.9 592.6,1533.4 587.5,1532.3 
									584.9,1536.9 583.3,1531.9 578,1531.9 581.5,1528.1 578.9,1523.6 								"/>
								<polygon class="st56" points="586.9,1526.6 584.6,1526.6 583.5,1528.5 584.6,1530.4 586.9,1530.4 588,1528.5 								"/>
								<path class="st57" d="M684.1,1451.1l1.6-1.2c0.1-0.1,0.2-0.1,0.3,0l7.3,9.6c0.1,0.1,0.1,0.2,0,0.3l-1.6,1.2
									c-0.1,0.1-0.2,0.1-0.3,0l-7.3-9.6C684,1451.3,684,1451.2,684.1,1451.1z"/>
								<path class="st57" d="M664.3,1469.5l1.6-1.2c0.1-0.1,0.2-0.1,0.3,0l7.3,9.6c0.1,0.1,0.1,0.2,0,0.3l-1.6,1.2
									c-0.1,0.1-0.2,0.1-0.3,0l-7.3-9.6C664.2,1469.7,664.2,1469.6,664.3,1469.5z"/>
								<path class="st57" d="M640.6,1487.4L640.6,1487.4c0.6-0.4,1.3-0.3,1.7,0.2l6.1,8.1c0.4,0.5,0.3,1.2-0.2,1.6l-0.1,0
									c-0.5,0.4-1.2,0.3-1.6-0.2l-6.1-8.1C640,1488.5,640.1,1487.8,640.6,1487.4z"/>
								<path class="st57" d="M620.5,1504L620.5,1504c0.6-0.4,1.3-0.3,1.7,0.2l6.1,8.1c0.4,0.5,0.3,1.2-0.2,1.6l-0.1,0
									c-0.5,0.4-1.2,0.3-1.6-0.2l-6.1-8.1C619.9,1505.2,620,1504.4,620.5,1504z"/>
								<path class="st57" d="M599.7,1522.4L599.7,1522.4c0.6-0.4,1.3-0.3,1.7,0.2l6.1,8.1c0.4,0.5,0.3,1.2-0.2,1.6l-0.1,0
									c-0.5,0.4-1.2,0.3-1.6-0.2l-6.1-8.1C599,1523.5,599.1,1522.8,599.7,1522.4z"/>
								<path class="st57" d="M578.8,1540.8L578.8,1540.8c0.6-0.4,1.3-0.3,1.7,0.2l6.1,8.1c0.4,0.5,0.3,1.2-0.2,1.6l-0.1,0
									c-0.5,0.4-1.2,0.3-1.6-0.2l-6.1-8.1C578.2,1542,578.3,1541.2,578.8,1540.8z"/>
								<path class="st57" d="M557.2,1559.8l1.6-1.2c0.1-0.1,0.2-0.1,0.3,0l7.3,9.6c0.1,0.1,0.1,0.2,0,0.3l-1.6,1.2
									c-0.1,0.1-0.2,0.1-0.3,0l-7.3-9.6C557.1,1560,557.1,1559.9,557.2,1559.8z"/>
								<path class="st57" d="M536.3,1578.2l1.6-1.2c0.1-0.1,0.2-0.1,0.3,0l7.3,9.6c0.1,0.1,0.1,0.2,0,0.3l-1.6,1.2
									c-0.1,0.1-0.2,0.1-0.3,0l-7.3-9.6C536.2,1578.4,536.2,1578.3,536.3,1578.2z"/>
								<path class="st57" d="M641.1,1428.4L641.1,1428.4c0.6-0.4,1.3-0.3,1.7,0.2l6.1,8.1c0.4,0.5,0.3,1.3-0.2,1.6l-0.1,0
									c-0.5,0.4-1.3,0.3-1.6-0.2l-6.1-8.1C640.4,1429.5,640.5,1428.8,641.1,1428.4z"/>
								<path class="st57" d="M623.8,1442.2L623.8,1442.2c0.6-0.4,1.3-0.3,1.7,0.2l6.1,8.1c0.4,0.5,0.3,1.2-0.2,1.6l-0.1,0
									c-0.5,0.4-1.2,0.3-1.6-0.2l-6.1-8.1C623.1,1443.4,623.2,1442.6,623.8,1442.2z"/>
								<path class="st57" d="M599.3,1460.7L599.3,1460.7c0.6-0.4,1.3-0.3,1.7,0.2l6.1,8.1c0.4,0.5,0.3,1.2-0.2,1.6l-0.1,0
									c-0.5,0.4-1.2,0.3-1.6-0.2l-6.1-8.1C598.7,1461.8,598.8,1461.1,599.3,1460.7z"/>
								<path class="st57" d="M579.2,1477.3L579.2,1477.3c0.6-0.4,1.3-0.3,1.7,0.2l6.1,8.1c0.4,0.5,0.3,1.2-0.2,1.6l-0.1,0
									c-0.5,0.4-1.2,0.3-1.6-0.2l-6.1-8.1C578.6,1478.4,578.7,1477.7,579.2,1477.3z"/>
								<path class="st57" d="M558.3,1495.7L558.3,1495.7c0.6-0.4,1.3-0.3,1.7,0.2l6.1,8.1c0.4,0.5,0.3,1.2-0.2,1.6l-0.1,0
									c-0.5,0.4-1.2,0.3-1.6-0.2l-6.1-8.1C557.7,1496.9,557.8,1496.1,558.3,1495.7z"/>
								<path class="st57" d="M537.5,1514.2L537.5,1514.2c0.6-0.4,1.3-0.3,1.7,0.2l6.1,8.1c0.4,0.5,0.3,1.2-0.2,1.6l-0.1,0
									c-0.5,0.4-1.2,0.3-1.6-0.2l-6.1-8.1C536.8,1515.3,536.9,1514.5,537.5,1514.2z"/>
								<path class="st57" d="M515.8,1533.1l1.6-1.2c0.1-0.1,0.2-0.1,0.3,0l7.3,9.6c0.1,0.1,0.1,0.2,0,0.3l-1.6,1.2
									c-0.1,0.1-0.2,0.1-0.3,0l-7.3-9.6C515.7,1533.3,515.7,1533.2,515.8,1533.1z"/>
								<path class="st57" d="M495,1551.5l1.6-1.2c0.1-0.1,0.2-0.1,0.3,0l7.3,9.6c0.1,0.1,0.1,0.2,0,0.3l-1.6,1.2
									c-0.1,0.1-0.2,0.1-0.3,0l-7.3-9.6C494.9,1551.7,494.9,1551.6,495,1551.5z"/>
								<path class="st57" d="M623.7,1382.4l1.6-1.2c0.1-0.1,0.2-0.1,0.3,0l7.3,9.6c0.1,0.1,0.1,0.2,0,0.3l-1.6,1.2
									c-0.1,0.1-0.2,0.1-0.3,0l-7.3-9.6C623.6,1382.6,623.6,1382.4,623.7,1382.4z"/>
								<path class="st57" d="M604.7,1400.2L604.7,1400.2c0.6-0.4,1.3-0.3,1.7,0.2l6.1,8.1c0.4,0.5,0.3,1.2-0.2,1.6l-0.1,0
									c-0.5,0.4-1.2,0.3-1.6-0.2l-6.1-8.1C604.1,1401.3,604.2,1400.6,604.7,1400.2z"/>
								<path class="st57" d="M580.2,1418.7L580.2,1418.7c0.6-0.4,1.3-0.3,1.7,0.2l6.1,8.1c0.4,0.5,0.3,1.2-0.2,1.6l-0.1,0
									c-0.5,0.4-1.2,0.3-1.6-0.2l-6.1-8.1C579.6,1419.8,579.7,1419,580.2,1418.7z"/>
								<path class="st57" d="M560.1,1435.3L560.1,1435.3c0.6-0.4,1.3-0.3,1.7,0.2l6.1,8.1c0.4,0.5,0.3,1.2-0.2,1.6l-0.1,0
									c-0.5,0.4-1.2,0.3-1.6-0.2l-6.1-8.1C559.5,1436.4,559.6,1435.7,560.1,1435.3z"/>
								<path class="st57" d="M539.3,1453.7L539.3,1453.7c0.6-0.4,1.3-0.3,1.7,0.2l6.1,8.1c0.4,0.5,0.3,1.2-0.2,1.6l-0.1,0
									c-0.5,0.4-1.2,0.3-1.6-0.2l-6.1-8.1C538.6,1454.8,538.7,1454.1,539.3,1453.7z"/>
								<path class="st57" d="M518.4,1472.1L518.4,1472.1c0.6-0.4,1.3-0.3,1.7,0.2l6.1,8.1c0.4,0.5,0.3,1.2-0.2,1.6l-0.1,0
									c-0.5,0.4-1.2,0.3-1.6-0.2l-6.1-8.1C517.8,1473.2,517.9,1472.5,518.4,1472.1z"/>
								<path class="st57" d="M497.5,1490.5L497.5,1490.5c0.6-0.4,1.3-0.3,1.7,0.2l6.1,8.1c0.4,0.5,0.3,1.2-0.2,1.6l-0.1,0
									c-0.5,0.4-1.2,0.3-1.6-0.2l-6.1-8.1C496.9,1491.6,497,1490.9,497.5,1490.5z"/>
								<path class="st57" d="M475.9,1509.5l1.6-1.2c0.1-0.1,0.2-0.1,0.3,0l7.3,9.6c0.1,0.1,0.1,0.2,0,0.3l-1.6,1.2
									c-0.1,0.1-0.2,0.1-0.3,0l-7.3-9.6C475.8,1509.7,475.8,1509.6,475.9,1509.5z"/>
								<path class="st57" d="M604.7,1340.3l1.6-1.2c0.1-0.1,0.2-0.1,0.3,0l7.3,9.6c0.1,0.1,0.1,0.2,0,0.3l-1.6,1.2
									c-0.1,0.1-0.2,0.1-0.3,0l-7.3-9.6C604.6,1340.5,604.6,1340.4,604.7,1340.3z"/>
								<path class="st57" d="M584.9,1358.7l1.6-1.2c0.1-0.1,0.2-0.1,0.3,0l7.3,9.6c0.1,0.1,0.1,0.2,0,0.3l-1.6,1.2
									c-0.1,0.1-0.2,0.1-0.3,0l-7.3-9.6C584.8,1358.9,584.8,1358.8,584.9,1358.7z"/>
								<path class="st57" d="M561.2,1376.6L561.2,1376.6c0.6-0.4,1.3-0.3,1.7,0.2l6.1,8.1c0.4,0.5,0.3,1.2-0.2,1.6l-0.1,0
									c-0.5,0.4-1.2,0.3-1.6-0.2l-6.1-8.1C560.6,1377.7,560.7,1377,561.2,1376.6z"/>
								<path class="st57" d="M541.1,1393.3L541.1,1393.3c0.6-0.4,1.3-0.3,1.7,0.2l6.1,8.1c0.4,0.5,0.3,1.2-0.2,1.6l-0.1,0
									c-0.5,0.4-1.2,0.3-1.6-0.2l-6.1-8.1C540.5,1394.4,540.6,1393.6,541.1,1393.3z"/>
								<path class="st57" d="M520.2,1411.6L520.2,1411.6c0.6-0.4,1.3-0.3,1.7,0.2l6.1,8.1c0.4,0.5,0.3,1.2-0.2,1.6l-0.1,0
									c-0.5,0.4-1.2,0.3-1.6-0.2l-6.1-8.1C519.6,1412.8,519.7,1412,520.2,1411.6z"/>
								<path class="st57" d="M499.3,1430.1L499.3,1430.1c0.6-0.4,1.3-0.3,1.7,0.2l6.1,8.1c0.4,0.5,0.3,1.2-0.2,1.6l-0.1,0
									c-0.5,0.4-1.2,0.3-1.6-0.2l-6.1-8.1C498.7,1431.2,498.8,1430.5,499.3,1430.1z"/>
								<path class="st57" d="M478.5,1448.5L478.5,1448.5c0.6-0.4,1.3-0.3,1.7,0.2l6.1,8.1c0.4,0.5,0.3,1.2-0.2,1.6l-0.1,0
									c-0.5,0.4-1.2,0.3-1.6-0.2l-6.1-8.1C477.8,1449.6,478,1448.9,478.5,1448.5z"/>
								<path class="st57" d="M456.9,1467.4l1.6-1.2c0.1-0.1,0.2-0.1,0.3,0l7.3,9.6c0.1,0.1,0.1,0.2,0,0.3l-1.6,1.2
									c-0.1,0.1-0.2,0.1-0.3,0l-7.3-9.6C456.7,1467.6,456.8,1467.5,456.9,1467.4z"/>
								<path class="st57" d="M585.6,1298.3l1.6-1.2c0.1-0.1,0.2-0.1,0.3,0l7.3,9.6c0.1,0.1,0.1,0.2,0,0.3l-1.6,1.2
									c-0.1,0.1-0.2,0.1-0.3,0l-7.3-9.6C585.5,1298.5,585.5,1298.3,585.6,1298.3z"/>
								<path class="st57" d="M565.8,1316.7l1.6-1.2c0.1-0.1,0.2-0.1,0.3,0l7.3,9.6c0.1,0.1,0.1,0.2,0,0.3l-1.6,1.2
									c-0.1,0.1-0.2,0.1-0.3,0l-7.3-9.6C565.7,1316.9,565.7,1316.8,565.8,1316.7z"/>
								<path class="st57" d="M541.4,1335.1l1.6-1.2c0.1-0.1,0.2-0.1,0.3,0l7.3,9.6c0.1,0.1,0.1,0.2,0,0.3l-1.6,1.2
									c-0.1,0.1-0.2,0.1-0.3,0l-7.3-9.6C541.2,1335.3,541.3,1335.2,541.4,1335.1z"/>
								<path class="st57" d="M521.2,1351.8l1.6-1.2c0.1-0.1,0.2-0.1,0.3,0l7.3,9.6c0.1,0.1,0.1,0.2,0,0.3l-1.6,1.2
									c-0.1,0.1-0.2,0.1-0.3,0l-7.3-9.6C521.1,1352,521.1,1351.9,521.2,1351.8z"/>
								<path class="st57" d="M500.4,1370.2l1.6-1.2c0.1-0.1,0.2-0.1,0.3,0l7.3,9.6c0.1,0.1,0.1,0.2,0,0.3l-1.6,1.2
									c-0.1,0.1-0.2,0.1-0.3,0l-7.3-9.6C500.3,1370.4,500.3,1370.3,500.4,1370.2z"/>
								<path class="st57" d="M479.5,1388.6l1.6-1.2c0.1-0.1,0.2-0.1,0.3,0l7.3,9.6c0.1,0.1,0.1,0.2,0,0.3l-1.6,1.2
									c-0.1,0.1-0.2,0.1-0.3,0l-7.3-9.6C479.4,1388.8,479.4,1388.7,479.5,1388.6z"/>
								<path class="st57" d="M458.6,1407l1.6-1.2c0.1-0.1,0.2-0.1,0.3,0l7.3,9.6c0.1,0.1,0.1,0.2,0,0.3l-1.6,1.2
									c-0.1,0.1-0.2,0.1-0.3,0l-7.3-9.6C458.5,1407.2,458.6,1407.1,458.6,1407z"/>
								<path class="st57" d="M437.8,1425.4l1.6-1.2c0.1-0.1,0.2-0.1,0.3,0l7.3,9.6c0.1,0.1,0.1,0.2,0,0.3l-1.6,1.2
									c-0.1,0.1-0.2,0.1-0.3,0l-7.3-9.6C437.7,1425.6,437.7,1425.5,437.8,1425.4z"/>
							</g>
						</g>
						<circle class="st58" cx="906" cy="1093.4" r="51.7"/>
						<circle class="st59" cx="906" cy="1093.4" r="42.5"/>
						<g>
							<defs>
								<circle id="SVGID_5_" cx="906" cy="1093.4" r="42.5"/>
							</defs>
							<clipPath id="SVGID_6_">
								<use xlink:href="#SVGID_5_"  style="overflow:visible;"/>
							</clipPath>
							<g class="st60">
								<path class="st61" d="M864,1049.4l40.1-13l5.3,16.9c0,0,8.2,19.8,14,28.5c0,0,8.7,13,7.2,27l0.2,18.3l-2.1,12.1L905,1146
									l-7.7-11.1c0,0-27.6-38.6-28.6-64.2L864,1049.4z"/>
								<path class="st10" d="M864,1049.4l40.1-13l5.3,16.9c0,0,8.2,19.8,14,28.5c0,0,8.7,13,7.2,27l0.2,18.3l-2.1,12.1L905,1146
									l-7.7-11.1c0,0-27.6-38.6-28.6-64.2L864,1049.4z"/>
								<path class="st10" d="M869.5,1076.6c0,0,6.9-18,41-20.6"/>
								<path class="st10" d="M871.7,1086c0,0,15.8-19.7,43.4-19.7"/>
								<path class="st10" d="M876.6,1098.7c0,0,16.5-20.9,43.7-22"/>
								<path class="st10" d="M881.8,1109.3c0,0,12.4-19.7,43.9-23.3"/>
								<path class="st10" d="M888,1120.5c0,0,24.6-21.3,42.5-18.4"/>
								<path class="st10" d="M894.2,1130.3c8.9-11.2,22-18.2,36.3-19.2"/>
								<path class="st10" d="M898.5,1136.5c0,0,10.3-12.2,32.1-13.7"/>
								<path class="st62" d="M890.8,1077.9c0,0-4-5.8,0-4.7c2.3,0.6,4.1,2.4,4.7,4.7c0,0,8-4,6.5,0c-0.7,2.2-2,4.2-3.6,5.8
									c0,0,9.8,2.5,3.8,2.9s-7.1,0.7-8.5,3.3s-1.7-2.9-4.7-4s-2.2-6.5-2.2-6.5L890.8,1077.9z"/>
								<path class="st62" d="M915,1116.3c0,0-4-5.8,0-4.7c2.3,0.6,4.1,2.4,4.7,4.7c0,0,8-4,6.5,0c-0.7,2.2-2,4.2-3.6,5.8
									c0,0,9.8,2.5,3.8,2.9s-7.1,0.7-8.5,3.2s-1.7-2.9-4.7-4s-2.2-6.5-2.2-6.5L915,1116.3z"/>
								<path class="st63" d="M915.4,1088.1c0,0,0.6-5.4,4.3-2.2s4.7,12.7-2.1,14.8c0,0-6.6,2.9-6.6-2.2
									C911,1098.6,919.7,1095,915.4,1088.1z"/>
								<path class="st63" d="M900.6,1107.3c0,0,5.3,1.3,1.6,4.5s-13.2,3.1-14.5-4c0,0-2-6.9,3-6.2
									C890.7,1101.6,893.2,1110.8,900.6,1107.3z"/>
								<path class="st63" d="M900.6,1055.5c0,0,5.3,1.3,1.6,4.5s-13.2,3.1-14.5-4c0,0-2-7,3-6.2
									C890.7,1049.8,893.2,1059,900.6,1055.5z"/>
							</g>
						</g>
						<path class="st2" d="M542.8,423.7c0-17,13.8-30.7,30.7-30.7c16.9,0,30.7,13.7,30.7,30.7"/>
						<line class="st7" x1="498.1" y1="379.1" x2="497.8" y2="384.9"/>
					</g>
				</g>
			</g>
		</g>
		<path class="st64" d="M476.6,1089H665c6.6,0,12,5.4,12,12v35c0,6.6-5.4,12-12,12H476.6c-6.6,0-12-5.4-12-12v-35
			C464.6,1094.3,470,1089,476.6,1089z"/>
		<text transform="matrix(1 0 0 1 497.76 1132.49)" class="st65 st66">Sources</text>
	</g>
</g>
</svg>
