<?xml version="1.0" encoding="utf-8"?>
<!-- Generator: Adobe Illustrator 22.1.0, SVG Export Plug-In . SVG Version: 6.00 Build 0)  -->
<svg version="1.1" id="Layer_1" xmlns="http://www.w3.org/2000/svg" xmlns:xlink="http://www.w3.org/1999/xlink" x="0px" y="0px"
	 viewBox="0 0 33.8 21.5" style="enable-background:new 0 0 33.8 21.5;" xml:space="preserve">
<style type="text/css">
	.st0{enable-background:new    ;}
	.st1{fill:#F4AB33;}
	.st2{fill:#FFFFFF;}
</style>
<title>Asset 7</title>
<g id="Layer_2_1_">
	<g id="Layer_1-2-2">
		<g class="st0">
			<path class="st1" d="M7.3,1.4v1.1h-3v8.3H3V2.5H0V1.4H7.3z"/>
		</g>
		<g class="st0">
			<path class="st1" d="M9.7,4.1c0.5,0,0.9,0.1,1.3,0.2c0.4,0.2,0.7,0.4,1,0.7c0.3,0.3,0.5,0.7,0.6,1.1c0.1,0.4,0.2,0.9,0.2,1.4
				c0,0.5-0.1,1-0.2,1.4c-0.1,0.4-0.4,0.8-0.6,1.1c-0.3,0.3-0.6,0.5-1,0.7s-0.8,0.2-1.3,0.2c-0.5,0-0.9-0.1-1.3-0.2s-0.7-0.4-1-0.7
				C7.2,9.6,7,9.3,6.8,8.9S6.6,8,6.6,7.4c0-0.5,0.1-1,0.2-1.4C7,5.6,7.2,5.3,7.4,5c0.3-0.3,0.6-0.5,1-0.7C8.8,4.1,9.3,4.1,9.7,4.1z
				 M9.7,9.9c0.7,0,1.1-0.2,1.5-0.7c0.3-0.4,0.5-1,0.5-1.8c0-0.8-0.2-1.4-0.5-1.8C10.9,5.2,10.4,5,9.7,5C9.4,5,9.1,5,8.9,5.1
				C8.6,5.2,8.4,5.4,8.3,5.6C8.1,5.8,8,6.1,7.9,6.4c-0.1,0.3-0.1,0.7-0.1,1c0,0.4,0,0.7,0.1,1s0.2,0.6,0.4,0.8
				c0.2,0.2,0.4,0.4,0.6,0.5C9.1,9.9,9.4,9.9,9.7,9.9z"/>
			<path class="st1" d="M18.9,10.7c-0.2,0-0.3-0.1-0.3-0.2l-0.1-0.8c-0.3,0.3-0.6,0.6-1,0.8c-0.4,0.2-0.8,0.3-1.2,0.3
				c-0.4,0-0.7-0.1-1-0.2c-0.3-0.1-0.6-0.4-0.8-0.6c-0.2-0.3-0.4-0.6-0.5-1.1c-0.1-0.4-0.2-0.9-0.2-1.4c0-0.5,0.1-0.9,0.2-1.4
				c0.1-0.4,0.3-0.8,0.6-1.1s0.5-0.5,0.9-0.7C15.8,4.1,16.2,4,16.7,4c0.4,0,0.7,0.1,1,0.2c0.3,0.1,0.5,0.3,0.8,0.6V1.2h1.2v9.6H18.9
				z M16.7,9.9c0.4,0,0.7-0.1,1-0.3c0.3-0.2,0.5-0.4,0.8-0.7V5.7c-0.2-0.3-0.4-0.5-0.7-0.6c-0.3-0.1-0.5-0.2-0.8-0.2
				c-0.6,0-1.1,0.2-1.4,0.7C15.2,6,15,6.7,15,7.5c0,0.4,0,0.8,0.1,1.1c0.1,0.3,0.2,0.6,0.3,0.8c0.1,0.2,0.3,0.3,0.5,0.4
				S16.4,9.9,16.7,9.9z"/>
		</g>
		<g class="st0">
			<path class="st1" d="M26.4,10.7h-0.5c-0.1,0-0.2,0-0.3-0.1c-0.1,0-0.1-0.1-0.1-0.2l-0.1-0.6c-0.2,0.2-0.3,0.3-0.5,0.4
				c-0.2,0.1-0.3,0.2-0.5,0.3c-0.2,0.1-0.4,0.1-0.6,0.2c-0.2,0-0.4,0.1-0.7,0.1c-0.3,0-0.5,0-0.7-0.1c-0.2-0.1-0.4-0.2-0.6-0.3
				s-0.3-0.3-0.4-0.5c-0.1-0.2-0.1-0.5-0.1-0.8c0-0.3,0.1-0.5,0.2-0.8c0.1-0.2,0.4-0.5,0.7-0.6s0.7-0.3,1.3-0.5
				c0.5-0.1,1.1-0.2,1.9-0.2V6.5c0-0.5-0.1-0.9-0.3-1.2C24.7,5.1,24.4,5,24,5c-0.3,0-0.5,0-0.7,0.1c-0.2,0.1-0.4,0.2-0.5,0.2
				c-0.1,0.1-0.3,0.2-0.4,0.2s-0.2,0.1-0.3,0.1c-0.1,0-0.1,0-0.2-0.1c-0.1,0-0.1-0.1-0.1-0.2l-0.2-0.4c0.4-0.4,0.8-0.6,1.2-0.8
				C23.1,4.1,23.6,4,24.1,4c0.4,0,0.7,0.1,1,0.2c0.3,0.1,0.5,0.3,0.7,0.5c0.2,0.2,0.3,0.5,0.4,0.8s0.1,0.6,0.1,1V10.7z M23.4,10
				c0.2,0,0.4,0,0.6-0.1s0.3-0.1,0.5-0.2c0.1-0.1,0.3-0.2,0.4-0.3s0.3-0.2,0.4-0.4V7.8c-0.5,0-1,0-1.4,0.1C23.5,8,23.2,8,23,8.2
				c-0.2,0.1-0.4,0.2-0.5,0.4S22.3,8.9,22.3,9c0,0.2,0,0.3,0.1,0.5c0.1,0.1,0.1,0.2,0.2,0.3c0.1,0.1,0.2,0.1,0.3,0.2
				S23.2,10,23.4,10z"/>
		</g>
		<g class="st0">
			<path class="st1" d="M29.9,12.7c0,0.1-0.1,0.2-0.1,0.2S29.6,13,29.5,13h-0.9l1.2-2.6l-2.7-6.2h1c0.1,0,0.2,0,0.2,0.1
				s0.1,0.1,0.1,0.2l1.8,4.1c0,0.1,0.1,0.2,0.1,0.3c0,0.1,0.1,0.2,0.1,0.3c0-0.1,0.1-0.2,0.1-0.3c0-0.1,0.1-0.2,0.1-0.3l1.7-4.1
				c0-0.1,0.1-0.1,0.1-0.2c0.1,0,0.1-0.1,0.2-0.1h0.9L29.9,12.7z"/>
		</g>
		<g id="Layer_2-2-2">
			<g id="Layer_1-2-2-2">
				<polygon class="st2" points="11.5,14.5 23.6,14.5 17.5,20.4 				"/>
				<path class="st2" d="M22.4,15l-4.8,4.6L12.7,15H22.4 M24.8,14H10.2l7.3,7L24.8,14z"/>
			</g>
		</g>
	</g>
</g>
</svg>
