<?xml version="1.0" encoding="utf-8"?>
<!-- Generator: Adobe Illustrator 22.1.0, SVG Export Plug-In . SVG Version: 6.00 Build 0)  -->
<svg version="1.1" id="Layer_1" xmlns="http://www.w3.org/2000/svg" xmlns:xlink="http://www.w3.org/1999/xlink" x="0px" y="0px"
	 viewBox="0 0 33.8 21.5" style="enable-background:new 0 0 33.8 21.5;" xml:space="preserve">
<style type="text/css">
	.st0{enable-background:new    ;}
	.st1{fill:#F4AB33;}
</style>
<title>Asset 1</title>
<g id="Layer_2_1_">
	<g id="Layer_1-2">
		<g class="st0">
			<path class="st1" d="M7.5,1.8v1.1h-3v8.3H3.2V2.9h-3V1.8H7.5z"/>
		</g>
		<g class="st0">
			<path class="st1" d="M9.9,4.5c0.5,0,0.9,0.1,1.3,0.2c0.4,0.2,0.7,0.4,1,0.7c0.3,0.3,0.5,0.7,0.6,1.1c0.1,0.4,0.2,0.9,0.2,1.4
				c0,0.5-0.1,1-0.2,1.4c-0.1,0.4-0.4,0.8-0.6,1.1c-0.3,0.3-0.6,0.5-1,0.7c-0.4,0.2-0.8,0.2-1.3,0.2c-0.5,0-0.9-0.1-1.3-0.2
				c-0.4-0.2-0.7-0.4-1-0.7C7.4,10,7.1,9.7,7,9.3S6.8,8.4,6.8,7.9c0-0.5,0.1-1,0.2-1.4C7.1,6,7.4,5.7,7.6,5.4c0.3-0.3,0.6-0.5,1-0.7
				C9,4.6,9.4,4.5,9.9,4.5z M9.9,10.3c0.7,0,1.1-0.2,1.5-0.7s0.5-1,0.5-1.8c0-0.8-0.2-1.4-0.5-1.8c-0.3-0.4-0.8-0.7-1.5-0.7
				c-0.3,0-0.6,0.1-0.9,0.2S8.6,5.8,8.5,6C8.3,6.3,8.2,6.5,8.1,6.8C8,7.1,8,7.5,8,7.9c0,0.4,0,0.7,0.1,1s0.2,0.6,0.4,0.8
				c0.2,0.2,0.4,0.4,0.6,0.5S9.6,10.3,9.9,10.3z"/>
			<path class="st1" d="M19.1,11.2c-0.2,0-0.3-0.1-0.3-0.2l-0.1-0.8c-0.3,0.3-0.6,0.6-1,0.8c-0.4,0.2-0.8,0.3-1.2,0.3
				c-0.4,0-0.7-0.1-1-0.2c-0.3-0.1-0.6-0.4-0.8-0.6c-0.2-0.3-0.4-0.6-0.5-1.1C14.1,8.9,14,8.4,14,7.9c0-0.5,0.1-0.9,0.2-1.4
				c0.1-0.4,0.3-0.8,0.6-1.1c0.2-0.3,0.5-0.5,0.9-0.7c0.4-0.2,0.7-0.3,1.2-0.3c0.4,0,0.7,0.1,1,0.2c0.3,0.1,0.5,0.3,0.8,0.6V1.6h1.2
				v9.6H19.1z M16.9,10.3c0.4,0,0.7-0.1,1-0.3c0.3-0.2,0.5-0.4,0.8-0.7V6.1c-0.2-0.3-0.4-0.5-0.7-0.6c-0.3-0.1-0.5-0.2-0.8-0.2
				c-0.6,0-1.1,0.2-1.4,0.7c-0.3,0.4-0.5,1.1-0.5,1.9c0,0.4,0,0.8,0.1,1.1s0.2,0.6,0.3,0.8s0.3,0.3,0.5,0.4S16.6,10.3,16.9,10.3z"/>
		</g>
		<g class="st0">
			<path class="st1" d="M26.6,11.2h-0.5c-0.1,0-0.2,0-0.3-0.1c-0.1,0-0.1-0.1-0.1-0.2l-0.1-0.6c-0.2,0.2-0.3,0.3-0.5,0.4
				c-0.2,0.1-0.3,0.2-0.5,0.3c-0.2,0.1-0.4,0.1-0.6,0.2c-0.2,0-0.4,0.1-0.7,0.1c-0.3,0-0.5,0-0.7-0.1c-0.2-0.1-0.4-0.2-0.6-0.3
				s-0.3-0.3-0.4-0.5c-0.1-0.2-0.1-0.5-0.1-0.8c0-0.3,0.1-0.5,0.2-0.8c0.1-0.2,0.4-0.5,0.7-0.6s0.7-0.3,1.3-0.5
				c0.5-0.1,1.1-0.2,1.9-0.2V7c0-0.5-0.1-0.9-0.3-1.2c-0.2-0.3-0.5-0.4-1-0.4c-0.3,0-0.5,0-0.7,0.1c-0.2,0.1-0.4,0.2-0.5,0.2
				c-0.1,0.1-0.3,0.2-0.4,0.2s-0.2,0.1-0.3,0.1c-0.1,0-0.1,0-0.2-0.1C22,6,22,5.9,21.9,5.9l-0.2-0.4c0.4-0.4,0.8-0.6,1.2-0.8
				c0.4-0.2,0.9-0.3,1.4-0.3c0.4,0,0.7,0.1,1,0.2c0.3,0.1,0.5,0.3,0.7,0.5c0.2,0.2,0.3,0.5,0.4,0.8s0.1,0.6,0.1,1V11.2z M23.6,10.5
				c0.2,0,0.4,0,0.6-0.1s0.3-0.1,0.5-0.2c0.1-0.1,0.3-0.2,0.4-0.3s0.3-0.2,0.4-0.4V8.2c-0.5,0-1,0-1.4,0.1c-0.4,0.1-0.7,0.2-0.9,0.3
				c-0.2,0.1-0.4,0.2-0.5,0.4s-0.2,0.3-0.2,0.5c0,0.2,0,0.3,0.1,0.5c0.1,0.1,0.1,0.2,0.2,0.3c0.1,0.1,0.2,0.1,0.3,0.2
				S23.4,10.5,23.6,10.5z"/>
		</g>
		<g class="st0">
			<path class="st1" d="M30.1,13.1c0,0.1-0.1,0.2-0.1,0.2s-0.1,0.1-0.3,0.1h-0.9l1.2-2.6l-2.7-6.2h1c0.1,0,0.2,0,0.2,0.1
				s0.1,0.1,0.1,0.2L30.4,9c0,0.1,0.1,0.2,0.1,0.3c0,0.1,0.1,0.2,0.1,0.3c0-0.1,0.1-0.2,0.1-0.3c0-0.1,0.1-0.2,0.1-0.3l1.7-4.1
				c0-0.1,0.1-0.1,0.1-0.2c0.1,0,0.1-0.1,0.2-0.1h0.9L30.1,13.1z"/>
		</g>
		<g id="Layer_2-2">
			<g id="Layer_1-2-2">
				<polygon class="st1" points="11.6,15 23.8,15 17.7,20.8 				"/>
				<path class="st1" d="M22.5,15.5l-4.8,4.6l-4.8-4.6H22.5 M25,14.5H10.4l7.3,7L25,14.5z"/>
			</g>
		</g>
	</g>
</g>
</svg>
