<?xml version="1.0" encoding="utf-8"?>
<!-- Generator: Adobe Illustrator 22.1.0, SVG Export Plug-In . SVG Version: 6.00 Build 0)  -->
<svg version="1.1" id="Layer_1" xmlns="http://www.w3.org/2000/svg" xmlns:xlink="http://www.w3.org/1999/xlink" x="0px" y="0px"
	 viewBox="0 0 33.5 22.5" style="enable-background:new 0 0 33.5 22.5;" xml:space="preserve">
<style type="text/css">
	.st0{fill:#99B2A9;}
	.st1{enable-background:new    ;}
</style>
<title>Asset 3</title>
<g id="Layer_2_1_">
	<g id="Layer_1-2">
		<g id="Layer_2-2">
			<g id="Layer_1-2-2">
				<polygon class="st0" points="12.6,16 24.8,16 18.7,21.8 				"/>
				<path class="st0" d="M23.5,16.5l-4.8,4.6l-4.8-4.6H23.5 M26,15.5H11.4l7.3,7L26,15.5z"/>
			</g>
		</g>
		<g class="st1">
			<path class="st0" d="M0.1,1.8h1c0.1,0,0.2,0,0.3,0.1s0.1,0.1,0.1,0.2l1.9,6.5c0,0.1,0.1,0.2,0.1,0.4c0,0.1,0.1,0.3,0.1,0.4
				c0-0.1,0.1-0.3,0.1-0.4s0.1-0.3,0.1-0.4l2.2-6.5c0-0.1,0.1-0.1,0.2-0.2s0.2-0.1,0.3-0.1h0.4c0.1,0,0.2,0,0.3,0.1
				C7.2,2,7.2,2.1,7.3,2.1l2.2,6.5c0.1,0.2,0.1,0.5,0.2,0.8c0-0.1,0-0.3,0.1-0.4s0-0.3,0.1-0.4l1.9-6.5c0-0.1,0.1-0.1,0.1-0.2
				c0.1-0.1,0.2-0.1,0.3-0.1h1l-2.9,9.3H9.1L6.8,4.1c0-0.1-0.1-0.3-0.1-0.5c0,0.1,0,0.2-0.1,0.2c0,0.1,0,0.2-0.1,0.2l-2.4,7.1H3
				L0.1,1.8z"/>
		</g>
		<g class="st1">
			<path class="st0" d="M16.6,4.5c0.4,0,0.8,0.1,1.1,0.2C18,4.8,18.3,5,18.6,5.2c0.2,0.2,0.4,0.6,0.6,0.9c0.1,0.4,0.2,0.8,0.2,1.3
				c0,0.2,0,0.3-0.1,0.4S19.2,7.9,19,7.9h-4.4c0,0.4,0.1,0.8,0.2,1.1s0.2,0.6,0.4,0.8c0.2,0.2,0.4,0.4,0.6,0.5
				c0.3,0.1,0.5,0.2,0.8,0.2c0.3,0,0.5,0,0.8-0.1c0.2-0.1,0.4-0.1,0.5-0.2c0.2-0.1,0.3-0.2,0.4-0.2s0.2-0.1,0.3-0.1
				c0.1,0,0.2,0,0.2,0.1l0.3,0.4c-0.1,0.2-0.3,0.3-0.5,0.5c-0.2,0.1-0.4,0.2-0.6,0.3c-0.2,0.1-0.5,0.1-0.7,0.2s-0.5,0.1-0.7,0.1
				c-0.5,0-0.9-0.1-1.3-0.2c-0.4-0.2-0.7-0.4-1-0.7c-0.3-0.3-0.5-0.7-0.7-1.1c-0.2-0.4-0.2-0.9-0.2-1.5c0-0.5,0.1-0.9,0.2-1.3
				c0.1-0.4,0.3-0.7,0.6-1c0.3-0.3,0.6-0.5,1-0.7C15.7,4.6,16.1,4.5,16.6,4.5z M16.6,5.3c-0.6,0-1,0.2-1.3,0.5
				c-0.3,0.3-0.5,0.8-0.6,1.3h3.6c0-0.3,0-0.5-0.1-0.7C18.1,6.2,18,6,17.9,5.8s-0.3-0.3-0.5-0.4C17.1,5.4,16.9,5.3,16.6,5.3z"/>
			<path class="st0" d="M23.4,4.5c0.4,0,0.8,0.1,1.1,0.2c0.3,0.1,0.6,0.3,0.9,0.6c0.2,0.2,0.4,0.6,0.6,0.9s0.2,0.8,0.2,1.3
				c0,0.2,0,0.3-0.1,0.4S26,7.9,25.9,7.9h-4.4c0,0.4,0.1,0.8,0.2,1.1c0.1,0.3,0.2,0.6,0.4,0.8c0.2,0.2,0.4,0.4,0.6,0.5
				s0.5,0.2,0.8,0.2c0.3,0,0.5,0,0.8-0.1s0.4-0.1,0.5-0.2s0.3-0.2,0.4-0.2c0.1-0.1,0.2-0.1,0.3-0.1c0.1,0,0.2,0,0.2,0.1l0.3,0.4
				c-0.1,0.2-0.3,0.3-0.5,0.5c-0.2,0.1-0.4,0.2-0.6,0.3c-0.2,0.1-0.5,0.1-0.7,0.2c-0.2,0-0.5,0.1-0.7,0.1c-0.5,0-0.9-0.1-1.3-0.2
				c-0.4-0.2-0.7-0.4-1-0.7c-0.3-0.3-0.5-0.7-0.7-1.1c-0.2-0.4-0.2-0.9-0.2-1.5c0-0.5,0.1-0.9,0.2-1.3c0.1-0.4,0.3-0.7,0.6-1
				c0.3-0.3,0.6-0.5,1-0.7C22.5,4.6,22.9,4.5,23.4,4.5z M23.4,5.3c-0.6,0-1,0.2-1.3,0.5c-0.3,0.3-0.5,0.8-0.6,1.3h3.6
				c0-0.3,0-0.5-0.1-0.7c-0.1-0.2-0.2-0.4-0.3-0.6c-0.1-0.2-0.3-0.3-0.5-0.4S23.7,5.3,23.4,5.3z"/>
			<path class="st0" d="M28.8,1.6v5.6h0.3c0.1,0,0.2,0,0.2,0s0.1-0.1,0.2-0.1l2.1-2.2c0.1-0.1,0.1-0.1,0.2-0.2
				c0.1,0,0.2-0.1,0.3-0.1h1.1l-2.4,2.6c-0.1,0.1-0.1,0.1-0.2,0.2c-0.1,0.1-0.1,0.1-0.2,0.1c0.1,0.1,0.1,0.1,0.2,0.2
				c0.1,0.1,0.1,0.1,0.2,0.2l2.6,3.2h-1c-0.1,0-0.2,0-0.2-0.1c-0.1,0-0.1-0.1-0.2-0.2l-2.2-2.7c-0.1-0.1-0.1-0.2-0.2-0.2
				c-0.1,0-0.2,0-0.3,0h-0.3v3.1h-1.2V1.6H28.8z"/>
		</g>
	</g>
</g>
</svg>
