<?xml version="1.0" encoding="utf-8"?>
<!-- Generator: Adobe Illustrator 22.1.0, SVG Export Plug-In . SVG Version: 6.00 Build 0)  -->
<svg version="1.1" id="Layer_1" xmlns="http://www.w3.org/2000/svg" xmlns:xlink="http://www.w3.org/1999/xlink" x="0px" y="0px"
	 viewBox="0 0 56.8 22.5" style="enable-background:new 0 0 56.8 22.5;" xml:space="preserve">
<style type="text/css">
	.st0{fill:#828BA6;}
	.st1{enable-background:new    ;}
</style>
<title>Asset 2</title>
<g id="Layer_2_1_">
	<g id="Layer_1-2">
		<g id="Layer_2-2">
			<g id="Layer_1-2-2">
				<polygon class="st0" points="21.6,16 33.8,16 27.7,21.8 				"/>
				<path class="st0" d="M32.5,16.5l-4.8,4.6l-4.8-4.6H32.5 M35,15.5H20.4l7.3,7L35,15.5z"/>
			</g>
		</g>
		<g class="st1">
			<path class="st0" d="M4.7,7.5v3.7H3.5V7.5L0.1,1.8h1.1c0.1,0,0.2,0,0.3,0.1s0.1,0.1,0.2,0.2l2.1,3.6c0.1,0.2,0.2,0.3,0.2,0.4
				C4,6.3,4.1,6.5,4.1,6.6c0-0.1,0.1-0.3,0.2-0.4C4.3,6,4.4,5.9,4.5,5.8l2.1-3.6c0-0.1,0.1-0.1,0.2-0.2C6.8,1.9,6.9,1.8,7,1.8h1.1
				L4.7,7.5z"/>
		</g>
		<g class="st1">
			<path class="st0" d="M10.7,4.5c0.4,0,0.8,0.1,1.1,0.2s0.6,0.3,0.9,0.6c0.2,0.2,0.4,0.6,0.6,0.9c0.1,0.4,0.2,0.8,0.2,1.3
				c0,0.2,0,0.3-0.1,0.4s-0.1,0.1-0.2,0.1H8.8c0,0.4,0.1,0.8,0.2,1.1s0.2,0.6,0.4,0.8c0.2,0.2,0.4,0.4,0.6,0.5
				c0.3,0.1,0.5,0.2,0.8,0.2c0.3,0,0.5,0,0.8-0.1c0.2-0.1,0.4-0.1,0.5-0.2c0.2-0.1,0.3-0.2,0.4-0.2c0.1-0.1,0.2-0.1,0.3-0.1
				c0.1,0,0.2,0,0.2,0.1l0.3,0.4c-0.1,0.2-0.3,0.3-0.5,0.5c-0.2,0.1-0.4,0.2-0.6,0.3c-0.2,0.1-0.5,0.1-0.7,0.2s-0.5,0.1-0.7,0.1
				c-0.5,0-0.9-0.1-1.3-0.2c-0.4-0.2-0.7-0.4-1-0.7C8.2,10,8,9.7,7.9,9.2C7.7,8.8,7.6,8.3,7.6,7.7c0-0.5,0.1-0.9,0.2-1.3
				C8,6,8.2,5.7,8.4,5.4c0.3-0.3,0.6-0.5,1-0.7C9.8,4.6,10.2,4.5,10.7,4.5z M10.7,5.3c-0.6,0-1,0.2-1.3,0.5C9.1,6.1,8.9,6.6,8.8,7.1
				h3.6c0-0.3,0-0.5-0.1-0.7S12.1,6,12,5.8s-0.3-0.3-0.5-0.4C11.2,5.4,11,5.3,10.7,5.3z"/>
			<path class="st0" d="M18.7,5.7c-0.1,0.1-0.1,0.1-0.2,0.1c-0.1,0-0.1,0-0.2-0.1c-0.1,0-0.2-0.1-0.3-0.2c-0.1-0.1-0.3-0.1-0.4-0.2
				c-0.2,0-0.4-0.1-0.6-0.1c-0.2,0-0.4,0-0.5,0.1c-0.2,0-0.3,0.1-0.4,0.2c-0.1,0.1-0.2,0.2-0.3,0.3s-0.1,0.2-0.1,0.4
				c0,0.2,0,0.3,0.1,0.4C15.9,6.8,16,6.9,16.2,7c0.2,0.1,0.3,0.2,0.5,0.2c0.2,0.1,0.4,0.1,0.6,0.2c0.2,0.1,0.4,0.2,0.6,0.2
				c0.2,0.1,0.4,0.2,0.5,0.3c0.2,0.1,0.3,0.3,0.4,0.5C19,8.7,19,8.9,19,9.1c0,0.3-0.1,0.6-0.2,0.8c-0.1,0.3-0.3,0.5-0.5,0.7
				s-0.5,0.3-0.8,0.4s-0.7,0.2-1.1,0.2c-0.5,0-0.9-0.1-1.2-0.2s-0.7-0.3-0.9-0.6l0.3-0.4c0-0.1,0.1-0.1,0.1-0.1c0,0,0.1,0,0.2,0
				c0.1,0,0.2,0,0.2,0.1c0.1,0.1,0.2,0.1,0.3,0.2c0.1,0.1,0.3,0.1,0.4,0.2c0.2,0.1,0.4,0.1,0.7,0.1c0.2,0,0.4,0,0.6-0.1
				s0.3-0.1,0.4-0.2s0.2-0.2,0.3-0.3S18,9.5,18,9.3c0-0.2,0-0.3-0.1-0.5c-0.1-0.1-0.2-0.2-0.4-0.3c-0.2-0.1-0.3-0.2-0.5-0.2
				c-0.2-0.1-0.4-0.1-0.6-0.2C16,8.1,15.8,8,15.6,7.9c-0.2-0.1-0.4-0.2-0.5-0.3c-0.2-0.1-0.3-0.3-0.4-0.5c-0.1-0.2-0.1-0.4-0.1-0.7
				c0-0.3,0.1-0.5,0.2-0.7c0.1-0.2,0.3-0.4,0.5-0.6s0.4-0.3,0.7-0.4c0.3-0.1,0.6-0.2,1-0.2c0.4,0,0.8,0.1,1.2,0.2
				c0.3,0.1,0.6,0.3,0.9,0.6L18.7,5.7z"/>
			<path class="st0" d="M22.5,11.3c-0.5,0-0.9-0.1-1.2-0.4c-0.3-0.3-0.4-0.7-0.4-1.3v-4h-0.8c-0.1,0-0.1,0-0.2-0.1s-0.1-0.1-0.1-0.2
				V4.8L21,4.7l0.3-2c0-0.1,0-0.1,0.1-0.2c0,0,0.1-0.1,0.2-0.1h0.6v2.3H24v0.8h-1.9v4c0,0.3,0.1,0.5,0.2,0.6
				c0.1,0.1,0.3,0.2,0.5,0.2c0.1,0,0.2,0,0.3,0s0.2-0.1,0.2-0.1s0.1-0.1,0.2-0.1c0,0,0.1,0,0.1,0c0.1,0,0.1,0,0.2,0.1l0.3,0.6
				c-0.2,0.2-0.4,0.3-0.7,0.4C23.1,11.2,22.8,11.3,22.5,11.3z"/>
			<path class="st0" d="M28,4.5c0.4,0,0.8,0.1,1.1,0.2C29.4,4.8,29.7,5,30,5.2c0.2,0.2,0.4,0.6,0.6,0.9s0.2,0.8,0.2,1.3
				c0,0.2,0,0.3-0.1,0.4s-0.1,0.1-0.2,0.1h-4.4c0,0.4,0.1,0.8,0.2,1.1s0.2,0.6,0.4,0.8c0.2,0.2,0.4,0.4,0.6,0.5
				c0.3,0.1,0.5,0.2,0.8,0.2c0.3,0,0.5,0,0.8-0.1c0.2-0.1,0.4-0.1,0.5-0.2s0.3-0.2,0.4-0.2c0.1-0.1,0.2-0.1,0.3-0.1
				c0.1,0,0.2,0,0.2,0.1l0.3,0.4c-0.1,0.2-0.3,0.3-0.5,0.5c-0.2,0.1-0.4,0.2-0.6,0.3c-0.2,0.1-0.5,0.1-0.7,0.2s-0.5,0.1-0.7,0.1
				c-0.5,0-0.9-0.1-1.3-0.2c-0.4-0.2-0.7-0.4-1-0.7c-0.3-0.3-0.5-0.7-0.7-1.1c-0.2-0.4-0.2-0.9-0.2-1.5c0-0.5,0.1-0.9,0.2-1.3
				c0.1-0.4,0.3-0.7,0.6-1c0.3-0.3,0.6-0.5,1-0.7C27.1,4.6,27.5,4.5,28,4.5z M28,5.3c-0.6,0-1,0.2-1.3,0.5c-0.3,0.3-0.5,0.8-0.6,1.3
				h3.6c0-0.3,0-0.5-0.1-0.7c-0.1-0.2-0.2-0.4-0.3-0.6c-0.1-0.2-0.3-0.3-0.5-0.4C28.5,5.4,28.3,5.3,28,5.3z"/>
			<path class="st0" d="M32.2,11.2V4.6h0.7c0.1,0,0.2,0,0.3,0.1c0,0,0.1,0.1,0.1,0.2l0.1,1c0.2-0.5,0.5-0.8,0.8-1.1
				c0.3-0.3,0.7-0.4,1.2-0.4c0.2,0,0.3,0,0.5,0.1s0.3,0.1,0.4,0.2l-0.1,0.9c0,0.1-0.1,0.2-0.2,0.2c-0.1,0-0.2,0-0.3-0.1
				c-0.1,0-0.3-0.1-0.5-0.1c-0.4,0-0.7,0.1-1,0.4c-0.3,0.2-0.5,0.6-0.7,1v4.2H32.2z"/>
			<path class="st0" d="M42.1,11.2c-0.2,0-0.3-0.1-0.3-0.2l-0.1-0.8c-0.3,0.3-0.6,0.6-1,0.8c-0.4,0.2-0.8,0.3-1.2,0.3
				c-0.4,0-0.7-0.1-1-0.2c-0.3-0.1-0.6-0.4-0.8-0.6c-0.2-0.3-0.4-0.6-0.5-1.1C37,8.9,37,8.4,37,7.9C37,7.4,37,7,37.2,6.5
				c0.1-0.4,0.3-0.8,0.6-1.1s0.5-0.5,0.9-0.7c0.4-0.2,0.8-0.3,1.2-0.3c0.4,0,0.7,0.1,1,0.2c0.3,0.1,0.5,0.3,0.8,0.6V1.6h1.2v9.6
				H42.1z M39.8,10.3c0.4,0,0.7-0.1,1-0.3c0.3-0.2,0.5-0.4,0.8-0.7V6.1c-0.2-0.3-0.4-0.5-0.7-0.6c-0.3-0.1-0.5-0.2-0.8-0.2
				c-0.6,0-1.1,0.2-1.4,0.7c-0.3,0.4-0.5,1.1-0.5,1.9c0,0.4,0,0.8,0.1,1.1c0.1,0.3,0.2,0.6,0.3,0.8c0.1,0.2,0.3,0.3,0.5,0.4
				S39.6,10.3,39.8,10.3z"/>
		</g>
		<g class="st1">
			<path class="st0" d="M49.5,11.2H49c-0.1,0-0.2,0-0.3-0.1c-0.1,0-0.1-0.1-0.1-0.2l-0.1-0.6c-0.2,0.2-0.3,0.3-0.5,0.4
				c-0.2,0.1-0.3,0.2-0.5,0.3c-0.2,0.1-0.4,0.1-0.6,0.2c-0.2,0-0.4,0.1-0.7,0.1c-0.3,0-0.5,0-0.7-0.1c-0.2-0.1-0.4-0.2-0.6-0.3
				s-0.3-0.3-0.4-0.5c-0.1-0.2-0.1-0.5-0.1-0.8c0-0.3,0.1-0.5,0.2-0.8c0.1-0.2,0.4-0.5,0.7-0.6s0.7-0.3,1.3-0.5
				c0.5-0.1,1.1-0.2,1.9-0.2V7c0-0.5-0.1-0.9-0.3-1.2c-0.2-0.3-0.5-0.4-1-0.4c-0.3,0-0.5,0-0.7,0.1c-0.2,0.1-0.4,0.2-0.5,0.2
				c-0.1,0.1-0.3,0.2-0.4,0.2s-0.2,0.1-0.3,0.1c-0.1,0-0.1,0-0.2-0.1c-0.1,0-0.1-0.1-0.1-0.2l-0.2-0.4c0.4-0.4,0.8-0.6,1.2-0.8
				c0.4-0.2,0.9-0.3,1.4-0.3c0.4,0,0.7,0.1,1,0.2c0.3,0.1,0.5,0.3,0.7,0.5c0.2,0.2,0.3,0.5,0.4,0.8s0.1,0.6,0.1,1V11.2z M46.5,10.5
				c0.2,0,0.4,0,0.6-0.1s0.3-0.1,0.5-0.2c0.1-0.1,0.3-0.2,0.4-0.3s0.3-0.2,0.4-0.4V8.2c-0.5,0-1,0-1.4,0.1c-0.4,0.1-0.7,0.2-0.9,0.3
				c-0.2,0.1-0.4,0.2-0.5,0.4s-0.2,0.3-0.2,0.5c0,0.2,0,0.3,0.1,0.5c0.1,0.1,0.1,0.2,0.2,0.3c0.1,0.1,0.2,0.1,0.3,0.2
				S46.4,10.5,46.5,10.5z"/>
		</g>
		<g class="st1">
			<path class="st0" d="M53,13.1c0,0.1-0.1,0.2-0.1,0.2s-0.1,0.1-0.3,0.1h-0.9l1.2-2.6l-2.7-6.2h1c0.1,0,0.2,0,0.2,0.1
				s0.1,0.1,0.1,0.2L53.4,9c0,0.1,0.1,0.2,0.1,0.3c0,0.1,0.1,0.2,0.1,0.3c0-0.1,0.1-0.2,0.1-0.3c0-0.1,0.1-0.2,0.1-0.3l1.7-4.1
				c0-0.1,0.1-0.1,0.1-0.2c0.1,0,0.1-0.1,0.2-0.1h0.9L53,13.1z"/>
		</g>
	</g>
</g>
</svg>
