<svg xmlns="http://www.w3.org/2000/svg" viewBox="0 0 410.17 410.18"><defs><style>.cls-1{fill:#fff;}</style></defs><title>Asset 1</title><g id="Layer_2" data-name="Layer 2"><g id="Layer_1-2" data-name="Layer 1"><path class="cls-1" d="M410.17,188v33.6c-.95,6.45-1.63,13-2.87,19.34-12.69,65.35-48.61,113.92-106.86,145.67C261.63,407.76,219.72,414,176.18,408,134,402.27,97,384.66,66.23,355.33c-53.41-51-75.89-113.77-62.41-186.47C19.08,86.6,69.24,33.38,148.66,7.63c13-4.2,26.4-6.14,39.91-7.63h33.6c9.49,1.19,19,2.19,28.31,4.59,76.87,19.85,127.79,67.29,152,143.09C406.64,160.79,408.47,174.39,410.17,188Zm-69.58-72.3c9.87,0,19.74,0,29.6,0,2.8,0,3.38-.83,1.89-3.22-3-4.74-6.07-9.42-8.78-14.31C357.72,88.14,350,81.12,338.24,79.27a8,8,0,0,1-1.13-.39c-22.54-7.43-45.19-14.27-68.86-17.36-13.45-1.77-25.7-7-35.88-16.24-1.82-1.66-3.16-1.42-4.85-.08a55.78,55.78,0,0,1-14.65,8,19.4,19.4,0,0,1-14.76.09,55.38,55.38,0,0,1-14.69-8c-1.8-1.43-3.17-1.77-5.15,0-9.34,8.48-20.52,13.26-32.78,15.62-5.88,1.13-11.87,1.68-17.75,2.84-23.07,4.52-45.3,12-67.51,19.53a9.25,9.25,0,0,0-4.34,3.35,192.89,192.89,0,0,0-16.67,24.89c-2.24,4-2.21,4.08,2.27,4.08,17.87,0,35.74.22,53.6-.09a25.83,25.83,0,0,1,18.52,7.05,66.93,66.93,0,0,1,21.54,37.91c2.68,14.08,2.72,28.29,1.8,42.6-1.21,18.87-1.62,37.8-2.83,56.67-.41,6.34.29,12.82-1.86,19-10.27,29.57-12.62,60.34-13.84,91.3-.12,3.15,1.1,4.8,3.87,6.13a198.14,198.14,0,0,0,54,16.88c2.89.48,4.41-.55,5.32-3.35q6.39-19.57,13-39.05c1-2.89,0-4.16-2.7-4.91a30.08,30.08,0,0,1-10.43-4.9c-3.66-2.78-4.67-6.78-2.61-10.15s6.19-4.52,10.16-2.14c11,6.6,21.84,6.56,32.83-.05,3.8-2.28,7.73-1.26,9.88,2S233,338,229.47,340.8a29.63,29.63,0,0,1-10.77,5.11c-2.87.76-3.46,2.23-2.52,5q6.66,19.49,13,39.05c.94,2.89,2.58,3.66,5.41,3.19a199.85,199.85,0,0,0,52.87-16.37c3.5-1.66,5.08-3.58,4.82-7.56-.74-11.43-1-22.88-2.31-34.28-2.13-18.56-4.79-37-11.1-54.69a35,35,0,0,1-1.84-10.57c-.48-12.38-1.13-24.75-1.72-37.13-1-20.21-3.18-40.39-1.47-60.67,1.61-18.93,8.39-35.41,22.45-48.51,5.46-5.08,11.65-8.11,19.46-7.75C324.05,116,332.33,115.7,340.59,115.7ZM65.32,130.14v.19c-10.4,0-20.79.07-31.19-.05-3.13,0-4.79,1.19-6,4.09a187.85,187.85,0,0,0-12.72,87c3.3,38.17,17.12,72.33,41,102.35a190.22,190.22,0,0,0,43.43,39.83c1,.69,2.09,2,3.54,1.08,1.15-.75.83-2.17.83-3.33,0-7.87.88-15.68,1.6-23.51,1.75-19.12,4.49-38.11,10.24-56.47a85.67,85.67,0,0,0,3.45-22.36c.54-13,1.25-26.06,1.91-39.1.85-16.75,2.35-33.49.47-50.27-1.6-14.35-7.47-26.54-18.32-36.19a11,11,0,0,0-7.51-3.25C85.84,130.18,75.58,130.14,65.32,130.14Zm280.52.18h0c-9.2,0-18.42.44-27.58-.16-6.35-.41-10.59,2.2-14.62,6.48-11.36,12.08-15.34,26.79-15.59,42.86-.43,28.4,2.55,56.67,3.4,85,.1,3.54.08,7.2,1.25,10.67,9.14,27.14,12.12,55.29,13.77,83.67.12,2-1.09,4.81,1.21,5.83,1.87.83,3.56-1.37,5.13-2.51,56.26-40.67,84.42-95.48,82.86-165.15-.48-21.54-5.18-42.21-12.95-62.26-1.25-3.23-3-4.55-6.5-4.49C366.1,130.42,356,130.32,345.84,130.32ZM80.32,61.06c1.72-.37,2.49-.46,3.21-.69A389.83,389.83,0,0,1,144.9,46.08c8.54-1.34,16.13-5.3,22.88-10.78,2.22-1.8,2.9-3.53,1-6a27.9,27.9,0,0,1-3.61-6.2c-1.41-3.46-3.57-3.93-7-3a193.87,193.87,0,0,0-44.09,17.46A187.51,187.51,0,0,0,80.32,61.06Zm249.11-.45a188.14,188.14,0,0,0-75.91-40.39c-4.24-1.15-6.87-.59-8.38,3.77a15.77,15.77,0,0,1-2.85,4.79c-2.4,2.89-1.51,4.92,1.15,7a54.47,54.47,0,0,0,22.63,10.45c10.05,2,20.26,3.08,30.23,5.53C307.41,54.43,318.38,57.63,329.43,60.61ZM205.67,14.39c-7.84.26-15.44.17-23,1.17-4,.53-4.4,1.28-2.36,4.74A45.49,45.49,0,0,0,199.42,38a12.16,12.16,0,0,0,11.81,0,45.46,45.46,0,0,0,19.13-17.62c2.14-3.6,1.69-4.28-2.61-4.85C220.33,14.52,212.86,14.72,205.67,14.39Zm.08,351.2a7.5,7.5,0,0,0-2.09,4q-3.45,10.21-6.83,20.43c-1.62,4.88-1.59,4.9,3.73,5.25a32.24,32.24,0,0,0,4.77.33c11.59-1,10.75,1.14,7.2-9.67-.83-2.53-1.67-5.05-2.52-7.58C208.64,374.2,207.26,370.09,205.75,365.59Z"/><path class="cls-1" d="M175.82,171.17c-13.26-.81-23.34-8.08-31.14-18.94-2.13-3-1.3-6.15,1.26-8.7s6-2.74,9.09-.48a26.36,26.36,0,0,1,3.69,3.63c8.8,9.81,16.66,11.75,28.82,7.06,4.87-1.88,8.81-.74,10.6,3.07,1.87,4,.06,7.85-4.78,10.29C188,169.79,182.32,170.87,175.82,171.17Z"/><path class="cls-1" d="M231.79,171.05a33.49,33.49,0,0,1-15.38-3.71c-4-2.17-5.52-6-3.85-9.69a6.9,6.9,0,0,1,9.4-3.5c11.34,5.09,20.41.93,28.81-6.5,1.6-1.41,3-3.08,4.65-4.38,3.17-2.47,6.74-2.27,9.44.3a6.68,6.68,0,0,1,.74,9.41c-7.88,9.58-17.6,16.17-30.23,17.71C234.05,170.86,232.72,171,231.79,171.05Z"/><path class="cls-1" d="M219.25,261.44a22.32,22.32,0,0,1-3.43,12.5,12.83,12.83,0,0,1-8.93,6.14,7,7,0,0,1-7.92-4c-1.54-3.14-1-6.38,1.77-8.23,2.95-2,3.69-4.52,4.16-7.62.88-5.76,3.5-8.18,8.08-7.76C217.25,252.85,219.33,255.82,219.25,261.44Z"/><path class="cls-1" d="M185.2,74.59c-.2,3.17-1.27,5.37-3.72,6.68A6.51,6.51,0,0,1,174.3,81a33.9,33.9,0,0,1-9-9,6.54,6.54,0,0,1,.92-8.76,6.42,6.42,0,0,1,8.4-1.14,32,32,0,0,1,9.54,9.49A10.18,10.18,0,0,1,185.2,74.59Z"/><path class="cls-1" d="M232.85,82.21a7.07,7.07,0,0,1-6.28-3.58,6.61,6.61,0,0,1,.29-7.53,37.85,37.85,0,0,1,8.72-8.69,7,7,0,0,1,10.93,6.13C246.35,73.07,237.35,82.09,232.85,82.21Z"/></g></g></svg>