<svg xmlns="http://www.w3.org/2000/svg" viewBox="0 0 410.16 410.11"><defs><style>.cls-1{fill:#fff;}</style></defs><title>Asset 1</title><g id="Layer_2" data-name="Layer 2"><g id="Layer_1-2" data-name="Layer 1"><path class="cls-1" d="M188.56,0h33.6c6.44.94,13,1.55,19.31,2.88,81.6,17.18,135.14,65.65,161,144.81,4.27,13.08,6,26.7,7.73,40.31v33.6c-1.05,7.24-1.86,14.53-3.2,21.72-20.7,110.81-129.51,184.59-240.4,163.06C50.3,383.81-23.74,267.62,7,153.34,26.88,79.16,75.31,30.83,148.61,7.62,161.61,3.5,175.08,1.71,188.56,0ZM387.5,204.58c-.12-100.3-81.82-181.92-182.08-181.92-100.53,0-182.29,81.75-182.2,182.17.09,100.71,81.89,182.26,182.68,182.11C306.08,386.79,387.62,304.9,387.5,204.58Z"/><path class="cls-1" d="M197.59,318.7c-36.27-1.54-71-19.52-96.86-54.5-3.13-4.25-3-4.34,1.46-7.25,3.35-2.18,6.72-4.33,10.08-6.5,4.8-3.1,4.83-3.13,8.1,1.41a105.17,105.17,0,0,0,34.74,30.71C200.69,308,259.37,294.9,290,252.48c3.69-5.1,3.69-5.09,8.87-1.74,3.25,2.1,6.51,4.17,9.75,6.28,4.34,2.82,4.38,2.87,1.51,7-15.32,21.82-35.64,37.2-60.5,46.6C235.19,316.05,220.18,318.75,197.59,318.7Z"/><path class="cls-1" d="M253.07,159a22.42,22.42,0,0,1,22.33-22.45A22.6,22.6,0,1,1,253.07,159Z"/><path class="cls-1" d="M160.86,159.18a22.5,22.5,0,0,1-22.23,22.57,22.59,22.59,0,1,1,.09-45.17A22.38,22.38,0,0,1,160.86,159.18Z"/></g></g></svg>