<svg xmlns="http://www.w3.org/2000/svg" viewBox="0 0 358.71 410.09"><defs><style>.cls-1{fill:#fff;}</style></defs><title>Asset 1</title><g id="Layer_2" data-name="Layer 2"><g id="Layer_1-2" data-name="Layer 1"><path class="cls-1" d="M218.62,0c1.81.44,3.6,1,5.42,1.32,6.82,1.36,9.42,3.85,10.85,10.51C243.08,50,219.82,85.44,181.56,93.2c-4.56.92-4.55.92-2.41,4.89a84,84,0,0,1,8,21.25c.77,3.37,1.85,3.77,4.74,1.89,15.18-9.87,31.63-16.41,49.74-18.48a93,93,0,0,1,51.74,8.5c24.6,11.79,41.08,31.3,51.86,55.91,12.22,27.89,15.65,57,12.16,87.18-4.28,36.85-16.94,70.39-39.69,99.76C297.9,379.69,273.39,399,241.3,407c-19.51,4.86-38.85,4.08-57.66-3.5a11.85,11.85,0,0,0-9.17-.11c-27.93,10.36-55,7.24-81.2-5.89-31-15.56-53-40.18-69.28-70.37A200.69,200.69,0,0,1,2,259.47c-4.66-33-1.38-65.24,12.9-95.68,12.4-26.45,31.33-46.52,59.47-56.62,25-9,49.48-6.78,73.61,3.37a164.36,164.36,0,0,1,16.64,8.56,55.26,55.26,0,0,0-7-15.6c-14.94-23.39-36-36.43-64-37.83a20.5,20.5,0,0,1-7.44-1.3,10.68,10.68,0,0,1-6.25-11.75,11,11,0,0,1,11-8.74,99.16,99.16,0,0,1,41.77,9.43,40.36,40.36,0,0,1,6,3.15c3.06,2.13,3.9.9,4.57-2.19,5.81-26.57,21.91-43.79,47.74-52,3-1,6.19-1.51,9.29-2.26ZM21.82,232.35a175.9,175.9,0,0,0,22.33,86.92c13.57,24.65,31.7,45.14,57.06,58.28,23.38,12.11,47.42,14.45,71.9,3.26,4.78-2.18,8.94-1.32,13.37.72,20.29,9.32,40.84,9,61.31.84,26-10.28,45.41-28.58,60.31-51.73,22.94-35.66,32.46-74.76,27.77-117-2.59-23.36-10.32-44.91-25.89-63-15.05-17.5-34.13-27.13-57.36-27.09-16.89,0-32.44,5.41-46.82,14.22-6.73,4.12-12.74,9.19-19,14-5,3.87-9.11,3.84-14.23.13-2-1.48-4-3.15-5.9-4.77-15.43-12.82-32.81-21.69-52.89-23.55-30.06-2.79-53.47,9.61-70.57,33.9C27.51,179.87,21.88,205.37,21.82,232.35Zm149-159.63c24.74-.55,44.53-21.21,44.35-46.33,0-4.92-.39-5.28-5.16-5.34a45.92,45.92,0,0,0-46.56,46.62c0,3.73,1.1,5.53,5,5.06A21.17,21.17,0,0,1,170.84,72.72Z"/><path class="cls-1" d="M102.31,148.82c-.47,4-2.19,7.83-6.52,9.32-21,7.23-30.47,24-36,43.73-6.3,22.5-4.95,45.07.72,67.52.43,1.68,1,3.34,1.29,5,1.21,6.07-2.13,11.68-7.71,13.06s-11.21-1.71-13-7.7a150.1,150.1,0,0,1-4.84-21c-3.82-25.59-2.79-50.8,7-75.07,7.23-17.93,18.26-32.78,36-41.79a45.63,45.63,0,0,1,10-3.88A10.78,10.78,0,0,1,102.31,148.82Z"/></g></g></svg>