<svg xmlns="http://www.w3.org/2000/svg" viewBox="0 0 407.47 410.18"><defs><style>.cls-1{fill:#fff;}</style></defs><title>Asset 1</title><g id="Layer_2" data-name="Layer 2"><g id="Layer_1-2" data-name="Layer 1"><path class="cls-1" d="M208.56,0c8.71,2,16.35,5.75,21.52,13.37,6.95,10.23,6.6,23-1,34.14-4.2,6.19-8.51,12.26-10.5,19.63a39.62,39.62,0,0,0-.9,18.17c.81,4.12,1.44,4.45,5.18,2.19a755.77,755.77,0,0,1,67.86-36.67c23.51-11.13,47.34-21.52,72.8-27.45,9.86-2.29,19.83-4.29,30-1.3,9.06,2.67,13.76,10.48,11.62,19.78-1.79,7.78-6.36,14-11.35,20C381.89,76,367.72,87.76,353.14,99c-8.12,6.26-16.6,12.07-24.88,18.13-1,.73-2.5,1.05-2.77,2.9,3.44.94,6.89,1.77,10.28,2.82,38.56,12,61.39,38.32,69,77.49,8.15,42.2-2.42,81.13-24.72,116.82-31.46,50.38-77.58,79.55-135.85,89.57-44.3,7.62-87.33,2.94-127.71-17.28C55,358.65,16.18,309.38,3.82,241.56-9.42,168.87,11.94,106.31,65.21,55.18c30.21-29,66.39-46.89,107.91-53.54C177.18,1,181.28.54,185.36,0ZM89.44,235.43c-7.73.22-16.64-.24-25.55-.84-8-.55-11.48-6.35-8-13.67,1.55-3.25,3.11-6.5,4.81-9.67,8.34-15.49,16.48-31.1,28.3-44.39,10.51-11.82,23.54-15.39,38.68-12.05a5.56,5.56,0,0,0,5.73-1.49c3.64-3.52,7.36-7,11.19-10.27a519.75,519.75,0,0,1,56.2-41.62C203.6,99.61,204.08,98,203,95c-3-8.31-3.34-16.91-2-25.63,1.79-12,7.75-21.94,14.36-31.75,6.2-9.21,1.32-19-9.68-20.63-7.09-1.05-14.15-.33-21.12.36a176.47,176.47,0,0,0-73.75,24.43C72.49,64.49,45.11,96.55,28.92,138c-12.59,32.19-15.08,65.55-8.87,99.42,10,54.61,38.73,97.07,85.47,126.78,41.12,26.14,86.33,34.27,134.18,26C301.94,379.42,348.18,346.23,376,289.11c12.35-25.38,17.4-52.52,13.13-80.85-2.54-16.81-8.62-32.17-19.82-45.16-14.63-17-33.86-24.68-55.55-27.8-8.28-1.19-15.24.31-22.1,5.13-6.63,4.65-13.88,8.46-21,12.42-35.1,19.56-70.94,37.5-109.68,48.9-2.48.73-3.56,2.15-4.4,4.52-5.29,14.88-15.33,24.14-31.29,26.9C113.77,235.16,102.25,235.59,89.44,235.43ZM388.12,39.73c-.1-2-1.46-1.92-2.62-2a57,57,0,0,0-15.07,1.37c-19.52,4.18-37.91,11.61-56.13,19.53C278.89,74,245.43,93,212.83,113.59c-2.15,1.36-3.2,2.38-1.15,4.82a111.71,111.71,0,0,1,18.85,32.75c1,2.69,2.22,3.11,4.72,1.72,7.1-3.94,14.39-7.56,21.47-11.54,38.52-21.66,75.79-45.14,108.91-74.66,8-7.12,15.43-14.71,21-23.94C387.25,41.72,387.7,40.6,388.12,39.73ZM216,160.56c-.23-.69-.47-1.46-.73-2.21a98.94,98.94,0,0,0-14.19-26.27c-5.32-7.11-5.39-7.06-12.44-2-1.08.78-2.19,1.53-3.26,2.32A402.24,402.24,0,0,0,148.65,162c-1.9,1.75-2.5,3-.42,5.18a35.29,35.29,0,0,1,8.41,14.8c.63,2.2,1.43,3.14,3.9,2.39,18.38-5.64,36-13.1,53.42-21.21C215.05,162.68,216.24,162.21,216,160.56Zm-97.6,10c-7.86-.06-13.86,3.12-19.28,10.24C90.84,191.67,84,203.38,77.58,215.38c-1,1.9-1.17,2.83,1.46,2.91,14.5.47,29,.45,43.39-1.62,12.88-1.86,19.81-13.62,19.23-23.81A23.12,23.12,0,0,0,118.37,170.59Z"/><path class="cls-1" d="M141.16,49.21A32.31,32.31,0,1,1,109.09,82C108.93,63.72,123,49.33,141.16,49.21Zm.12,47.55c8.9,0,15.35-6.48,15.3-15.4A15.37,15.37,0,0,0,141.1,65.9a16,16,0,0,0-15.37,15.43A15.36,15.36,0,0,0,141.28,96.76Z"/><path class="cls-1" d="M309.09,248.33A32.39,32.39,0,0,1,341.31,216c17.76,0,32.4,14.82,32.29,32.77a32.26,32.26,0,1,1-64.51-.42Zm32.17,15.5a15.41,15.41,0,1,0,0-30.82,15.41,15.41,0,1,0,0,30.82Z"/><path class="cls-1" d="M213.61,344.6a32.68,32.68,0,0,1-32.37,32.32c-17.75.08-32.14-14.73-32.19-32.84a32.08,32.08,0,0,1,32.51-32C199.44,312,213.67,326.85,213.61,344.6ZM181.39,329a15.41,15.41,0,1,0-.23,30.82,15.41,15.41,0,1,0,.23-30.82Z"/><path class="cls-1" d="M69.09,296.28a32.26,32.26,0,1,1,64.52.11c0,17.87-14.81,32.68-32.57,32.53A32.42,32.42,0,0,1,69.09,296.28Zm32,15.55a15.41,15.41,0,1,0,.31-30.82,15.41,15.41,0,1,0-.31,30.82Z"/><path class="cls-1" d="M309.61,328.59a32.68,32.68,0,0,1-32.36,32.33c-17.74.1-32.15-14.72-32.2-32.83a32.08,32.08,0,0,1,32.5-32C295.41,296,309.66,310.84,309.61,328.59ZM277.2,343.83a15.41,15.41,0,1,0,.15-30.82,15.41,15.41,0,1,0-.15,30.82Z"/><path class="cls-1" d="M206.08,282C186.34,281.93,168,275.71,153,261c-2.35-2.31-4.22-4.94-3.64-8.46a8.05,8.05,0,0,1,5.59-6.72c3.37-1.13,6.35-.14,8.8,2.28a53.41,53.41,0,0,0,20.35,13.07c21.53,7.32,42,5.09,61.12-7.43a34.93,34.93,0,0,0,15.46-22c.14-.65.33-1.29.53-1.93,1.66-5.32,5.75-7.92,10.54-6.7,4.15,1.06,6.57,5.35,5.7,10.52a47.6,47.6,0,0,1-10.9,23.24C254.62,270.94,238.82,277.92,221,281,216.36,281.85,211.7,281.86,206.08,282Z"/><path class="cls-1" d="M269.36,197a8.22,8.22,0,0,1-.08-16.44,8.22,8.22,0,1,1,.08,16.44Z"/></g></g></svg>