<svg xmlns="http://www.w3.org/2000/svg" viewBox="0 0 307.82 410"><defs><style>.cls-1{fill:#fff;}</style></defs><title>Asset 1</title><g id="Layer_2" data-name="Layer 2"><g id="Layer_1-2" data-name="Layer 1"><path class="cls-1" d="M199.52,0c4,1.94,5.89,5.08,5.95,9.57.38,28.65,12.09,53.13,28.19,76,13.91,19.71,28.94,38.62,41.68,59.16,16,25.83,26.7,53.61,30.63,83.82,3,23.32,2.76,46.48-3.89,69.3a154,154,0,0,1-46.86,73.93c-20.34,17.93-43.86,29.86-70.4,35.05-44.09,8.61-84.8,0-121.28-26.45-31.77-23-51.62-54.12-60.21-92.31C-.42,271.4-.51,254.52.67,237.54c1.25-18.06,4.23-35.7,10.61-52.66,6.78-18,16.49-34.07,32.54-45.47,8.69-6.16,14.83-3.72,17.09,6.74,3.39,15.67,8.62,30.51,19.07,43a42.69,42.69,0,0,0,17.27,12.59c4.72,1.86,5.19,1.47,5.22-3.57a403.35,403.35,0,0,1,5.45-66c5.12-29.91,17.54-56.63,34.9-81.2a211.67,211.67,0,0,1,50.3-51Zm10.17,379.74c1.29-.48,1.89-.65,2.45-.92a130.47,130.47,0,0,0,43.5-32.65c26.2-30.14,36.9-65.17,33.55-105-2.67-31.66-12.69-60.56-29.3-87.4-11.73-19-25.61-36.41-38.52-54.54-15-21-27.58-43.11-31.77-69.08-.47-2.86-1.39-3.32-3.67-1.23A202.79,202.79,0,0,0,163.05,54C142,81,128.34,111.29,123.84,145.44c-2.71,20.64-3.47,41.4-3.42,62.19a37.53,37.53,0,0,1-.37,6.37c-1,5.58-4.75,8.6-10.39,8.33-15.29-.75-28.46-6.36-39.31-17.24-11.08-11.11-18-24.67-23-39.32-.41-1.19-.31-3-1.84-3.23-1.25-.19-1.94,1.28-2.65,2.2a86.51,86.51,0,0,0-10.55,16.92c-13.64,29.7-16.95,61.14-12.92,93,4.87,38.54,24.36,69.14,55.72,92.06a104.79,104.79,0,0,0,22.73,12.93,10.84,10.84,0,0,0-.56-1.54C82,353.65,82.07,328,91.73,301.8c2.75-7.44,7.17-14,13.86-18.68,6.52-4.55,13.12-2.06,15,5.6a63.73,63.73,0,0,0,1.63,6.18c1.19,3.32,2.13,6.8,5.23,10.28.52-5.8.84-10.78,1.43-15.72,3.21-26.71,15.6-48.37,36.28-65.38,3-2.44,6.27-3.49,10-1.67s5.23,4.84,5.29,8.72a46.76,46.76,0,0,0,7.55,24.52c6.82,10.82,14.38,21.19,20.78,32.24,12.1,20.88,16.81,43.3,11.68,67.26C218.66,363.81,214.68,371.61,209.69,379.74ZM108.3,309.4a12.47,12.47,0,0,0-1.14,2c-5.26,17.9-6.35,35.66,2.48,52.87,13.69,26.63,46.5,36,70.52,19.81,20-13.49,26.63-33,23.65-56.35-2.11-16.47-9.32-30.69-18.81-44-5.64-7.92-11.35-15.82-15.56-24.65-1.46-3.07-2.69-6.25-4.13-9.62a12.75,12.75,0,0,0-1.47,1.27,77.91,77.91,0,0,0-16.91,39.54,221,221,0,0,0-1.62,27.1c0,7.77-3.73,11.24-11.49,10.78A26.68,26.68,0,0,1,117.3,321C113.7,317.74,111.17,313.7,108.3,309.4Z"/></g></g></svg>