<svg xmlns="http://www.w3.org/2000/svg" viewBox="0 0 523 467.4"><defs><style>.cls-1{stroke:#000;stroke-miterlimit:10;stroke-width:11px;}</style></defs><title>Asset 1</title><g id="Layer_2" data-name="Layer 2"><g id="Layer_1-2" data-name="Layer 1"><path class="cls-1" d="M512.06,185.77,269.36,8.07a13.29,13.29,0,0,0-15.72,0L11,185.77a13.3,13.3,0,1,0,15.71,21.46L261.5,35.29,496.34,207.23a13.3,13.3,0,1,0,15.72-21.46Z"/><path class="cls-1" d="M447.75,210.25a13.3,13.3,0,0,0-13.31,13.3V435.3H328V319.71a66.52,66.52,0,1,0-133,0V435.3H88.56V223.55a13.31,13.31,0,0,0-26.61,0V448.6a13.3,13.3,0,0,0,13.3,13.3h133a13.29,13.29,0,0,0,13.25-12.26,8.1,8.1,0,0,0,.06-1V319.71a39.91,39.91,0,0,1,79.82,0V448.6a8.05,8.05,0,0,0,.06,1,13.29,13.29,0,0,0,13.25,12.27h133a13.3,13.3,0,0,0,13.3-13.3v-225A13.3,13.3,0,0,0,447.75,210.25Z"/></g></g></svg>