<svg xmlns="http://www.w3.org/2000/svg" viewBox="0 0 531.72 472.03"><defs><style>.cls-1{stroke:#000;stroke-miterlimit:10;stroke-width:5px;}</style></defs><title>Asset 2</title><g id="Layer_2" data-name="Layer 2"><g id="Layer_1-2" data-name="Layer 1"><path class="cls-1" d="M523.62,188,273.94,5.14a13.68,13.68,0,0,0-16.16,0L8.1,188A13.68,13.68,0,1,0,24.27,210L265.86,33.15,507.45,210A13.68,13.68,0,1,0,523.62,188Z"/><path d="M457.46,213.13a13.68,13.68,0,0,0-13.68,13.69V444.66H334.29V325.75a68.43,68.43,0,1,0-136.86,0V444.66H88V226.82a13.69,13.69,0,1,0-27.38,0V458.34A13.69,13.69,0,0,0,74.26,472H211.11a13.69,13.69,0,0,0,13.64-12.62c0-.32.05-.67.05-1.07V325.75a41.06,41.06,0,1,1,82.12,0V458.34a8.16,8.16,0,0,0,.06,1.05A13.67,13.67,0,0,0,320.61,472H457.46a13.69,13.69,0,0,0,13.69-13.69V226.82A13.69,13.69,0,0,0,457.46,213.13Z"/></g></g></svg>